fira-sans_thin.sfdir
StartChar: exclam
Encoding: 33 33 2122
Width: 238
Flags: MW
HStem: -8 46<112 126.5> 661 20G<108 129 129 129>
VStem: 96 47<8.5 21.5> 108 21<202 681 202 681>
LayerCount: 2
Back
Fore
SplineSet
129 681 m 1xd0
 129 202 l 1
 108 202 l 1
 108 681 l 1
 129 681 l 1xd0
119 38 m 0xe0
 134 38 143 28 143 15 c 0
 143 2 134 -8 119 -8 c 0
 105 -8 96 2 96 15 c 0
 96 28 105 38 119 38 c 0xe0
EndSplineSet
EndChar

StartChar: quotedbl
Encoding: 34 34 991
Width: 327
Flags: MW
HStem: 661 20G<83 106 106 106 221 245 245 245>
VStem: 84.5 20 222.5 21
LayerCount: 2
Fore
SplineSet
83 681 m 1
 106 681 l 1
 103 441 l 1
 86 441 l 1
 83 681 l 1
221 681 m 1
 245 681 l 1
 242 441 l 1
 224 441 l 1
 221 681 l 1
EndSplineSet
EndChar
StartChar: numbersign
Encoding: 35 35 2124
Width: 488
Flags: MW
HStem: 0 21G<71 96 71 71 305 330 305 305> 200 20<15 98 15 101 125 331 359 436> 459 20<52 132 52 135 159 366 393 473>
VStem: 15 458<200 459 220 459>
LayerCount: 2
Back
Fore
SplineSet
473 459 m 1
 390 459 l 1
 359 220 l 1
 436 220 l 1
 436 200 l 1
 356 200 l 1
 330 0 l 1
 305 0 l 1
 331 200 l 1
 122 200 l 1
 96 0 l 1
 71 0 l 1
 98 200 l 1
 15 200 l 1
 15 220 l 1
 101 220 l 1
 132 459 l 1
 52 459 l 1
 52 479 l 1
 135 479 l 1
 159 662 l 1
 183 662 l 1
 159 479 l 1
 368 479 l 1
 392 662 l 1
 417 662 l 1
 393 479 l 1
 473 479 l 1
 473 459 l 1
334 220 m 1
 366 459 l 1
 156 459 l 1
 125 220 l 1
 334 220 l 1
EndSplineSet
Substitution2: "'onum' Oldstyle Figures lookup 25 subtable" numbersign.osf
Substitution2: "'tnum' Tabular Numbers lookup 24 subtable" numbersign.tf
AlternateSubs2: "'aalt' Access All Alternates lookup 1 subtable" numbersign.tf numbersign.osf
EndChar

StartChar: quotesingle
Encoding: 39 39 992
Width: 189
Flags: MW
HStem: 661 20G<83 106 106 106>
VStem: 84.5 20
LayerCount: 2
Fore
SplineSet
83 681 m 1
 106 681 l 1
 103 441 l 1
 86 441 l 1
 83 681 l 1
EndSplineSet
EndChar
StartChar: parenleft
Encoding: 40 40 2154
Width: 325
Flags: MW
HStem: -129 958<241 241>
VStem: 69 22<239 461 239 464>
LayerCount: 2
Back
Fore
SplineSet
241 829 m 1
 256 820 l 1
 167 689 91 572 91 350 c 0
 91 128 167 11 256 -120 c 1
 241 -129 l 1
 147 5 69 122 69 350 c 0
 69 578 147 695 241 829 c 1
EndSplineSet
Substitution2: "'case' Case-Sensitive Forms lookup 28 subtable" parenleft.case
Substitution2: "'dnom' Denominators lookup 16 subtable" parenleft.dnom
Substitution2: "'numr' Numerators lookup 15 subtable" parenleft.numr
Substitution2: "'sups' Superscript lookup 14 subtable" uni207D
Substitution2: "'subs' Subscript lookup 13 subtable" uni208D
AlternateSubs2: "'aalt' Access All Alternates lookup 1 subtable" uni208D uni207D parenleft.numr parenleft.dnom parenleft.case
EndChar

StartChar: parenright
Encoding: 41 41 1008
Width: 325
Flags: MW
HStem: -129 958<84 84>
VStem: 234 22<239 461>
LayerCount: 2
Fore
SplineSet
84 829 m 1
 178 695 256 578 256 350 c 0
 256 122 178 5 84 -129 c 1
 69 -120 l 1
 158 11 234 128 234 350 c 0
 234 572 158 689 69 820 c 1
 84 829 l 1
EndSplineSet
Substitution2: "'case' Case-Sensitive Forms lookup 25 subtable" parenright.case
Substitution2: "'dnom' Denominators lookup 14 subtable" parenright.dnom
Substitution2: "'numr' Numerators lookup 13 subtable" parenright.numr
Substitution2: "'sups' Superscript lookup 12 subtable" parenrightsuperior
Substitution2: "'subs' Subscript lookup 11 subtable" uni208E
AlternateSubs2: "'aalt' Access All Alternates lookup 1 subtable" uni208E parenrightsuperior parenright.numr parenright.dnom parenright.case
EndChar
StartChar: asterisk
Encoding: 42 42 2112
Width: 432
Flags: MW
HStem: 551 20G<207 207> 712 20G<205 227 227 227>
VStem: 206 20.5
LayerCount: 2
Back
Fore
SplineSet
382 603 m 1
 231 557 l 1
 325 429 l 1
 307 416 l 1
 216 546 l 1
 124 416 l 1
 106 429 l 1
 202 556 l 1
 49 603 l 1
 56 623 l 1
 207 571 l 1
 205 732 l 1
 227 732 l 1
 226 573 l 1
 376 623 l 1
 382 603 l 1
EndSplineSet
EndChar

StartChar: plus
Encoding: 43 43 1113
Width: 485
Flags: MW
HStem: 320 21<78 232 78 232 254 407>
VStem: 232 22<165 320 165 320 341 496>
LayerCount: 2
Fore
SplineSet
254 341 m 1
 407 341 l 1
 407 320 l 1
 254 320 l 1
 254 165 l 1
 232 165 l 1
 232 320 l 1
 78 320 l 1
 78 341 l 1
 232 341 l 1
 232 496 l 1
 254 496 l 1
 254 341 l 1
EndSplineSet
Substitution2: "'onum' Oldstyle Figures lookup 22 subtable" plus.osf
Substitution2: "'tnum' Tabular Numbers lookup 21 subtable" plus.tf
Substitution2: "'dnom' Denominators lookup 14 subtable" plus.dnom
Substitution2: "'numr' Numerators lookup 13 subtable" plus.numr
Substitution2: "'sups' Superscript lookup 12 subtable" plussuperior
Substitution2: "'subs' Subscript lookup 11 subtable" uni208A
AlternateSubs2: "'aalt' Access All Alternates lookup 1 subtable" uni208A plussuperior plus.numr plus.dnom plus.tf plus.osf
EndChar
StartChar: hyphen
Encoding: 45 45 2166
Width: 399
Flags: MW
HStem: 302 21<78 321 78 321>
VStem: 78 243<302 323 302 323>
LayerCount: 2
Back
Fore
SplineSet
78 302 m 1
 78 323 l 1
 321 323 l 1
 321 302 l 1
 78 302 l 1
EndSplineSet
Substitution2: "'case' Case-Sensitive Forms lookup 28 subtable" hyphen.case
Substitution2: "'aalt' Access All Alternates lookup 0 subtable" hyphen.case
EndChar
StartChar: slash
Encoding: 47 47 2132
Width: 520
Flags: MW
HStem: -95 893<154 366>
VStem: 134 252
LayerCount: 2
Back
Fore
SplineSet
366 798 m 1
 386 792 l 1
 154 -95 l 1
 134 -90 l 1
 366 798 l 1
EndSplineSet
Substitution2: "'frac' Diagonal Fractions lookup 17 subtable" fraction
Substitution2: "'aalt' Access All Alternates lookup 0 subtable" fraction
EndChar
StartChar: zero
Encoding: 48 48 2011
Width: 541
Flags: MW
HStem: -10 21<215 327 215 334> 652 21<215.5 327.5>
VStem: 76 23<224.5 439.5 224.5 445.5> 442 23<223 437.5>
LayerCount: 2
Back
Fore
SplineSet
271 673 m 0
 397 673 465 559 465 330 c 0
 465 104 397 -10 271 -10 c 0
 144 -10 76 105 76 332 c 0
 76 559 144 673 271 673 c 0
271 652 m 0
 160 652 99 547 99 332 c 0
 99 117 159 11 271 11 c 0
 383 11 442 116 442 330 c 0
 442 545 384 652 271 652 c 0
EndSplineSet
Substitution2: "'zero' Slashed Zero lookup 31 subtable" zero.zero
Substitution2: "'onum' Oldstyle Figures lookup 25 subtable" zero.osf
Substitution2: "'tnum' Tabular Numbers lookup 24 subtable" zero.tf
Substitution2: "'frac' Diagonal Fractions lookup 18 subtable" zero.numr
Substitution2: "'dnom' Denominators lookup 16 subtable" zero.dnom
Substitution2: "'numr' Numerators lookup 15 subtable" zero.numr
Substitution2: "'sups' Superscript lookup 14 subtable" uni2070
Substitution2: "'subs' Subscript lookup 13 subtable" uni2080
AlternateSubs2: "'aalt' Access All Alternates lookup 1 subtable" uni2080 uni2070 zero.numr zero.dnom zero.tf zero.osf zero.zero
EndChar

StartChar: one
Encoding: 49 49 878
Width: 393
Flags: MW
HStem: 0 21G<238 260 238 238>
VStem: 238 22<0 635 635 635>
LayerCount: 2
Fore
SplineSet
260 0 m 1
 238 0 l 1
 238 635 l 1
 64 525 l 1
 53 542 l 1
 242 661 l 1
 260 661 l 1
 260 0 l 1
EndSplineSet
Substitution2: "'onum' Oldstyle Figures lookup 22 subtable" one.osf
Substitution2: "'tnum' Tabular Numbers lookup 21 subtable" one.tf
Substitution2: "'frac' Diagonal Fractions lookup 16 subtable" one.numr
Substitution2: "'dnom' Denominators lookup 14 subtable" one.dnom
Substitution2: "'numr' Numerators lookup 13 subtable" one.numr
Substitution2: "'sups' Superscript lookup 12 subtable" onesuperior
Substitution2: "'subs' Subscript lookup 11 subtable" oneinferior
AlternateSubs2: "'aalt' Access All Alternates lookup 1 subtable" oneinferior onesuperior one.numr one.dnom one.tf one.osf
EndChar

StartChar: two
Encoding: 50 50 879
Width: 464
Flags: MW
HStem: 0 22<75 401> 652 21<185.5 266>
VStem: 367 23<441 548>
LayerCount: 2
Fore
SplineSet
221 673 m 0
 328 673 390 600 390 506 c 0
 390 369 319 292 75 22 c 1
 405 22 l 1
 401 0 l 1
 47 0 l 1
 47 21 l 1
 305 305 367 378 367 504 c 0
 367 592 311 652 221 652 c 0
 150 652 101 621 60 572 c 1
 43 583 l 1
 93 643 146 673 221 673 c 0
EndSplineSet
Substitution2: "'onum' Oldstyle Figures lookup 22 subtable" two.osf
Substitution2: "'tnum' Tabular Numbers lookup 21 subtable" two.tf
Substitution2: "'frac' Diagonal Fractions lookup 16 subtable" two.numr
Substitution2: "'dnom' Denominators lookup 14 subtable" two.dnom
Substitution2: "'numr' Numerators lookup 13 subtable" two.numr
Substitution2: "'sups' Superscript lookup 12 subtable" twosuperior
Substitution2: "'subs' Subscript lookup 11 subtable" twoinferior
AlternateSubs2: "'aalt' Access All Alternates lookup 1 subtable" twoinferior twosuperior two.numr two.dnom two.tf two.osf
EndChar
StartChar: three
Encoding: 51 51 2014
Width: 474
Flags: MW
HStem: -10 21<174.5 262 174.5 267> 342 20<177 211 211 212 174 211> 652 21<187 260.5>
VStem: 362 23<462.5 554> 380 23<131 236>
LayerCount: 2
Back
Fore
SplineSet
217 673 m 0xf0
 321 673 385 606 385 512 c 0xf0
 385 413 322 361 247 353 c 1
 333 351 403 292 403 182 c 0
 403 69 326 -10 208 -10 c 0
 131 -10 77 17 28 73 c 1
 43 85 l 1
 93 30 141 11 208 11 c 0
 316 11 380 81 380 181 c 0xe8
 380 291 312 342 212 342 c 2
 174 342 l 1
 177 362 l 1
 211 362 l 2
 285 362 362 407 362 511 c 0
 362 597 305 652 216 652 c 0
 158 652 109 634 60 586 c 1
 46 600 l 1
 94 649 147 673 217 673 c 0xf0
EndSplineSet
Substitution2: "'onum' Oldstyle Figures lookup 25 subtable" three.osf
Substitution2: "'tnum' Tabular Numbers lookup 24 subtable" three.tf
Substitution2: "'frac' Diagonal Fractions lookup 18 subtable" three.numr
Substitution2: "'dnom' Denominators lookup 16 subtable" three.dnom
Substitution2: "'numr' Numerators lookup 15 subtable" three.numr
Substitution2: "'sups' Superscript lookup 14 subtable" uni00B3
Substitution2: "'subs' Subscript lookup 13 subtable" uni2083
AlternateSubs2: "'aalt' Access All Alternates lookup 1 subtable" uni2083 uni00B3 three.numr three.dnom three.tf three.osf
EndChar

StartChar: four
Encoding: 52 52 881
Width: 503
Flags: MW
HStem: 0 21G<348 370 348 348> 187 20<75 348 75 348 370 463>
VStem: 51 24<187 207 205 207> 348 22<0 187 0 187 0 207>
LayerCount: 2
Fore
SplineSet
463 187 m 1
 370 187 l 1
 370 0 l 1
 348 0 l 1
 348 187 l 1
 51 187 l 1
 51 205 l 1
 257 673 l 1
 276 665 l 1
 75 207 l 1
 348 207 l 1
 351 418 l 1
 370 418 l 1
 370 207 l 1
 463 207 l 1
 463 187 l 1
EndSplineSet
Substitution2: "'onum' Oldstyle Figures lookup 22 subtable" four.osf
Substitution2: "'tnum' Tabular Numbers lookup 21 subtable" four.tf
Substitution2: "'frac' Diagonal Fractions lookup 16 subtable" four.numr
Substitution2: "'dnom' Denominators lookup 14 subtable" four.dnom
Substitution2: "'numr' Numerators lookup 13 subtable" four.numr
Substitution2: "'sups' Superscript lookup 12 subtable" foursuperior
Substitution2: "'subs' Subscript lookup 11 subtable" fourinferior
AlternateSubs2: "'aalt' Access All Alternates lookup 1 subtable" fourinferior foursuperior four.numr four.dnom four.tf four.osf
EndChar
StartChar: five
Encoding: 53 53 2016
Width: 474
Flags: MW
HStem: -10 21<183.5 272 183.5 279> 354 22<87 109> 394 21<205 280> 641 20<109 389 109 109>
VStem: 87 22<376 641 376 661 376 661> 391 23<153.5 273>
LayerCount: 2
Back
Fore
SplineSet
393 661 m 1
 389 641 l 1
 109 641 l 1
 109 376 l 1
 139 397 177 415 232 415 c 0
 345 415 414 339 414 214 c 0
 414 84 341 -10 217 -10 c 0
 143 -10 87 18 43 65 c 1
 59 79 l 1
 100 35 149 11 218 11 c 0
 326 11 391 93 391 214 c 0
 391 332 328 394 232 394 c 0xbc
 178 394 146 381 105 354 c 1
 87 354 l 1xfc
 87 661 l 1
 393 661 l 1
EndSplineSet
Substitution2: "'onum' Oldstyle Figures lookup 25 subtable" five.osf
Substitution2: "'tnum' Tabular Numbers lookup 24 subtable" five.tf
Substitution2: "'frac' Diagonal Fractions lookup 18 subtable" five.numr
Substitution2: "'dnom' Denominators lookup 16 subtable" five.dnom
Substitution2: "'numr' Numerators lookup 15 subtable" five.numr
Substitution2: "'sups' Superscript lookup 14 subtable" uni2075
Substitution2: "'subs' Subscript lookup 13 subtable" uni2085
AlternateSubs2: "'aalt' Access All Alternates lookup 1 subtable" uni2085 uni2075 five.numr five.dnom five.tf five.osf
EndChar
StartChar: six
Encoding: 54 54 2017
Width: 513
Flags: MW
HStem: -10 21<211.5 324.5 211.5 327.5> 406 21<242 324.5> 652 21<237.5 322>
VStem: 76 23 429 22<159.5 284>
LayerCount: 2
Back
Fore
SplineSet
283 427 m 0
 378 427 451 361 451 222 c 0
 451 76 381 -10 274 -10 c 0
 129 -10 76 126 76 288 c 0
 76 524 160 673 303 673 c 0
 349 673 382 658 412 636 c 1
 399 619 l 1
 371 641 342 652 302 652 c 0
 173 652 102 505 99 310 c 1
 139 374 198 427 283 427 c 0
274 11 m 0
 375 11 429 98 429 221 c 0
 429 347 367 406 282 406 c 0
 202 406 141 353 99 278 c 1
 102 125 149 11 274 11 c 0
EndSplineSet
Substitution2: "'onum' Oldstyle Figures lookup 25 subtable" six.osf
Substitution2: "'tnum' Tabular Numbers lookup 24 subtable" six.tf
Substitution2: "'frac' Diagonal Fractions lookup 18 subtable" six.numr
Substitution2: "'dnom' Denominators lookup 16 subtable" six.dnom
Substitution2: "'numr' Numerators lookup 15 subtable" six.numr
Substitution2: "'sups' Superscript lookup 14 subtable" uni2076
Substitution2: "'subs' Subscript lookup 13 subtable" uni2086
AlternateSubs2: "'aalt' Access All Alternates lookup 1 subtable" uni2086 uni2076 six.numr six.dnom six.tf six.osf
EndChar

StartChar: seven
Encoding: 55 55 884
Width: 432
Flags: MW
HStem: -6 21G<114 114> 641 20<38 365 38 389>
VStem: 365 24<641 643>
LayerCount: 2
Fore
SplineSet
389 643 m 1
 114 -6 l 1
 93 2 l 1
 365 641 l 1
 38 641 l 1
 38 661 l 1
 389 661 l 1
 389 643 l 1
EndSplineSet
Substitution2: "'onum' Oldstyle Figures lookup 22 subtable" seven.osf
Substitution2: "'tnum' Tabular Numbers lookup 21 subtable" seven.tf
Substitution2: "'frac' Diagonal Fractions lookup 16 subtable" seven.numr
Substitution2: "'dnom' Denominators lookup 14 subtable" seven.dnom
Substitution2: "'numr' Numerators lookup 13 subtable" seven.numr
Substitution2: "'sups' Superscript lookup 12 subtable" sevensuperior
Substitution2: "'subs' Subscript lookup 11 subtable" seveninferior
AlternateSubs2: "'aalt' Access All Alternates lookup 1 subtable" seveninferior sevensuperior seven.numr seven.dnom seven.tf seven.osf
EndChar
StartChar: nine
Encoding: 57 57 2020
Width: 508
Flags: MW
HStem: 255 21<192.5 273.5> 652 21<201 309.5>
VStem: 61 24<401 520 401 525> 415 22
LayerCount: 2
Back
Fore
SplineSet
250 673 m 0
 382 673 437 569 437 397 c 0
 437 149 322 48 126 -15 c 1
 119 3 l 1
 300 62 405 154 414 364 c 1
 370 294 311 255 236 255 c 0
 136 255 61 333 61 459 c 0
 61 591 140 673 250 673 c 0
238 276 m 0
 314 276 367 318 415 394 c 1
 414 558 369 652 250 652 c 0
 152 652 85 582 85 458 c 0
 85 344 147 276 238 276 c 0
EndSplineSet
Substitution2: "'onum' Oldstyle Figures lookup 25 subtable" nine.osf
Substitution2: "'tnum' Tabular Numbers lookup 24 subtable" nine.tf
Substitution2: "'frac' Diagonal Fractions lookup 18 subtable" nine.numr
Substitution2: "'dnom' Denominators lookup 16 subtable" nine.dnom
Substitution2: "'numr' Numerators lookup 15 subtable" nine.numr
Substitution2: "'sups' Superscript lookup 14 subtable" uni2079
Substitution2: "'subs' Subscript lookup 13 subtable" uni2089
AlternateSubs2: "'aalt' Access All Alternates lookup 1 subtable" uni2089 uni2079 nine.numr nine.dnom nine.tf nine.osf
EndChar
StartChar: less
Encoding: 60 60 2259
Width: 495
GlyphClass: 2
Flags: MW
HStem: 159 344<406 406>
VStem: 79 25<333 333 333 341 333 341>
LayerCount: 2
Back
Fore
SplineSet
406 503 m 1
 415 484 l 1
 104 333 l 1
 415 178 l 1
 406 159 l 1
 79 325 l 1
 79 341 l 1
 406 503 l 1
EndSplineSet
Substitution2: "'onum' Oldstyle Figures lookup 25 subtable" less.osf
Substitution2: "'tnum' Tabular Numbers lookup 24 subtable" less.tf
AlternateSubs2: "'aalt' Access All Alternates lookup 1 subtable" less.tf less.osf
EndChar
StartChar: equal
Encoding: 61 61 2251
Width: 485
GlyphClass: 2
Flags: MW
HStem: 241 22<78 407 78 407> 399 21<78 407 78 407>
VStem: 78 329<241 263 241 263 399 420 241 420>
LayerCount: 2
Back
Fore
SplineSet
78 399 m 1
 78 420 l 1
 407 420 l 1
 407 399 l 1
 78 399 l 1
78 241 m 1
 78 263 l 1
 407 263 l 1
 407 241 l 1
 78 241 l 1
EndSplineSet
Substitution2: "'onum' Oldstyle Figures lookup 25 subtable" equal.osf
Substitution2: "'tnum' Tabular Numbers lookup 24 subtable" equal.tf
Substitution2: "'dnom' Denominators lookup 16 subtable" equal.dnom
Substitution2: "'numr' Numerators lookup 15 subtable" equal.numr
Substitution2: "'sups' Superscript lookup 14 subtable" uni207C
AlternateSubs2: "'aalt' Access All Alternates lookup 1 subtable" uni207C equal.numr equal.dnom equal.tf equal.osf
EndChar
StartChar: greater
Encoding: 62 62 2254
Width: 495
GlyphClass: 2
Flags: MW
HStem: 159 344<88 88>
VStem: 390 25<333 333>
LayerCount: 2
Back
Fore
SplineSet
88 503 m 1
 415 341 l 1
 415 325 l 1
 88 159 l 1
 79 178 l 1
 390 333 l 1
 79 484 l 1
 88 503 l 1
EndSplineSet
Substitution2: "'onum' Oldstyle Figures lookup 25 subtable" greater.osf
Substitution2: "'tnum' Tabular Numbers lookup 24 subtable" greater.tf
AlternateSubs2: "'aalt' Access All Alternates lookup 1 subtable" greater.tf greater.osf
EndChar
StartChar: C
Encoding: 67 67 43
Width: 538
GlyphClass: 2
Flags: MW
HStem: -10 22<274 380.5 274 381.5> 670 21<277.5 378.5>
VStem: 78 23<231.5 455 231.5 458.5>
AnchorPoint: "Anchor-14" 327 343 basechar 0
AnchorPoint: "Anchor-13" 0 0 basechar 0
AnchorPoint: "Anchor-12" 342 681 basechar 0
AnchorPoint: "Anchor-11" 0 0 basechar 0
AnchorPoint: "Anchor-10" 341 0 basechar 0
LayerCount: 2
Back
Fore
SplineSet
344 691 m 0
 419 691 463 668 505 633 c 1
 492 617 l 1
 449 651 411 670 346 670 c 0
 209 670 101 570 101 340 c 0
 101 123 206 12 342 12 c 0
 419 12 461 39 499 71 c 1
 513 54 l 1
 472 19 421 -10 342 -10 c 0
 189 -10 78 113 78 340 c 0
 78 577 195 691 344 691 c 0
EndSplineSet
Substitution2: "'c2sc' Capitals to Small Capitals lookup 26 subtable" c.sc
Substitution2: "'aalt' Access All Alternates lookup 0 subtable" c.sc
Position2: "'cpsp' Capital Spacing lookup 0 subtable" dx=5 dy=0 dh=10 dv=0
EndChar
StartChar: E
Encoding: 69 69 67
Width: 494
GlyphClass: 2
Flags: MW
HStem: 0 21<146 451 146 451> 349 21<146 400 146 400> 660 21<146 441 146 146>
VStem: 123 23<21 349 370 660>
AnchorPoint: "Anchor-14" 0 0 basechar 0
AnchorPoint: "Anchor-13" 0 0 basechar 0
AnchorPoint: "Anchor-12" 287 681 basechar 0
AnchorPoint: "Anchor-11" 434 0 basechar 0
AnchorPoint: "Anchor-10" 283 0 basechar 0
LayerCount: 2
Back
Fore
SplineSet
444 681 m 1
 441 660 l 1
 146 660 l 1
 146 370 l 1
 400 370 l 1
 400 349 l 1
 146 349 l 1
 146 21 l 1
 451 21 l 1
 451 0 l 1
 123 0 l 1
 123 681 l 1
 444 681 l 1
EndSplineSet
Substitution2: "'c2sc' Capitals to Small Capitals lookup 26 subtable" e.sc
Substitution2: "'aalt' Access All Alternates lookup 0 subtable" e.sc
Position2: "'cpsp' Capital Spacing lookup 0 subtable" dx=5 dy=0 dh=10 dv=0
EndChar
StartChar: F
Encoding: 70 70 95
Width: 471
GlyphClass: 2
Flags: MW
HStem: 0 21G<123 146 123 123> 335 21<146 396 146 396> 660 21<146 436 146 146>
VStem: 123 23<0 335 356 660>
AnchorPoint: "Anchor-14" 0 0 basechar 0
AnchorPoint: "Anchor-13" 0 0 basechar 0
AnchorPoint: "Anchor-12" 291 681 basechar 0
AnchorPoint: "Anchor-11" 0 0 basechar 0
AnchorPoint: "Anchor-10" 0 0 basechar 0
LayerCount: 2
Back
Fore
SplineSet
439 681 m 1
 436 660 l 1
 146 660 l 1
 146 356 l 1
 396 356 l 1
 396 335 l 1
 146 335 l 1
 146 0 l 1
 123 0 l 1
 123 681 l 1
 439 681 l 1
EndSplineSet
Substitution2: "'c2sc' Capitals to Small Capitals lookup 26 subtable" f.sc
Substitution2: "'aalt' Access All Alternates lookup 0 subtable" f.sc
Position2: "'cpsp' Capital Spacing lookup 0 subtable" dx=5 dy=0 dh=10 dv=0
EndChar

StartChar: H
Encoding: 72 72 40
Width: 660
GlyphClass: 2
Flags: MW
HStem: 0 21G<123 146 123 123 514 514 514 537> 349 22<146 514 146 514> 661 20G<123 146 146 146 514 537 537 537>
VStem: 123 23<0 349 0 371 371 681> 514 23<0 349 349 349 371 681 0 681>
AnchorPoint: "Anchor-11" 0 0 basechar 0
AnchorPoint: "Anchor-10" 87 681 basechar 0
AnchorPoint: "Anchor-9" 328 681 basechar 0
AnchorPoint: "Anchor-8" 0 0 basechar 0
LayerCount: 2
Fore
SplineSet
514 349 m 1
 146 349 l 1
 146 0 l 1
 123 0 l 1
 123 681 l 1
 146 681 l 1
 146 371 l 1
 514 371 l 1
 514 681 l 1
 537 681 l 1
 537 0 l 1
 514 0 l 1
 514 349 l 1
EndSplineSet
Substitution2: "'c2sc' Capitals to Small Capitals lookup 23 subtable" h.sc
Substitution2: "'aalt' Access All Alternates lookup 0 subtable" h.sc
Position2: "'cpsp' Capital Spacing lookup 0 subtable" dx=5 dy=0 dh=10 dv=0
EndChar

StartChar: I
Encoding: 73 73 43
Width: 268
GlyphClass: 2
Flags: MW
HStem: 0 21G<123 146 123 123> 661 20G<123 146 146 146>
VStem: 123 23<0 681>
AnchorPoint: "Anchor-11" 0 0 basechar 0
AnchorPoint: "Anchor-10" 87 681 basechar 0
AnchorPoint: "Anchor-9" 134 681 basechar 0
AnchorPoint: "Anchor-8" 156 0 basechar 0
LayerCount: 2
Fore
SplineSet
146 0 m 1
 123 0 l 1
 123 681 l 1
 146 681 l 1
 146 0 l 1
EndSplineSet
Substitution2: "'c2sc' Capitals to Small Capitals lookup 23 subtable" i.sc
Substitution2: "'aalt' Access All Alternates lookup 0 subtable" i.sc
Position2: "'cpsp' Capital Spacing lookup 0 subtable" dx=5 dy=0 dh=10 dv=0
EndChar

StartChar: J
Encoding: 74 74 54
Width: 277
GlyphClass: 2
Flags: MW
HStem: 661 20G<138 161 161 161>
VStem: 138 23<89 681>
AnchorPoint: "Anchor-11" 0 0 basechar 0
AnchorPoint: "Anchor-10" 0 0 basechar 0
AnchorPoint: "Anchor-9" 148 681 basechar 0
AnchorPoint: "Anchor-8" 0 0 basechar 0
LayerCount: 2
Fore
SplineSet
161 87 m 2
 161 -13 138 -53 30 -100 c 1
 23 -83 l 1
 116 -40 138 -4 138 89 c 2
 138 681 l 1
 161 681 l 1
 161 87 l 2
EndSplineSet
Substitution2: "'c2sc' Capitals to Small Capitals lookup 23 subtable" j.sc
Substitution2: "'aalt' Access All Alternates lookup 0 subtable" j.sc
Position2: "'cpsp' Capital Spacing lookup 0 subtable" dx=5 dy=0 dh=10 dv=0
EndChar

StartChar: K
Encoding: 75 75 56
Width: 510
GlyphClass: 2
Flags: MW
HStem: 0 21G<123 146 123 123 478 478 478 506> 661 20G<123 146 146 146 463 490 490 490>
VStem: 123 23<0 681>
AnchorPoint: "Anchor-11" 295 0 basechar 0
AnchorPoint: "Anchor-10" 0 0 basechar 0
AnchorPoint: "Anchor-9" 288 681 basechar 0
AnchorPoint: "Anchor-8" 0 0 basechar 0
LayerCount: 2
Fore
SplineSet
146 0 m 1
 123 0 l 1
 123 681 l 1
 146 681 l 1
 146 0 l 1
178 367 m 1
 506 0 l 1
 478 0 l 1
 149 367 l 1
 463 681 l 1
 490 681 l 1
 178 367 l 1
EndSplineSet
Substitution2: "'c2sc' Capitals to Small Capitals lookup 23 subtable" k.sc
Substitution2: "'aalt' Access All Alternates lookup 0 subtable" k.sc
Position2: "'cpsp' Capital Spacing lookup 0 subtable" dx=5 dy=0 dh=10 dv=0
EndChar
StartChar: L
Encoding: 76 76 144
Width: 456
GlyphClass: 2
Flags: MW
HStem: 0 22<146 430> 661 20G<123 146 146 146>
VStem: 123 23<22 681 22 681 22 681>
AnchorPoint: "Anchor-14" 351 354 basechar 0
AnchorPoint: "Anchor-13" 181 681 basechar 0
AnchorPoint: "Anchor-12" 135 681 basechar 0
AnchorPoint: "Anchor-11" 0 0 basechar 0
AnchorPoint: "Anchor-10" 279 0 basechar 0
LayerCount: 2
Back
Fore
SplineSet
146 681 m 1
 146 22 l 1
 434 22 l 1
 430 0 l 1
 123 0 l 1
 123 681 l 1
 146 681 l 1
EndSplineSet
Substitution2: "'c2sc' Capitals to Small Capitals lookup 26 subtable" l.sc
Substitution2: "'aalt' Access All Alternates lookup 0 subtable" l.sc
Position2: "'cpsp' Capital Spacing lookup 0 subtable" dx=5 dy=0 dh=10 dv=0
EndChar
StartChar: O
Encoding: 79 79 176
Width: 689
GlyphClass: 2
Flags: MW
HStem: -10 22<271.5 421 271.5 427.5> 670 21<272 418>
VStem: 78 23<233 446.5 233 451> 588 23<233.5 448.5>
AnchorPoint: "Anchor-14" 0 0 basechar 0
AnchorPoint: "Anchor-13" 531 681 basechar 0
AnchorPoint: "Anchor-12" 345 681 basechar 0
AnchorPoint: "Anchor-11" 428 0 basechar 0
AnchorPoint: "Anchor-10" 345 0 basechar 0
LayerCount: 2
Back
Fore
SplineSet
344 691 m 0
 505 691 611 569 611 340 c 0
 611 119 511 -10 344 -10 c 0
 185 -10 78 115 78 339 c 0
 78 563 187 691 344 691 c 0
344 670 m 0
 200 670 101 554 101 339 c 0
 101 127 199 12 344 12 c 0
 498 12 588 127 588 340 c 0
 588 557 492 670 344 670 c 0
EndSplineSet
Substitution2: "Single Substitution lookup 41 subtable" ordmasculine
Substitution2: "'c2sc' Capitals to Small Capitals lookup 26 subtable" o.sc
AlternateSubs2: "'aalt' Access All Alternates lookup 1 subtable" ordmasculine o.sc
Position2: "'cpsp' Capital Spacing lookup 0 subtable" dx=5 dy=0 dh=10 dv=0
EndChar

StartChar: Q
Encoding: 81 81 85
Width: 674
GlyphClass: 2
Flags: MW
HStem: -8 14 -8 20<271.5 407.5> 670 21<272 418>
VStem: 78 23<233 446.5 233 451> 588 23<237.5 448.5>
LayerCount: 2
Fore
SplineSet
413 6 m 1xb8
 495 4 572 -11 630 -62 c 1xb8
 614 -81 l 1
 545 -23 471 -8 344 -8 c 0x78
 185 -8 78 115 78 339 c 0
 78 563 187 691 344 691 c 0
 505 691 611 569 611 340 c 0
 611 135 529 29 413 6 c 1xb8
101 339 m 0x78
 101 127 199 12 344 12 c 0
 498 12 588 127 588 340 c 0
 588 557 492 670 344 670 c 0
 200 670 101 554 101 339 c 0x78
EndSplineSet
Substitution2: "'c2sc' Capitals to Small Capitals lookup 23 subtable" q.sc
Substitution2: "'aalt' Access All Alternates lookup 0 subtable" q.sc
Position2: "'cpsp' Capital Spacing lookup 0 subtable" dx=5 dy=0 dh=10 dv=0
EndChar
StartChar: R
Encoding: 82 82 225
Width: 572
GlyphClass: 2
Flags: MW
HStem: 0 21G<123 146 123 123 499 528 499 499> 324 21<146 287 287 313 146 287> 660 21<146 269 146 146>
VStem: 123 23<0 324 345 660> 473 23<448.5 553>
AnchorPoint: "Anchor-14" 0 0 basechar 0
AnchorPoint: "Anchor-13" 0 0 basechar 0
AnchorPoint: "Anchor-12" 287 681 basechar 0
AnchorPoint: "Anchor-11" 0 0 basechar 0
AnchorPoint: "Anchor-10" 304 0 basechar 0
LayerCount: 2
Back
Fore
SplineSet
499 0 m 1
 313 324 l 1
 146 324 l 1
 146 0 l 1
 123 0 l 1
 123 681 l 1
 272 681 l 2
 431 681 496 616 496 504 c 0
 496 393 428 344 338 327 c 1
 528 0 l 1
 499 0 l 1
146 345 m 1
 287 345 l 2
 398 345 473 393 473 504 c 0
 473 602 420 660 269 660 c 2
 146 660 l 1
 146 345 l 1
EndSplineSet
Substitution2: "'c2sc' Capitals to Small Capitals lookup 26 subtable" r.sc
Substitution2: "'aalt' Access All Alternates lookup 0 subtable" r.sc
Position2: "'cpsp' Capital Spacing lookup 0 subtable" dx=5 dy=0 dh=10 dv=0
EndChar
StartChar: T
Encoding: 84 84 247
Width: 476
GlyphClass: 2
Flags: MW
HStem: 0 21G<226 249 226 226> 659 22<16 226 16 463 249 459 249 249>
VStem: 226 23<0 659 0 659>
AnchorPoint: "Anchor-14" 238 346 basechar 0
AnchorPoint: "Anchor-13" 0 0 basechar 0
AnchorPoint: "Anchor-12" 238 681 basechar 0
AnchorPoint: "Anchor-11" 0 0 basechar 0
AnchorPoint: "Anchor-10" 238 0 basechar 0
LayerCount: 2
Back
Fore
SplineSet
463 681 m 1
 459 659 l 1
 249 659 l 1
 249 0 l 1
 226 0 l 1
 226 659 l 1
 16 659 l 1
 16 681 l 1
 463 681 l 1
EndSplineSet
Substitution2: "'c2sc' Capitals to Small Capitals lookup 26 subtable" t.sc
Substitution2: "'aalt' Access All Alternates lookup 0 subtable" t.sc
Position2: "'cpsp' Capital Spacing lookup 0 subtable" dx=5 dy=0 dh=10 dv=0
EndChar

StartChar: V
Encoding: 86 86 112
Width: 534
GlyphClass: 2
Flags: MW
HStem: 0 21<267 267 267 281 253 267> 661 20G<28 52 52 52 482 506 506 506>
VStem: 28 478<681 681>
LayerCount: 2
Fore
SplineSet
281 0 m 1
 253 0 l 1
 28 681 l 1
 52 681 l 1
 267 21 l 1
 482 681 l 1
 506 681 l 1
 281 0 l 1
EndSplineSet
Substitution2: "'c2sc' Capitals to Small Capitals lookup 23 subtable" v.sc
Substitution2: "'aalt' Access All Alternates lookup 0 subtable" v.sc
Position2: "'cpsp' Capital Spacing lookup 0 subtable" dx=5 dy=0 dh=10 dv=0
EndChar

StartChar: X
Encoding: 88 88 118
Width: 483
GlyphClass: 2
Flags: MW
HStem: 0 21G<16 41 16 16 444 469 444 444> 661 20G<41 67 67 67 413 437 437 437>
VStem: 16 453<0 0>
LayerCount: 2
Fore
SplineSet
469 0 m 1
 444 0 l 1
 240 355 l 1
 41 0 l 1
 16 0 l 1
 227 369 l 1
 41 681 l 1
 67 681 l 1
 240 383 l 1
 413 681 l 1
 437 681 l 1
 254 370 l 1
 469 0 l 1
EndSplineSet
Substitution2: "'c2sc' Capitals to Small Capitals lookup 23 subtable" x.sc
Substitution2: "'aalt' Access All Alternates lookup 0 subtable" x.sc
Position2: "'cpsp' Capital Spacing lookup 0 subtable" dx=5 dy=0 dh=10 dv=0
EndChar

StartChar: Y
Encoding: 89 89 119
Width: 494
GlyphClass: 2
Flags: MW
HStem: 0 21G<237 260 237 237> 661 20G<21 47 47 47 447 473 473 473>
VStem: 237 23<0 270 270 270>
AnchorPoint: "Anchor-11" 0 0 basechar 0
AnchorPoint: "Anchor-10" 15 681 basechar 0
AnchorPoint: "Anchor-9" 244 681 basechar 0
AnchorPoint: "Anchor-8" 0 0 basechar 0
LayerCount: 2
Fore
SplineSet
260 271 m 1
 260 0 l 1
 237 0 l 1
 237 270 l 1
 21 681 l 1
 47 681 l 1
 249 290 l 1
 447 681 l 1
 473 681 l 1
 260 271 l 1
EndSplineSet
Substitution2: "'c2sc' Capitals to Small Capitals lookup 23 subtable" y.sc
Substitution2: "'aalt' Access All Alternates lookup 0 subtable" y.sc
Position2: "'cpsp' Capital Spacing lookup 0 subtable" dx=5 dy=0 dh=10 dv=0
EndChar

StartChar: Z
Encoding: 90 90 124
Width: 509
GlyphClass: 2
Flags: MW
HStem: 0 22<69 443> 660 21<79 432 79 459>
VStem: 41 418
AnchorPoint: "Anchor-11" 0 0 basechar 0
AnchorPoint: "Anchor-10" 0 0 basechar 0
AnchorPoint: "Anchor-9" 255 681 basechar 0
AnchorPoint: "Anchor-8" 0 0 basechar 0
LayerCount: 2
Fore
SplineSet
459 662 m 1
 69 22 l 1
 446 22 l 1
 443 0 l 1
 41 0 l 1
 41 21 l 1
 432 660 l 1
 79 660 l 1
 79 681 l 1
 459 681 l 1
 459 662 l 1
EndSplineSet
Substitution2: "'c2sc' Capitals to Small Capitals lookup 23 subtable" z.sc
Substitution2: "'aalt' Access All Alternates lookup 0 subtable" z.sc
Position2: "'cpsp' Capital Spacing lookup 0 subtable" dx=5 dy=0 dh=10 dv=0
EndChar

StartChar: bracketleft
Encoding: 91 91 1005
Width: 312
Flags: MW
HStem: -106 17<123 229 123 229> 779 17<123 229 123 123>
VStem: 103 20<-89 779 -89 796 -89 796>
LayerCount: 2
Fore
SplineSet
229 779 m 1
 123 779 l 1
 123 -89 l 1
 229 -89 l 1
 229 -106 l 1
 103 -106 l 1
 103 796 l 1
 229 796 l 1
 229 779 l 1
EndSplineSet
Substitution2: "'case' Case-Sensitive Forms lookup 25 subtable" bracketleft.case
Substitution2: "'aalt' Access All Alternates lookup 0 subtable" bracketleft.case
EndChar
StartChar: backslash
Encoding: 92 92 2113
Width: 520
Flags: MW
HStem: -95 893<154 366>
VStem: 134 252
LayerCount: 2
Back
Fore
SplineSet
154 798 m 1
 386 -90 l 1
 366 -95 l 1
 134 792 l 1
 154 798 l 1
EndSplineSet
EndChar

StartChar: bracketright
Encoding: 93 93 1006
Width: 312
Flags: MW
HStem: -106 17<83 189 83 209 83 189> 779 17<83 189 83 209>
VStem: 189 20<-89 779 779 779>
LayerCount: 2
Fore
SplineSet
209 -106 m 1
 83 -106 l 1
 83 -89 l 1
 189 -89 l 1
 189 779 l 1
 83 779 l 1
 83 796 l 1
 209 796 l 1
 209 -106 l 1
EndSplineSet
Substitution2: "'case' Case-Sensitive Forms lookup 25 subtable" bracketright.case
Substitution2: "'aalt' Access All Alternates lookup 0 subtable" bracketright.case
EndChar

StartChar: asciicircum
Encoding: 94 94 1228
Width: 524
Flags: MW
HStem: 796 27<261 261>
VStem: 76 370<527 527>
LayerCount: 2
Fore
SplineSet
446 527 m 1
 418 527 l 1
 261 796 l 1
 104 527 l 1
 76 527 l 1
 253 823 l 1
 269 823 l 1
 446 527 l 1
EndSplineSet
EndChar
StartChar: underscore
Encoding: 95 95 2136
Width: 520
Flags: MW
HStem: -100 21<42 478 42 478>
VStem: 42 436<-100 -79 -100 -79>
LayerCount: 2
Back
Fore
SplineSet
42 -100 m 1
 42 -79 l 1
 478 -79 l 1
 478 -100 l 1
 42 -100 l 1
EndSplineSet
EndChar

StartChar: grave
Encoding: 96 96 1257
Width: 246
Flags: MW
HStem: 718 20G<30 30>
VStem: 30 186<670 738>
LayerCount: 2
Fore
SplineSet
216 670 m 1
 208 654 l 1
 30 738 l 1
 40 761 l 1
 216 670 l 1
EndSplineSet
Substitution2: "'case' Case-Sensitive Forms lookup 25 subtable" grave.case
Substitution2: "'smcp' Lowercase to Small Capitals lookup 24 subtable" grave.sc
Substitution2: "'c2sc' Capitals to Small Capitals lookup 23 subtable" grave.sc
AlternateSubs2: "'aalt' Access All Alternates lookup 1 subtable" grave.sc grave.case
EndChar

StartChar: b
Encoding: 98 98 146
Width: 569
GlyphClass: 2
Flags: MW
HStem: -10 21<266 356 266 364.5> 0 21G<118 137 118 118> 509 20<270 360.5> 713 20G<118 118> 716 20G<140 140>
VStem: 118 20 469 22<183.5 344>
LayerCount: 2
Fore
SplineSet
308 529 m 0xae
 426 529 491 435 491 264 c 0
 491 94 426 -10 303 -10 c 0
 227 -10 173 31 139 81 c 1xae
 137 0 l 1
 118 0 l 1
 118 733 l 1x76
 140 736 l 1
 140 436 l 1
 179 490 232 529 308 529 c 0xae
302 11 m 0
 410 11 469 103 469 264 c 0
 469 424 413 509 308 509 c 0
 231 509 184 469 140 410 c 1
 140 106 l 1
 179 50 230 11 302 11 c 0
EndSplineSet
Substitution2: "'smcp' Lowercase to Small Capitals lookup 24 subtable" b.sc
Substitution2: "'aalt' Access All Alternates lookup 0 subtable" b.sc
EndChar

StartChar: d
Encoding: 100 100 153
Width: 574
GlyphClass: 2
Flags: MW
HStem: -10 21<218.5 311 218.5 312.5> 0 21G<437 456 437 437> 509 20<226 318.5> 713 20G<456 456> 716 20G<434 434>
VStem: 78 23<179.5 258 179.5 338> 434 22<89 89 123 418 418 418 446 733 0 736 0 736>
LayerCount: 2
Fore
SplineSet
456 733 m 1xb6
 456 0 l 1
 437 0 l 1x6e
 434 89 l 1
 404 36 356 -10 269 -10 c 0
 154 -10 78 89 78 258 c 0
 78 418 152 529 280 529 c 0
 361 529 407 487 434 446 c 1
 434 736 l 1xae
 456 733 l 1xb6
270 11 m 0xae
 352 11 399 54 434 123 c 1
 434 418 l 1
 404 465 357 509 280 509 c 0
 172 509 100 413 101 258 c 1
 101 101 167 11 270 11 c 0xae
EndSplineSet
Substitution2: "'smcp' Lowercase to Small Capitals lookup 24 subtable" d.sc
Substitution2: "'aalt' Access All Alternates lookup 0 subtable" d.sc
EndChar
StartChar: h
Encoding: 104 104 469
Width: 581
GlyphClass: 2
Flags: MW
HStem: 0 21G<118 140 118 118 447 469 447 447> 509 20<289 369.5> 713 20G<118 118> 716 20G<140 140>
VStem: 118 22<0 384 413 733 733 733> 447 22<0 367 367 369 0 413>
AnchorPoint: "Anchor-14" 295 260 basechar 0
AnchorPoint: "Anchor-13" 0 0 basechar 0
AnchorPoint: "Anchor-12" 295 732 basechar 0
AnchorPoint: "Anchor-11" 0 0 basechar 0
AnchorPoint: "Anchor-10" 294 0 basechar 0
LayerCount: 2
Back
Fore
SplineSet
330 529 m 0xdc
 424 529 469 469 469 369 c 2
 469 0 l 1
 447 0 l 1
 447 367 l 2
 447 459 409 509 330 509 c 0
 246 509 189 459 140 384 c 1
 140 0 l 1
 118 0 l 1
 118 733 l 1xec
 140 736 l 1
 140 413 l 1
 187 483 248 529 330 529 c 0xdc
EndSplineSet
Substitution2: "'smcp' Lowercase to Small Capitals lookup 27 subtable" h.sc
Substitution2: "'aalt' Access All Alternates lookup 0 subtable" h.sc
EndChar

StartChar: k
Encoding: 107 107 191
Width: 463
GlyphClass: 2
Flags: MW
HStem: 0 21G<118 140 118 118 418 418 418 445> 499 20G<392 420 420 420> 713 20G<118 118> 716 20G<140 140>
VStem: 118 22<0 733 733 733>
AnchorPoint: "Anchor-11" 268 0 basechar 0
AnchorPoint: "Anchor-10" 0 0 basechar 0
AnchorPoint: "Anchor-9" 0 0 basechar 0
AnchorPoint: "Anchor-8" 0 0 basechar 0
LayerCount: 2
Fore
SplineSet
140 0 m 1xd8
 118 0 l 1
 118 733 l 1xe8
 140 736 l 1
 140 0 l 1xd8
174 284 m 1
 445 0 l 1
 418 0 l 1
 146 284 l 1
 392 519 l 1
 420 519 l 1
 174 284 l 1
EndSplineSet
Substitution2: "'smcp' Lowercase to Small Capitals lookup 24 subtable" k.sc
Substitution2: "'aalt' Access All Alternates lookup 0 subtable" k.sc
EndChar
StartChar: l
Encoding: 108 108 512
Width: 276
GlyphClass: 2
Flags: MW
HStem: -10 21<169 193 169 194> 0 21G<232 232> 713 20G<113 113> 716 20G<135 135>
VStem: 113 22<72 73 73 733 733 733>
AnchorPoint: "Anchor-14" 260 375 basechar 0
AnchorPoint: "Anchor-13" 173 732 basechar 0
AnchorPoint: "Anchor-12" 124 733 basechar 0
AnchorPoint: "Anchor-11" 0 0 basechar 0
AnchorPoint: "Anchor-10" 178 0 basechar 0
LayerCount: 2
Back
Fore
SplineSet
185 -10 m 0x98
 142 -10 113 16 113 72 c 2
 113 733 l 1xa8
 135 736 l 1
 135 73 l 2
 135 32 152 11 186 11 c 0x98
 200 11 214 14 226 19 c 1x58
 232 0 l 1
 219 -5 203 -10 185 -10 c 0x98
EndSplineSet
Substitution2: "'smcp' Lowercase to Small Capitals lookup 27 subtable" l.sc
Substitution2: "'sups' Superscript lookup 14 subtable" uni02E1
AlternateSubs2: "'aalt' Access All Alternates lookup 1 subtable" uni02E1 l.sc
EndChar
StartChar: m
Encoding: 109 109 530
Width: 848
GlyphClass: 2
Flags: MW
HStem: 0 21G<118 140 118 118 415 437 415 415 713 735 713 713> 499 20G<118 137 137 137> 509 20<274 343.5 571 641>
VStem: 118 20 415 22<0 369 369 384 0 414> 713 22<0 367 367 369 0 413>
AnchorPoint: "Anchor-14" 0 0 basechar 0
AnchorPoint: "Anchor-13" 0 0 basechar 0
AnchorPoint: "Anchor-12" 424 519 basechar 0
AnchorPoint: "Anchor-11" 0 0 basechar 0
AnchorPoint: "Anchor-10" 424 0 basechar 0
LayerCount: 2
Back
Fore
SplineSet
606 529 m 0xbc
 690 529 735 469 735 369 c 2
 735 0 l 1
 713 0 l 1
 713 367 l 2
 713 459 676 509 606 509 c 0
 535 509 480 459 437 384 c 1
 437 0 l 1
 415 0 l 1
 415 369 l 2
 415 459 379 509 308 509 c 0xbc
 238 509 183 459 140 384 c 1
 140 0 l 1
 118 0 l 1
 118 519 l 1
 137 519 l 1xdc
 139 414 l 1
 181 483 239 529 309 529 c 0
 381 529 424 485 435 411 c 1
 477 482 536 529 606 529 c 0xbc
EndSplineSet
Substitution2: "'smcp' Lowercase to Small Capitals lookup 27 subtable" m.sc
Substitution2: "'aalt' Access All Alternates lookup 0 subtable" m.sc
EndChar
StartChar: n
Encoding: 110 110 536
Width: 581
GlyphClass: 2
Flags: MW
HStem: 0 21G<118 140 118 118 447 469 447 447> 499 20G<118 137 137 137> 509 20<288.5 369.5>
VStem: 118 20 447 22<0 367 367 369 0 414>
AnchorPoint: "Anchor-14" 0 0 basechar 0
AnchorPoint: "Anchor-13" 0 0 basechar 0
AnchorPoint: "Anchor-12" 296 519 basechar 0
AnchorPoint: "Anchor-11" 0 0 basechar 0
AnchorPoint: "Anchor-10" 288 0 basechar 0
LayerCount: 2
Back
Fore
SplineSet
330 529 m 0xb8
 425 529 469 471 469 369 c 2
 469 0 l 1
 447 0 l 1
 447 367 l 2
 447 461 409 509 330 509 c 0xb8
 246 509 189 459 140 384 c 1
 140 0 l 1
 118 0 l 1
 118 519 l 1
 137 519 l 1xd8
 139 413 l 1
 186 483 247 529 330 529 c 0xb8
EndSplineSet
Substitution2: "'smcp' Lowercase to Small Capitals lookup 27 subtable" n.sc
Substitution2: "'aalt' Access All Alternates lookup 0 subtable" n.sc
EndChar
StartChar: r
Encoding: 114 114 607
Width: 362
GlyphClass: 2
Flags: MW
HStem: 0 21G<118 140 118 118> 499 20G<118 137 137 137> 503 20G<345 345> 509 20<254.5 303>
VStem: 118 19.5
AnchorPoint: "Anchor-14" 0 0 basechar 0
AnchorPoint: "Anchor-13" 0 0 basechar 0
AnchorPoint: "Anchor-12" 229 519 basechar 0
AnchorPoint: "Anchor-11" 0 0 basechar 0
AnchorPoint: "Anchor-10" 128 0 basechar 0
LayerCount: 2
Back
Fore
SplineSet
294 529 m 0x98
 317 529 333 526 345 523 c 1xa8
 340 504 l 1
 327 507 312 509 294 509 c 0x98
 215 509 173 456 140 343 c 1
 140 0 l 1
 118 0 l 1
 118 519 l 1
 137 519 l 1xc8
 138 389 l 1
 167 485 214 529 294 529 c 0x98
EndSplineSet
Substitution2: "'smcp' Lowercase to Small Capitals lookup 27 subtable" r.sc
Substitution2: "'aalt' Access All Alternates lookup 0 subtable" r.sc
EndChar

StartChar: v
Encoding: 118 118 250
Width: 447
GlyphClass: 2
Flags: MW
HStem: 0 19<228 228 228 243 214 228> 499 20G<23 48 48 48 400 424 424 424>
VStem: 23 401<519 519>
LayerCount: 2
Fore
SplineSet
243 0 m 1
 214 0 l 1
 23 519 l 1
 48 519 l 1
 228 19 l 1
 400 519 l 1
 424 519 l 1
 243 0 l 1
EndSplineSet
Substitution2: "'smcp' Lowercase to Small Capitals lookup 24 subtable" v.sc
Substitution2: "'aalt' Access All Alternates lookup 0 subtable" v.sc
EndChar

StartChar: w
Encoding: 119 119 251
Width: 680
GlyphClass: 2
Flags: MW
HStem: 0 21<186 186 186 200 171 186> 497 22<341 341>
VStem: 33 614<519 519>
AnchorPoint: "Anchor-11" 0 0 basechar 0
AnchorPoint: "Anchor-10" 0 0 basechar 0
AnchorPoint: "Anchor-9" 340 519 basechar 0
AnchorPoint: "Anchor-8" 0 0 basechar 0
LayerCount: 2
Fore
SplineSet
511 0 m 1
 482 0 l 1
 341 497 l 1
 200 0 l 1
 171 0 l 1
 33 519 l 1
 57 519 l 1
 186 21 l 1
 328 519 l 1
 355 519 l 1
 496 21 l 1
 624 519 l 1
 647 519 l 1
 511 0 l 1
EndSplineSet
Substitution2: "'smcp' Lowercase to Small Capitals lookup 24 subtable" w.sc
Substitution2: "'aalt' Access All Alternates lookup 0 subtable" w.sc
EndChar
StartChar: x
Encoding: 120 120 702
Width: 433
GlyphClass: 2
Flags: MW
HStem: 0 21G<18 43 18 18 389 415 389 389> 499 20G<43 69 69 69 364 390 390 390>
VStem: 18 397<0 0>
AnchorPoint: "Anchor-14" 0 0 basechar 0
AnchorPoint: "Anchor-13" 0 0 basechar 0
AnchorPoint: "Anchor-12" 217 519 basechar 0
AnchorPoint: "Anchor-11" 0 0 basechar 0
AnchorPoint: "Anchor-10" 216 0 basechar 0
LayerCount: 2
Back
Fore
SplineSet
229 279 m 1
 415 0 l 1
 389 0 l 1
 215 265 l 1
 43 0 l 1
 18 0 l 1
 202 278 l 1
 43 519 l 1
 69 519 l 1
 216 292 l 1
 364 519 l 1
 390 519 l 1
 229 279 l 1
EndSplineSet
Substitution2: "'smcp' Lowercase to Small Capitals lookup 27 subtable" x.sc
Substitution2: "'sups' Superscript lookup 14 subtable" uni02E3
AlternateSubs2: "'aalt' Access All Alternates lookup 1 subtable" uni02E3 x.sc
EndChar
StartChar: y
Encoding: 121 121 703
Width: 444
GlyphClass: 2
Flags: MW
HStem: -195 21G<59 59> 0 16<210 225 210 225> 0 21G<210 219 210 210> 499 20G<23 47 47 47 396 421 421 421>
VStem: 23 398<519 519>
AnchorPoint: "Anchor-14" 0 0 basechar 0
AnchorPoint: "Anchor-13" 0 0 basechar 0
AnchorPoint: "Anchor-12" 222 519 basechar 0
AnchorPoint: "Anchor-11" 0 0 basechar 0
AnchorPoint: "Anchor-10" 226 -192 basechar 0
LayerCount: 2
Back
Fore
SplineSet
421 519 m 1xb8
 240 -1 l 2
 200 -116 169 -163 59 -195 c 1
 56 -177 l 1
 159 -146 181 -103 219 0 c 1
 210 0 l 1
 23 519 l 1
 47 519 l 1
 225 16 l 1xd8
 396 519 l 1
 421 519 l 1xb8
EndSplineSet
Substitution2: "'smcp' Lowercase to Small Capitals lookup 27 subtable" y.sc
Substitution2: "'aalt' Access All Alternates lookup 0 subtable" y.sc
EndChar

StartChar: z
Encoding: 122 122 262
Width: 410
GlyphClass: 2
Flags: MW
HStem: 0 21<59 364> 499 20<58 346 58 374>
VStem: 31 343
AnchorPoint: "Anchor-11" 0 0 basechar 0
AnchorPoint: "Anchor-10" 0 0 basechar 0
AnchorPoint: "Anchor-9" 214 519 basechar 0
AnchorPoint: "Anchor-8" 0 0 basechar 0
LayerCount: 2
Fore
SplineSet
374 501 m 1
 59 21 l 1
 366 21 l 1
 364 0 l 1
 31 0 l 1
 31 18 l 1
 346 499 l 1
 58 499 l 1
 58 519 l 1
 374 519 l 1
 374 501 l 1
EndSplineSet
Substitution2: "'smcp' Lowercase to Small Capitals lookup 24 subtable" z.sc
Substitution2: "'aalt' Access All Alternates lookup 0 subtable" z.sc
EndChar

StartChar: braceleft
Encoding: 123 123 1003
Width: 328
Flags: MW
HStem: -120 17<215.5 244 215.5 244> 339 20<64 87.5> 801 17<215.5 244>
VStem: 144 20<-17 -14 -14 257 432 441 441 712>
LayerCount: 2
Fore
SplineSet
244 801 m 1
 187 801 164 773 164 712 c 2
 164 441 l 2
 164 379 139 356 88 349 c 1
 139 342 164 319 164 257 c 2
 164 -14 l 2
 164 -75 187 -103 244 -103 c 1
 244 -120 l 1
 183 -120 144 -90 144 -17 c 2
 144 266 l 2
 144 319 111 339 64 339 c 1
 64 359 l 1
 111 359 144 379 144 432 c 2
 144 715 l 2
 144 788 183 818 244 818 c 1
 244 801 l 1
EndSplineSet
Substitution2: "'case' Case-Sensitive Forms lookup 25 subtable" braceleft.case
Substitution2: "'aalt' Access All Alternates lookup 0 subtable" braceleft.case
EndChar
StartChar: bar
Encoding: 124 124 2370
Width: 413
GlyphClass: 2
Flags: MW
HStem: -98 899<195 217 195 217>
VStem: 195 22<-98 801 -98 801>
LayerCount: 2
Back
Fore
SplineSet
217 801 m 1
 217 -98 l 1
 195 -98 l 1
 195 801 l 1
 217 801 l 1
EndSplineSet
EndChar
StartChar: braceright
Encoding: 125 125 2141
Width: 328
Flags: MW
HStem: -120 17<84 112.5 84 114.5> 339 20<240.5 264> 801 17<84 112.5>
VStem: 164 20<-14 257 257 266 441 712 712 715>
LayerCount: 2
Back
Fore
SplineSet
84 818 m 1
 145 818 184 788 184 715 c 2
 184 432 l 2
 184 379 217 359 264 359 c 1
 264 339 l 1
 217 339 184 319 184 266 c 2
 184 -17 l 2
 184 -90 145 -120 84 -120 c 1
 84 -103 l 1
 141 -103 164 -75 164 -14 c 2
 164 257 l 2
 164 319 190 342 240 349 c 1
 190 356 164 379 164 441 c 2
 164 712 l 2
 164 773 141 801 84 801 c 1
 84 818 l 1
EndSplineSet
Substitution2: "'case' Case-Sensitive Forms lookup 28 subtable" braceright.case
Substitution2: "'aalt' Access All Alternates lookup 0 subtable" braceright.case
EndChar

StartChar: asciitilde
Encoding: 126 126 1087
Width: 457
Flags: MW
HStem: 280 21<281 321.5 281 324> 335 21<138 178.5>
VStem: 71 315<302 335>
LayerCount: 2
Fore
SplineSet
155 356 m 0
 210 356 257 301 305 301 c 0
 338 301 354 319 372 343 c 1
 386 335 l 1
 364 302 343 280 305 280 c 0
 253 280 202 335 155 335 c 0
 121 335 104 317 85 293 c 1
 71 302 l 1
 94 334 115 356 155 356 c 0
EndSplineSet
Substitution2: "'onum' Oldstyle Figures lookup 22 subtable" asciitilde.osf
Substitution2: "'tnum' Tabular Numbers lookup 21 subtable" asciitilde.tf
AlternateSubs2: "'aalt' Access All Alternates lookup 1 subtable" asciitilde.tf asciitilde.osf
EndChar

StartChar: exclamdown
Encoding: 161 161 986
Width: 238
Flags: MW
HStem: -192 21G<109 130 109 109> 406 47<111.5 126>
VStem: 96 47<423.5 436> 109 21<-192 252>
LayerCount: 2
Fore
SplineSet
119 453 m 0xe0
 133 453 143 442 143 430 c 0
 143 417 133 406 119 406 c 0
 104 406 96 417 96 430 c 0
 96 442 104 453 119 453 c 0xe0
130 -192 m 1xd0
 109 -192 l 1
 109 252 l 1
 130 252 l 1
 130 -192 l 1xd0
EndSplineSet
Substitution2: "'case' Case-Sensitive Forms lookup 25 subtable" exclamdown.case
Substitution2: "'aalt' Access All Alternates lookup 0 subtable" exclamdown.case
EndChar
StartChar: cent
Encoding: 162 162 2198
Width: 464
GlyphClass: 2
Flags: MW
HStem: -10 21<291 291> -9 20<271 271> 509 20<273 273 273 292 273 309.5>
VStem: 73 23<176 338.5 176 339> 273 19<529 676 529 676>
LayerCount: 2
Back
Fore
SplineSet
423 44 m 1xb8
 389 13 346 -8 291 -10 c 1xb8
 291 -146 l 1
 271 -146 l 1
 271 -9 l 1x78
 153 -3 73 93 73 257 c 0
 73 421 152 523 273 529 c 1
 273 676 l 1
 292 676 l 1
 292 529 l 1
 343 527 381 512 418 479 c 1
 405 464 l 1
 372 493 335 509 284 509 c 0
 174 509 96 420 96 257 c 0
 96 95 175 11 283 11 c 0
 337 11 377 30 410 59 c 1
 423 44 l 1xb8
EndSplineSet
Substitution2: "'onum' Oldstyle Figures lookup 25 subtable" cent.osf
Substitution2: "'tnum' Tabular Numbers lookup 24 subtable" cent.tf
AlternateSubs2: "'aalt' Access All Alternates lookup 1 subtable" cent.tf cent.osf
EndChar

StartChar: brokenbar
Encoding: 166 166 1217
Width: 413
Flags: MW
HStem: -98 899<195 217 195 217>
VStem: 195 22<-98 262 443 801>
LayerCount: 2
Fore
SplineSet
217 443 m 1
 195 443 l 1
 195 801 l 1
 217 801 l 1
 217 443 l 1
217 -98 m 1
 195 -98 l 1
 195 262 l 1
 217 262 l 1
 217 -98 l 1
EndSplineSet
EndChar

StartChar: dieresis
Encoding: 168 168 1255
Width: 266
Flags: MW
HStem: 673 39<44 56 209.5 222> 692 20<44 56 209.5 222>
VStem: 195 40<686.5 697.5>
AnchorPoint: "Anchor-12" 133 621 basemark 0
LayerCount: 2
Fore
SplineSet
50 712 m 0xa0
 62 712 70 703 70 692 c 0
 70 681 62 673 50 673 c 0
 38 673 30 681 30 692 c 0
 30 703 38 712 50 712 c 0xa0
216 712 m 0x60
 228 712 235 703 235 692 c 0
 235 681 228 673 216 673 c 0
 203 673 195 681 195 692 c 0
 195 703 203 712 216 712 c 0x60
EndSplineSet
Substitution2: "'case' Case-Sensitive Forms lookup 25 subtable" dieresis.case
Substitution2: "'smcp' Lowercase to Small Capitals lookup 24 subtable" dieresis.sc
Substitution2: "'c2sc' Capitals to Small Capitals lookup 23 subtable" dieresis.sc
AlternateSubs2: "'aalt' Access All Alternates lookup 1 subtable" dieresis.sc dieresis.case
EndChar
StartChar: ordfeminine
Encoding: 170 170 1050
Width: 500
GlyphClass: 2
Flags: MW
HStem: 0 21<91 421 91 421> 277 20<187 248.5> 496 21<256 260 260 349> 661 20<226 284>
VStem: 92 24<362.5 427.5 362.5 433> 349 22<376 496 496 496 517 561 561 563>
LayerCount: 2
Back
Fore
SplineSet
218 277 m 0
 139 277 92 323 92 393 c 0
 92 473 158 517 256 517 c 2
 349 517 l 1
 349 561 l 2
 349 627 324 661 244 661 c 0
 208 661 171 652 131 637 c 1
 124 656 l 1
 166 672 203 681 244 681 c 0
 334 681 371 641 371 563 c 2
 371 367 l 2
 371 316 382 301 407 292 c 1
 402 277 l 1
 369 286 353 305 352 349 c 1
 322 302 279 277 218 277 c 0
260 496 m 2
 171 496 116 462 116 393 c 0
 116 332 156 297 218 297 c 0
 281 297 321 327 349 376 c 1
 349 496 l 1
 260 496 l 2
91 21 m 1
 421 21 l 1
 421 0 l 1
 91 0 l 1
 91 21 l 1
EndSplineSet
EndChar

StartChar: guillemotleft
Encoding: 171 171 1034
Width: 533
Flags: MW
HStem: 74 429<290 290 290 380>
VStem: 139 25<288 288 288 295 288 295> 229 25<288 288 288 295 288 295>
LayerCount: 2
Fore
SplineSet
304 494 m 1
 164 288 l 1
 305 83 l 1
 290 74 l 1
 139 281 l 1
 139 295 l 1
 290 503 l 1
 304 494 l 1
394 494 m 1
 254 288 l 1
 395 83 l 1
 380 74 l 1
 229 281 l 1
 229 295 l 1
 379 503 l 1
 394 494 l 1
EndSplineSet
Substitution2: "'case' Case-Sensitive Forms lookup 25 subtable" guillemotleft.case
Substitution2: "'aalt' Access All Alternates lookup 0 subtable" guillemotleft.case
EndChar

StartChar: logicalnot
Encoding: 172 172 1103
Width: 495
Flags: MW
HStem: 309 22<78 394 78 417>
VStem: 394 23<198 309 309 309>
LayerCount: 2
Fore
SplineSet
417 198 m 1
 394 198 l 1
 394 309 l 1
 78 309 l 1
 78 331 l 1
 417 331 l 1
 417 198 l 1
EndSplineSet
Substitution2: "'onum' Oldstyle Figures lookup 22 subtable" logicalnot.osf
Substitution2: "'tnum' Tabular Numbers lookup 21 subtable" logicalnot.tf
AlternateSubs2: "'aalt' Access All Alternates lookup 1 subtable" logicalnot.tf logicalnot.osf
EndChar

StartChar: softhyphen
Encoding: 173 173 1026
Width: 399
Flags: MW
HStem: 302 21<78 321 78 321>
VStem: 78 243<302 323 302 323>
LayerCount: 2
Fore
SplineSet
78 323 m 1
 321 323 l 1
 321 302 l 1
 78 302 l 1
 78 323 l 1
EndSplineSet
Substitution2: "'case' Case-Sensitive Forms lookup 25 subtable" softhyphen.case
Substitution2: "'aalt' Access All Alternates lookup 0 subtable" softhyphen.case
EndChar
StartChar: uni00AD
Encoding: 173 173 2168
Width: 399
Flags: MW
HStem: 302 21<78 321 78 321>
VStem: 78 243<302 323 302 323>
LayerCount: 2
Back
Fore
SplineSet
78 302 m 1
 78 323 l 1
 321 323 l 1
 321 302 l 1
 78 302 l 1
EndSplineSet
Substitution2: "'case' Case-Sensitive Forms lookup 28 subtable" uni00AD.case
Substitution2: "'aalt' Access All Alternates lookup 0 subtable" uni00AD.case
EndChar
StartChar: macron
Encoding: 175 175 2535
Width: 267
Flags: MW
HStem: 685 21<30 237 30 237>
VStem: 30 207<685 706 685 706>
LayerCount: 2
Back
Fore
SplineSet
237 685 m 1
 30 685 l 1
 30 706 l 1
 237 706 l 1
 237 685 l 1
EndSplineSet
Substitution2: "Single Substitution lookup 41 subtable" macron.case
Substitution2: "'case' Case-Sensitive Forms lookup 28 subtable" macron.case
Substitution2: "'smcp' Lowercase to Small Capitals lookup 27 subtable" macron.sc
Substitution2: "'c2sc' Capitals to Small Capitals lookup 26 subtable" macron.sc
AlternateSubs2: "'aalt' Access All Alternates lookup 1 subtable" macron.sc macron.case
EndChar

StartChar: degree
Encoding: 176 176 1225
Width: 520
Flags: MW
HStem: 411 21<187 254.5 187 258.5> 671 20<187 254.5>
VStem: 84 23<517 586.5 517 593.5> 333 22<516.5 586>
LayerCount: 2
Fore
SplineSet
219 411 m 0
 148 411 84 465 84 552 c 0
 84 635 147 691 219 691 c 0
 298 691 355 636 355 551 c 0
 355 467 298 411 219 411 c 0
219 432 m 0
 290 432 333 482 333 551 c 0
 333 621 290 671 219 671 c 0
 155 671 107 621 107 552 c 0
 107 482 155 432 219 432 c 0
EndSplineSet
Substitution2: "'onum' Oldstyle Figures lookup 22 subtable" degree.osf
Substitution2: "'tnum' Tabular Numbers lookup 21 subtable" degree.tf
AlternateSubs2: "'aalt' Access All Alternates lookup 1 subtable" degree.tf degree.osf
EndChar

StartChar: plusminus
Encoding: 177 177 1115
Width: 485
Flags: MW
HStem: 0 21<78 407 78 407> 320 21<78 232 78 232 255 408>
VStem: 232 23<165 320 165 320 341 496>
LayerCount: 2
Fore
SplineSet
255 341 m 1
 408 341 l 1
 408 320 l 1
 255 320 l 1
 255 165 l 1
 232 165 l 1
 232 320 l 1
 78 320 l 1
 78 341 l 1
 232 341 l 1
 232 496 l 1
 255 496 l 1
 255 341 l 1
78 21 m 1
 407 21 l 1
 407 0 l 1
 78 0 l 1
 78 21 l 1
EndSplineSet
Substitution2: "'onum' Oldstyle Figures lookup 22 subtable" plusminus.osf
Substitution2: "'tnum' Tabular Numbers lookup 21 subtable" plusminus.tf
AlternateSubs2: "'aalt' Access All Alternates lookup 1 subtable" plusminus.tf plusminus.osf
EndChar

StartChar: acute
Encoding: 180 180 1250
Width: 247
Flags: MW
HStem: 654 107
VStem: 30 186<670 738>
LayerCount: 2
Fore
SplineSet
216 738 m 1
 38 654 l 1
 30 670 l 1
 206 761 l 1
 216 738 l 1
EndSplineSet
Substitution2: "'case' Case-Sensitive Forms lookup 25 subtable" acute.case
Substitution2: "'smcp' Lowercase to Small Capitals lookup 24 subtable" acute.sc
Substitution2: "'c2sc' Capitals to Small Capitals lookup 23 subtable" acute.sc
Substitution2: "'locl' Localized Forms in Latin lookup 7 subtable" acute.loclPLK
AlternateSubs2: "'aalt' Access All Alternates lookup 1 subtable" acute.loclPLK acute.sc acute.case
EndChar

StartChar: uni00B5
Encoding: 181 181 1104
Width: 582
Flags: MW
HStem: -192 21G<140 140> -10 21<228 297.5 228 301.5> -3 21G<485 485> 499 20G<118 140 140 140 434 456 456 456>
VStem: 118 22<-192 -64 93.5 142 142 519> 434 22<152 170 170 519>
LayerCount: 2
Fore
SplineSet
465 -5 m 1xbc
 449 38 441 69 438 123 c 1
 400 49 345 -10 258 -10 c 0
 193 -10 149 21 136 77 c 1
 139 21 140 -16 140 -64 c 2
 140 -192 l 1
 118 -194 l 1
 118 519 l 1
 140 519 l 1
 140 142 l 2
 140 45 198 11 258 11 c 0xdc
 337 11 394 68 434 152 c 1
 434 519 l 1
 456 519 l 1
 456 170 l 2
 456 97 467 47 485 -3 c 1
 465 -5 l 1xbc
EndSplineSet
EndChar

StartChar: paragraph
Encoding: 182 182 1220
Width: 686
Flags: MW
HStem: -196 21G<331 331 495 495> -192 21G<353 353 517 517> 661 20
VStem: 331 22<-192 306 306 306> 495 22<-192 661 661 661>
LayerCount: 2
Fore
SplineSet
517 682 m 1x78
 517 -192 l 1x78
 495 -196 l 1xb8
 495 661 l 1
 353 661 l 1
 353 -192 l 1x78
 331 -196 l 1xb8
 331 306 l 1
 170 309 116 395 116 494 c 0
 116 613 197 681 333 681 c 2
 517 682 l 1x78
EndSplineSet
EndChar

StartChar: cedilla
Encoding: 184 184 1253
Width: 212
Flags: MW
HStem: -212 20<85 114 85 120> -194 21G<30 30> -90 16
VStem: 73 18.5 159 23<-158 -123.5>
LayerCount: 2
Fore
SplineSet
91 -74 m 1x78
 151 -77 182 -99 182 -140 c 0
 182 -187 142 -212 98 -212 c 0
 67 -212 47 -204 30 -194 c 1
 40 -177 l 1
 54 -186 72 -192 98 -192 c 0xb8
 130 -192 159 -176 159 -140 c 0
 159 -107 132 -91 70 -90 c 1
 76 9 l 1
 92 9 l 1
 91 -74 l 1x78
EndSplineSet
Substitution2: "'case' Case-Sensitive Forms lookup 25 subtable" cedilla.case
Substitution2: "'smcp' Lowercase to Small Capitals lookup 24 subtable" cedilla.sc
Substitution2: "'c2sc' Capitals to Small Capitals lookup 23 subtable" cedilla.sc
AlternateSubs2: "'aalt' Access All Alternates lookup 1 subtable" cedilla.sc cedilla.case
EndChar

StartChar: onesuperior
Encoding: 185 185 969
Width: 400
Flags: MW
HStem: 707 25<228 250> 712 20G<233 250 250 250>
VStem: 228 22<322 707 707 707>
LayerCount: 2
Fore
SplineSet
250 322 m 1x60
 228 322 l 1
 228 707 l 1
 118 642 l 1
 107 658 l 1xa0
 233 732 l 1
 250 732 l 1
 250 322 l 1x60
EndSplineSet
EndChar
StartChar: uni00B9
Encoding: 185 185 2103
Width: 400
Flags: MW
HStem: 707 25<228 250> 712 20G<233 250 250 250>
VStem: 228 22<322 707 707 707>
LayerCount: 2
Back
Fore
SplineSet
250 732 m 1x60
 250 322 l 1
 228 322 l 1
 228 707 l 1
 118 642 l 1
 107 658 l 1xa0
 233 732 l 1
 250 732 l 1x60
EndSplineSet
EndChar
StartChar: questiondown
Encoding: 191 191 2128
Width: 441
Flags: MW
HStem: -197 21<170 243 170 245.5> 410 39<242.5 255>
VStem: 56 23<-99 -1 -99 4.5> 239 22<206 252>
LayerCount: 2
Back
Fore
SplineSet
249 410 m 0
 236 410 229 419 229 430 c 0
 229 440 236 449 249 449 c 0
 261 449 268 440 268 430 c 0
 268 419 261 410 249 410 c 0
209 -197 m 0
 115 -197 56 -136 56 -69 c 0
 56 78 239 63 239 206 c 2
 239 252 l 1
 261 252 l 1
 261 204 l 2
 261 50 79 67 79 -69 c 0
 79 -129 131 -176 209 -176 c 0
 277 -176 322 -152 369 -99 c 1
 385 -112 l 1
 335 -169 282 -197 209 -197 c 0
EndSplineSet
Substitution2: "'case' Case-Sensitive Forms lookup 28 subtable" questiondown.case
Substitution2: "'aalt' Access All Alternates lookup 0 subtable" questiondown.case
EndChar
StartChar: Aacute
Encoding: 193 193 3
Width: 557
GlyphClass: 2
Flags: MW
HStem: 0 21G<28 51 28 28 505 530 505 505> 203 21<128 429 128 436 120 429> 663 18<278 278>
VStem: 28 502<0 0>
AnchorPoint: "Anchor-14" 0 0 basechar 0
AnchorPoint: "Anchor-13" 0 0 basechar 0
AnchorPoint: "Anchor-12" 280 861 basechar 0
AnchorPoint: "Anchor-11" 540 0 basechar 0
AnchorPoint: "Anchor-10" 279 0 basechar 0
LayerCount: 2
Back
Fore
SplineSet
371 838 m 1
 192 764 l 1
 185 779 l 1
 359 861 l 1
 371 838 l 1
505 0 m 1
 436 203 l 1
 120 203 l 1
 51 0 l 1
 28 0 l 1
 265 681 l 1
 292 681 l 1
 530 0 l 1
 505 0 l 1
128 224 m 1
 429 224 l 1
 278 663 l 1
 128 224 l 1
EndSplineSet
Substitution2: "'c2sc' Capitals to Small Capitals lookup 26 subtable" aacute.sc
Substitution2: "'aalt' Access All Alternates lookup 0 subtable" aacute.sc
Position2: "'cpsp' Capital Spacing lookup 0 subtable" dx=5 dy=0 dh=10 dv=0
EndChar
StartChar: Acircumflex
Encoding: 194 194 11
Width: 557
GlyphClass: 2
Flags: MW
HStem: 0 21G<28 51 28 28 505 530 505 505> 203 21<128 429 128 436 120 429> 663 18<278 278> 845 24<279 279>
VStem: 28 502<0 0>
AnchorPoint: "Anchor-14" 0 0 basechar 0
AnchorPoint: "Anchor-13" 359 721 basechar 0
AnchorPoint: "Anchor-12" 278 869 basechar 0
AnchorPoint: "Anchor-11" 540 0 basechar 0
AnchorPoint: "Anchor-10" 279 0 basechar 0
LayerCount: 2
Back
Fore
SplineSet
279 845 m 1
 164 766 l 1
 153 780 l 1
 273 869 l 1
 285 869 l 1
 405 780 l 1
 393 766 l 1
 279 845 l 1
505 0 m 1
 436 203 l 1
 120 203 l 1
 51 0 l 1
 28 0 l 1
 265 681 l 1
 292 681 l 1
 530 0 l 1
 505 0 l 1
128 224 m 1
 429 224 l 1
 278 663 l 1
 128 224 l 1
EndSplineSet
Substitution2: "'c2sc' Capitals to Small Capitals lookup 26 subtable" acircumflex.sc
Substitution2: "'aalt' Access All Alternates lookup 0 subtable" acircumflex.sc
Position2: "'cpsp' Capital Spacing lookup 0 subtable" dx=5 dy=0 dh=10 dv=0
EndChar

StartChar: Atilde
Encoding: 195 195 10
Width: 557
GlyphClass: 2
Flags: MW
HStem: 0 21G<28 51 28 28 505 505 505 530> 203 21<128 428 128 435 121 428> 663 18<278 278> 805 18<317 349 317 352.5> 848 19<206 238>
VStem: 28 502<0 0>
AnchorPoint: "Anchor-11" 0 0 basechar 0
AnchorPoint: "Anchor-10" 161 681 basechar 0
AnchorPoint: "Anchor-9" 279 681 basechar 0
AnchorPoint: "Anchor-8" 540 0 basechar 0
LayerCount: 2
Fore
SplineSet
221 848 m 0
 191 848 180 838 160 813 c 1
 147 820 l 1
 168 850 189 867 221 867 c 0xfc
 258 867 296 823 338 823 c 0
 360 823 375 834 397 865 c 1
 410 857 l 1
 388 819 365 805 340 805 c 0xf4
 288 805 255 848 221 848 c 0
435 203 m 1xf4
 121 203 l 1
 51 0 l 1
 28 0 l 1
 265 681 l 1
 292 681 l 1
 530 0 l 1
 505 0 l 1
 435 203 l 1xf4
428 224 m 1
 278 663 l 1
 128 224 l 1
 428 224 l 1
EndSplineSet
Substitution2: "'c2sc' Capitals to Small Capitals lookup 23 subtable" atilde.sc
Substitution2: "'aalt' Access All Alternates lookup 0 subtable" atilde.sc
Position2: "'cpsp' Capital Spacing lookup 0 subtable" dx=5 dy=0 dh=10 dv=0
EndChar
StartChar: Adieresis
Encoding: 196 196 18
Width: 557
GlyphClass: 2
Flags: MW
HStem: 0 21G<28 51 28 28 505 530 505 505> 203 21<128 429 128 436 120 429> 663 18<278 278> 799 39<190 202 355.5 368>
VStem: 341 21<812.5 823.5>
AnchorPoint: "Anchor-14" 0 0 basechar 0
AnchorPoint: "Anchor-13" 0 0 basechar 0
AnchorPoint: "Anchor-12" 281 838 basechar 0
AnchorPoint: "Anchor-11" 540 0 basechar 0
AnchorPoint: "Anchor-10" 279 0 basechar 0
LayerCount: 2
Back
Fore
SplineSet
196 799 m 0
 184 799 176 807 176 818 c 0
 176 829 184 838 196 838 c 0
 208 838 216 829 216 818 c 0
 216 807 208 799 196 799 c 0
362 799 m 0
 349 799 341 807 341 818 c 0
 341 829 349 838 362 838 c 0
 374 838 381 829 381 818 c 0
 381 807 374 799 362 799 c 0
505 0 m 1
 436 203 l 1
 120 203 l 1
 51 0 l 1
 28 0 l 1
 265 681 l 1
 292 681 l 1
 530 0 l 1
 505 0 l 1
128 224 m 1
 429 224 l 1
 278 663 l 1
 128 224 l 1
EndSplineSet
Substitution2: "'c2sc' Capitals to Small Capitals lookup 26 subtable" adieresis.sc
Substitution2: "'aalt' Access All Alternates lookup 0 subtable" adieresis.sc
Position2: "'cpsp' Capital Spacing lookup 0 subtable" dx=5 dy=0 dh=10 dv=0
EndChar

StartChar: Aring
Encoding: 197 197 9
Width: 557
GlyphClass: 2
Flags: MW
HStem: 0 21G<28 51 28 28 505 505 505 530> 203 21<128 428 128 435 121 428> 663 18<278 278> 770 18<260.5 298 260.5 303> 909 18<260.5 298>
VStem: 200 21<829.5 867 829.5 872> 338 21<830 867.5>
AnchorPoint: "Anchor-11" 0 0 basechar 0
AnchorPoint: "Anchor-10" 161 681 basechar 0
AnchorPoint: "Anchor-9" 279 681 basechar 0
AnchorPoint: "Anchor-8" 540 0 basechar 0
LayerCount: 2
Fore
SplineSet
279 770 m 0
 231 770 200 801 200 848 c 0
 200 896 232 927 279 927 c 0
 328 927 359 896 359 849 c 0
 359 801 327 770 279 770 c 0
279 909 m 0
 242 909 221 886 221 848 c 0
 221 811 242 788 279 788 c 0
 317 788 338 811 338 849 c 0
 338 886 317 909 279 909 c 0
435 203 m 1
 121 203 l 1
 51 0 l 1
 28 0 l 1
 265 681 l 1
 292 681 l 1
 530 0 l 1
 505 0 l 1
 435 203 l 1
428 224 m 1
 278 663 l 1
 128 224 l 1
 428 224 l 1
EndSplineSet
Substitution2: "'c2sc' Capitals to Small Capitals lookup 23 subtable" aring.sc
Substitution2: "'aalt' Access All Alternates lookup 0 subtable" aring.sc
Position2: "'cpsp' Capital Spacing lookup 0 subtable" dx=5 dy=0 dh=10 dv=0
EndChar
StartChar: Egrave
Encoding: 200 200 82
Width: 494
GlyphClass: 2
Flags: MW
HStem: 0 21<146 451 146 451> 349 21<146 400 146 400> 660 21<146 441 146 146>
VStem: 123 23<21 349 370 660>
AnchorPoint: "Anchor-14" 0 0 basechar 0
AnchorPoint: "Anchor-13" 0 0 basechar 0
AnchorPoint: "Anchor-12" 289 861 basechar 0
AnchorPoint: "Anchor-11" 434 0 basechar 0
AnchorPoint: "Anchor-10" 283 0 basechar 0
LayerCount: 2
Back
Fore
SplineSet
208 861 m 1
 382 779 l 1
 375 764 l 1
 196 838 l 1
 208 861 l 1
444 681 m 1
 441 660 l 1
 146 660 l 1
 146 370 l 1
 400 370 l 1
 400 349 l 1
 146 349 l 1
 146 21 l 1
 451 21 l 1
 451 0 l 1
 123 0 l 1
 123 681 l 1
 444 681 l 1
EndSplineSet
Substitution2: "'c2sc' Capitals to Small Capitals lookup 26 subtable" egrave.sc
Substitution2: "'aalt' Access All Alternates lookup 0 subtable" egrave.sc
Position2: "'cpsp' Capital Spacing lookup 0 subtable" dx=5 dy=0 dh=10 dv=0
EndChar
StartChar: Eacute
Encoding: 201 201 68
Width: 494
GlyphClass: 2
Flags: MW
HStem: 0 21<146 451 146 451> 349 21<146 400 146 400> 660 21<146 441 146 146>
VStem: 123 23<21 349 370 660>
AnchorPoint: "Anchor-14" 0 0 basechar 0
AnchorPoint: "Anchor-13" 0 0 basechar 0
AnchorPoint: "Anchor-12" 288 861 basechar 0
AnchorPoint: "Anchor-11" 434 0 basechar 0
AnchorPoint: "Anchor-10" 283 0 basechar 0
LayerCount: 2
Back
Fore
SplineSet
367 861 m 1
 379 838 l 1
 200 764 l 1
 193 779 l 1
 367 861 l 1
444 681 m 1
 441 660 l 1
 146 660 l 1
 146 370 l 1
 400 370 l 1
 400 349 l 1
 146 349 l 1
 146 21 l 1
 451 21 l 1
 451 0 l 1
 123 0 l 1
 123 681 l 1
 444 681 l 1
EndSplineSet
Substitution2: "'c2sc' Capitals to Small Capitals lookup 26 subtable" eacute.sc
Substitution2: "'aalt' Access All Alternates lookup 0 subtable" eacute.sc
Position2: "'cpsp' Capital Spacing lookup 0 subtable" dx=5 dy=0 dh=10 dv=0
EndChar

StartChar: Ecircumflex
Encoding: 202 202 28
Width: 494
GlyphClass: 2
Flags: MW
HStem: 0 21<146 451 146 451> 349 21<146 400 146 400> 660 21<146 441 146 146> 845 24<287 287>
VStem: 123 23<21 349 370 660>
AnchorPoint: "Anchor-11" 283 0 basechar 0
AnchorPoint: "Anchor-10" 87 681 basechar 0
AnchorPoint: "Anchor-9" 287 681 basechar 0
AnchorPoint: "Anchor-8" 434 0 basechar 0
LayerCount: 2
Fore
SplineSet
287 845 m 1
 172 766 l 1
 161 780 l 1
 281 869 l 1
 293 869 l 1
 413 780 l 1
 401 766 l 1
 287 845 l 1
441 660 m 1
 146 660 l 1
 146 370 l 1
 400 370 l 1
 400 349 l 1
 146 349 l 1
 146 21 l 1
 451 21 l 1
 451 0 l 1
 123 0 l 1
 123 681 l 1
 444 681 l 1
 441 660 l 1
EndSplineSet
Substitution2: "'c2sc' Capitals to Small Capitals lookup 23 subtable" ecircumflex.sc
Substitution2: "'aalt' Access All Alternates lookup 0 subtable" ecircumflex.sc
Position2: "'cpsp' Capital Spacing lookup 0 subtable" dx=5 dy=0 dh=10 dv=0
EndChar
StartChar: Iacute
Encoding: 205 205 120
Width: 268
GlyphClass: 2
Flags: MW
HStem: 0 21G<123 146 123 123> 661 20G<123 146 146 146>
VStem: 123 23<0 681 0 681>
AnchorPoint: "Anchor-14" 0 0 basechar 0
AnchorPoint: "Anchor-13" 0 0 basechar 0
AnchorPoint: "Anchor-12" 135 861 basechar 0
AnchorPoint: "Anchor-11" 156 0 basechar 0
AnchorPoint: "Anchor-10" 135 0 basechar 0
LayerCount: 2
Back
Fore
SplineSet
214 861 m 1
 226 838 l 1
 47 764 l 1
 40 779 l 1
 214 861 l 1
146 681 m 1
 146 0 l 1
 123 0 l 1
 123 681 l 1
 146 681 l 1
EndSplineSet
Substitution2: "'c2sc' Capitals to Small Capitals lookup 26 subtable" iacute.sc
Substitution2: "'aalt' Access All Alternates lookup 0 subtable" iacute.sc
Position2: "'cpsp' Capital Spacing lookup 0 subtable" dx=5 dy=0 dh=10 dv=0
EndChar

StartChar: Idieresis
Encoding: 207 207 48
Width: 268
GlyphClass: 2
Flags: MW
HStem: 0 21G<123 146 123 123> 661 20G<123 146 146 146> 799 39<45 57 210.5 223> 818 20<45 57 210.5 223>
VStem: 123 23<0 681> 196 40<812.5 823.5>
AnchorPoint: "Anchor-11" 0 0 basechar 0
AnchorPoint: "Anchor-10" 87 681 basechar 0
AnchorPoint: "Anchor-9" 134 747 basechar 0
AnchorPoint: "Anchor-8" 156 0 basechar 0
LayerCount: 2
Fore
SplineSet
51 838 m 0xe8
 63 838 71 829 71 818 c 0
 71 807 63 799 51 799 c 0
 39 799 31 807 31 818 c 0
 31 829 39 838 51 838 c 0xe8
217 838 m 0xdc
 229 838 236 829 236 818 c 0
 236 807 229 799 217 799 c 0
 204 799 196 807 196 818 c 0
 196 829 204 838 217 838 c 0xdc
146 0 m 1
 123 0 l 1
 123 681 l 1
 146 681 l 1
 146 0 l 1
EndSplineSet
Substitution2: "'c2sc' Capitals to Small Capitals lookup 23 subtable" idieresis.sc
Substitution2: "'aalt' Access All Alternates lookup 0 subtable" idieresis.sc
Position2: "'cpsp' Capital Spacing lookup 0 subtable" dx=5 dy=0 dh=10 dv=0
EndChar

StartChar: Eth
Encoding: 208 208 21
Width: 615
GlyphClass: 2
Flags: MW
HStem: 0 21<141 244> 343 20<26 118 26 118 141 333> 660 21<141 238 141 141>
VStem: 118 23<21 343 21 343 21 343 363 660> 514 23<215 482.5>
AnchorPoint: "Anchor-11" 0 0 basechar 0
AnchorPoint: "Anchor-10" 0 0 basechar 0
AnchorPoint: "Anchor-9" 290 681 basechar 0
AnchorPoint: "Anchor-8" 0 0 basechar 0
LayerCount: 2
Fore
SplineSet
240 681 m 2
 386 681 537 627 537 348 c 0
 537 63 380 0 244 0 c 2
 118 0 l 1
 118 343 l 1
 26 343 l 1
 26 363 l 1
 118 363 l 1
 118 681 l 1
 240 681 l 2
245 21 m 2
 375 21 514 82 514 348 c 0
 514 617 371 660 238 660 c 2
 141 660 l 1
 141 363 l 1
 333 363 l 1
 333 343 l 1
 141 343 l 1
 141 21 l 1
 245 21 l 2
EndSplineSet
Substitution2: "'c2sc' Capitals to Small Capitals lookup 23 subtable" eth.sc
Substitution2: "'aalt' Access All Alternates lookup 0 subtable" eth.sc
Position2: "'cpsp' Capital Spacing lookup 0 subtable" dx=5 dy=0 dh=10 dv=0
EndChar

StartChar: Ntilde
Encoding: 209 209 70
Width: 661
GlyphClass: 2
Flags: MW
HStem: 0 26<519 519 519 538 510 519> 656 25<142 142> 805 18<375 407 375 410.5> 848 19<264 296>
VStem: 123 22<0 477 0 681> 516 22<205 681>
AnchorPoint: "Anchor-11" 329 0 basechar 0
AnchorPoint: "Anchor-10" 0 0 basechar 0
AnchorPoint: "Anchor-9" 337 681 basechar 0
AnchorPoint: "Anchor-8" 0 0 basechar 0
LayerCount: 2
Fore
SplineSet
398 805 m 0
 346 805 313 848 279 848 c 0
 249 848 238 838 218 813 c 1
 205 820 l 1
 226 850 247 867 279 867 c 0xfc
 316 867 354 823 396 823 c 0
 418 823 433 834 455 865 c 1
 468 857 l 1
 446 819 423 805 398 805 c 0
538 0 m 1
 510 0 l 1
 142 656 l 1
 144 621 145 576 145 477 c 2
 145 0 l 1
 123 0 l 1
 123 681 l 1
 152 681 l 1
 519 26 l 1
 518 66 516 127 516 205 c 2
 516 681 l 1
 538 681 l 1
 538 0 l 1
EndSplineSet
Substitution2: "'c2sc' Capitals to Small Capitals lookup 23 subtable" ntilde.sc
Substitution2: "'aalt' Access All Alternates lookup 0 subtable" ntilde.sc
Position2: "'cpsp' Capital Spacing lookup 0 subtable" dx=5 dy=0 dh=10 dv=0
EndChar
StartChar: Otilde
Encoding: 213 213 214
Width: 689
GlyphClass: 2
Flags: MW
HStem: -10 22<271.5 421 271.5 427.5> 670 21<272 418> 804 20<382.5 414.5 382.5 417.5> 847 20<274 303>
VStem: 78 23<233 446.5 233 451> 588 23<233.5 448.5>
AnchorPoint: "Anchor-14" 0 0 basechar 0
AnchorPoint: "Anchor-13" 531 681 basechar 0
AnchorPoint: "Anchor-12" 347 867 basechar 0
AnchorPoint: "Anchor-11" 428 0 basechar 0
AnchorPoint: "Anchor-10" 345 0 basechar 0
LayerCount: 2
Back
Fore
SplineSet
403 804 m 0
 355 804 320 847 286 847 c 0
 262 847 247 837 226 812 c 1
 212 821 l 1
 234 851 256 867 286 867 c 0xfc
 325 867 362 824 403 824 c 0
 426 824 441 835 462 865 c 1
 476 857 l 1
 455 819 432 804 403 804 c 0
344 691 m 0
 505 691 611 569 611 340 c 0
 611 119 511 -10 344 -10 c 0
 185 -10 78 115 78 339 c 0
 78 563 187 691 344 691 c 0
344 670 m 0
 200 670 101 554 101 339 c 0
 101 127 199 12 344 12 c 0
 498 12 588 127 588 340 c 0
 588 557 492 670 344 670 c 0
EndSplineSet
Substitution2: "'c2sc' Capitals to Small Capitals lookup 26 subtable" otilde.sc
Substitution2: "'aalt' Access All Alternates lookup 0 subtable" otilde.sc
Position2: "'cpsp' Capital Spacing lookup 0 subtable" dx=5 dy=0 dh=10 dv=0
EndChar

StartChar: Odieresis
Encoding: 214 214 75
Width: 689
GlyphClass: 2
Flags: MW
HStem: -10 22<271.5 421 271.5 427.5> 670 21<272 418> 799 39<244 256 409.5 422> 818 20<244 256 409.5 422>
VStem: 78 23<233 446.5 233 451> 395 40<812.5 823.5> 588 23<233.5 448.5>
AnchorPoint: "Anchor-11" 0 0 basechar 0
AnchorPoint: "Anchor-10" 103 681 basechar 0
AnchorPoint: "Anchor-9" 333 747 basechar 0
AnchorPoint: "Anchor-8" 0 0 basechar 0
LayerCount: 2
Fore
SplineSet
250 838 m 0xea
 262 838 270 829 270 818 c 0
 270 807 262 799 250 799 c 0
 238 799 230 807 230 818 c 0
 230 829 238 838 250 838 c 0xea
416 838 m 0xde
 428 838 435 829 435 818 c 0
 435 807 428 799 416 799 c 0
 403 799 395 807 395 818 c 0
 395 829 403 838 416 838 c 0xde
344 691 m 0
 505 691 611 569 611 340 c 0
 611 119 511 -10 344 -10 c 0
 185 -10 78 115 78 339 c 0
 78 563 187 691 344 691 c 0
344 670 m 0
 200 670 101 554 101 339 c 0
 101 127 199 12 344 12 c 0
 498 12 588 127 588 340 c 0
 588 557 492 670 344 670 c 0
EndSplineSet
Substitution2: "'c2sc' Capitals to Small Capitals lookup 23 subtable" odieresis.sc
Substitution2: "'aalt' Access All Alternates lookup 0 subtable" odieresis.sc
Position2: "'cpsp' Capital Spacing lookup 0 subtable" dx=5 dy=0 dh=10 dv=0
EndChar

StartChar: Oslash
Encoding: 216 216 79
Width: 689
GlyphClass: 2
Flags: MW
HStem: -10 22<329 421> 670 21<272 359>
VStem: 78 23<259.5 446.5 259.5 451> 588 23<233.5 422>
AnchorPoint: "Anchor-11" 0 0 basechar 0
AnchorPoint: "Anchor-10" 0 0 basechar 0
AnchorPoint: "Anchor-9" 336 691 basechar 0
AnchorPoint: "Anchor-8" 0 0 basechar 0
LayerCount: 2
Fore
SplineSet
450 670 m 1
 550 626 611 514 611 340 c 0
 611 119 511 -10 344 -10 c 0
 312 -10 282 -5 255 5 c 1
 224 -111 l 1
 201 -104 l 1
 237 12 l 1
 139 58 78 170 78 339 c 0
 78 563 187 691 344 691 c 0
 375 691 405 686 432 678 c 1
 465 798 l 1
 488 792 l 1
 450 670 l 1
101 339 m 0
 101 180 156 76 245 33 c 1
 427 656 l 1
 402 665 374 670 344 670 c 0
 200 670 101 554 101 339 c 0
344 12 m 0
 498 12 588 127 588 340 c 0
 588 504 534 608 443 650 c 1
 261 26 l 1
 287 17 314 12 344 12 c 0
EndSplineSet
Substitution2: "'c2sc' Capitals to Small Capitals lookup 23 subtable" oslash.sc
Substitution2: "'aalt' Access All Alternates lookup 0 subtable" oslash.sc
Position2: "'cpsp' Capital Spacing lookup 0 subtable" dx=5 dy=0 dh=10 dv=0
EndChar
StartChar: Ugrave
Encoding: 217 217 275
Width: 640
GlyphClass: 2
Flags: MW
HStem: -10 22<254.5 387.5 254.5 394> 661 20G<113 136 136 136 505 528 528 528>
VStem: 113 23<207 210 210 681> 505 23<210 681>
AnchorPoint: "Anchor-14" 0 0 basechar 0
AnchorPoint: "Anchor-13" 538 681 basechar 0
AnchorPoint: "Anchor-12" 322 861 basechar 0
AnchorPoint: "Anchor-11" 404 0 basechar 0
AnchorPoint: "Anchor-10" 321 0 basechar 0
LayerCount: 2
Back
Fore
SplineSet
241 861 m 1
 415 779 l 1
 408 764 l 1
 229 838 l 1
 241 861 l 1
528 681 m 1
 528 207 l 2
 528 82 467 -10 321 -10 c 0
 173 -10 113 82 113 207 c 2
 113 681 l 1
 136 681 l 1
 136 210 l 2
 136 93 188 12 321 12 c 0
 454 12 505 95 505 210 c 2
 505 681 l 1
 528 681 l 1
EndSplineSet
Substitution2: "'c2sc' Capitals to Small Capitals lookup 26 subtable" ugrave.sc
Substitution2: "'aalt' Access All Alternates lookup 0 subtable" ugrave.sc
Position2: "'cpsp' Capital Spacing lookup 0 subtable" dx=5 dy=0 dh=10 dv=0
EndChar

StartChar: Uacute
Encoding: 218 218 102
Width: 640
GlyphClass: 2
Flags: MW
HStem: -10 22<254.5 387.5 254.5 394> 661 20G<113 136 136 136 505 528 528 528>
VStem: 113 23<207 210 210 681> 505 23<210 681>
AnchorPoint: "Anchor-11" 0 0 basechar 0
AnchorPoint: "Anchor-10" 0 0 basechar 0
AnchorPoint: "Anchor-9" 324 681 basechar 0
AnchorPoint: "Anchor-8" 404 0 basechar 0
LayerCount: 2
Fore
SplineSet
423 838 m 1
 244 764 l 1
 237 779 l 1
 411 861 l 1
 423 838 l 1
528 207 m 2
 528 82 467 -10 321 -10 c 0
 172 -10 113 82 113 207 c 2
 113 681 l 1
 136 681 l 1
 136 210 l 2
 136 93 188 12 321 12 c 0
 454 12 505 95 505 210 c 2
 505 681 l 1
 528 681 l 1
 528 207 l 2
EndSplineSet
Substitution2: "'c2sc' Capitals to Small Capitals lookup 23 subtable" uacute.sc
Substitution2: "'aalt' Access All Alternates lookup 0 subtable" uacute.sc
Position2: "'cpsp' Capital Spacing lookup 0 subtable" dx=5 dy=0 dh=10 dv=0
EndChar

StartChar: Ucircumflex
Encoding: 219 219 104
Width: 640
GlyphClass: 2
Flags: MW
HStem: -10 22<254.5 387.5 254.5 394> 661 20G<113 136 136 136 505 528 528 528> 845 24<324 324>
VStem: 113 23<207 210 210 681> 505 23<210 681>
AnchorPoint: "Anchor-11" 0 0 basechar 0
AnchorPoint: "Anchor-10" 0 0 basechar 0
AnchorPoint: "Anchor-9" 324 681 basechar 0
AnchorPoint: "Anchor-8" 404 0 basechar 0
LayerCount: 2
Fore
SplineSet
324 845 m 1
 209 766 l 1
 198 780 l 1
 318 869 l 1
 330 869 l 1
 450 780 l 1
 438 766 l 1
 324 845 l 1
528 207 m 2
 528 82 467 -10 321 -10 c 0
 172 -10 113 82 113 207 c 2
 113 681 l 1
 136 681 l 1
 136 210 l 2
 136 93 188 12 321 12 c 0
 454 12 505 95 505 210 c 2
 505 681 l 1
 528 681 l 1
 528 207 l 2
EndSplineSet
Substitution2: "'c2sc' Capitals to Small Capitals lookup 23 subtable" ucircumflex.sc
Substitution2: "'aalt' Access All Alternates lookup 0 subtable" ucircumflex.sc
Position2: "'cpsp' Capital Spacing lookup 0 subtable" dx=5 dy=0 dh=10 dv=0
EndChar

StartChar: Udieresis
Encoding: 220 220 105
Width: 640
GlyphClass: 2
Flags: MW
HStem: -10 22<254.5 387.5 254.5 394> 661 20G<113 136 136 136 505 528 528 528> 799 39<235 247 400.5 413> 818 20<235 247 400.5 413>
VStem: 113 23<207 210 210 681> 386 40<812.5 823.5> 505 23<210 681>
AnchorPoint: "Anchor-11" 0 0 basechar 0
AnchorPoint: "Anchor-10" 0 0 basechar 0
AnchorPoint: "Anchor-9" 324 747 basechar 0
AnchorPoint: "Anchor-8" 404 0 basechar 0
LayerCount: 2
Fore
SplineSet
241 838 m 0xea
 253 838 261 829 261 818 c 0
 261 807 253 799 241 799 c 0
 229 799 221 807 221 818 c 0
 221 829 229 838 241 838 c 0xea
407 838 m 0xde
 419 838 426 829 426 818 c 0
 426 807 419 799 407 799 c 0
 394 799 386 807 386 818 c 0
 386 829 394 838 407 838 c 0xde
528 207 m 2
 528 82 467 -10 321 -10 c 0
 172 -10 113 82 113 207 c 2
 113 681 l 1
 136 681 l 1
 136 210 l 2
 136 93 188 12 321 12 c 0
 454 12 505 95 505 210 c 2
 505 681 l 1
 528 681 l 1
 528 207 l 2
EndSplineSet
Substitution2: "'c2sc' Capitals to Small Capitals lookup 23 subtable" udieresis.sc
Substitution2: "'aalt' Access All Alternates lookup 0 subtable" udieresis.sc
Position2: "'cpsp' Capital Spacing lookup 0 subtable" dx=5 dy=0 dh=10 dv=0
EndChar

StartChar: Thorn
Encoding: 222 222 84
Width: 558
GlyphClass: 2
Flags: MW
HStem: 0 21G<123 146 123 123> 147 21<146 256 146 258> 533 21<146 261 146 261> 661 20G<123 146 146 146>
VStem: 123 23<0 147 0 168 168 533 554 681> 477 24<284 420>
LayerCount: 2
Fore
SplineSet
261 554 m 2
 416 554 501 496 501 355 c 0
 501 202 402 147 256 147 c 2
 146 147 l 1
 146 0 l 1
 123 0 l 1
 123 681 l 1
 146 681 l 1
 146 554 l 1
 261 554 l 2
258 168 m 2
 388 168 477 213 477 355 c 0
 477 485 402 533 261 533 c 2
 146 533 l 1
 146 168 l 1
 258 168 l 2
EndSplineSet
Substitution2: "'c2sc' Capitals to Small Capitals lookup 23 subtable" thorn.sc
Substitution2: "'aalt' Access All Alternates lookup 0 subtable" thorn.sc
Position2: "'cpsp' Capital Spacing lookup 0 subtable" dx=5 dy=0 dh=10 dv=0
EndChar

StartChar: agrave
Encoding: 224 224 139
Width: 528
GlyphClass: 2
Flags: MW
HStem: -10 21<181 260.5> 288 20<270 274 274 388> 509 20<232 305> 718 20G<166 166>
VStem: 66 24<103 191.5 103 197> 388 22<119 288 288 288 308 370 370 372>
AnchorPoint: "Anchor-11" 0 0 basechar 0
AnchorPoint: "Anchor-10" 0 0 basechar 0
AnchorPoint: "Anchor-9" 254 519 basechar 0
AnchorPoint: "Anchor-8" 461 -10 basechar 0
LayerCount: 2
Fore
SplineSet
344 654 m 1
 166 738 l 1
 176 761 l 1
 352 670 l 1
 344 654 l 1
410 110 m 2
 410 41 423 18 457 6 c 1
 451 -10 l 1
 410 3 392 29 391 91 c 1
 354 25 299 -10 222 -10 c 0
 124 -10 66 52 66 144 c 0
 66 250 147 308 270 308 c 2
 388 308 l 1
 388 370 l 2
 388 460 355 509 255 509 c 0
 209 509 163 497 112 476 c 1
 105 495 l 1
 158 517 205 529 255 529 c 0
 365 529 410 474 410 372 c 2
 410 110 l 2
222 11 m 0
 303 11 354 52 388 119 c 1
 388 288 l 1
 274 288 l 2
 160 288 90 239 90 144 c 0
 90 62 140 11 222 11 c 0
EndSplineSet
Substitution2: "'smcp' Lowercase to Small Capitals lookup 24 subtable" agrave.sc
Substitution2: "'aalt' Access All Alternates lookup 0 subtable" agrave.sc
EndChar

StartChar: atilde
Encoding: 227 227 143
Width: 528
GlyphClass: 2
Flags: MW
HStem: -10 21<181 260.5> 288 20<270 274 274 388> 509 20<232 305> 679 18<293 325 293 328.5> 711 20G<386 386> 722 19<182 214>
VStem: 66 24<103 191.5 103 197> 388 22<119 288 288 288 308 370 370 372>
AnchorPoint: "Anchor-11" 0 0 basechar 0
AnchorPoint: "Anchor-10" 0 0 basechar 0
AnchorPoint: "Anchor-9" 254 519 basechar 0
AnchorPoint: "Anchor-8" 461 -10 basechar 0
LayerCount: 2
Fore
SplineSet
197 722 m 0xe7
 167 722 156 712 136 687 c 1
 123 694 l 1
 144 724 165 741 197 741 c 0xe7
 234 741 272 697 314 697 c 0xf7
 336 697 351 708 373 739 c 1xe7
 386 731 l 1
 364 693 341 679 316 679 c 0xfb
 264 679 231 722 197 722 c 0xe7
410 110 m 2
 410 41 423 18 457 6 c 1
 451 -10 l 1
 410 3 392 29 391 91 c 1
 354 25 299 -10 222 -10 c 0
 124 -10 66 52 66 144 c 0
 66 250 147 308 270 308 c 2
 388 308 l 1
 388 370 l 2
 388 460 355 509 255 509 c 0
 209 509 163 497 112 476 c 1
 105 495 l 1
 158 517 205 529 255 529 c 0
 365 529 410 474 410 372 c 2
 410 110 l 2
222 11 m 0
 303 11 354 52 388 119 c 1
 388 288 l 1
 274 288 l 2
 160 288 90 239 90 144 c 0
 90 62 140 11 222 11 c 0
EndSplineSet
Substitution2: "'smcp' Lowercase to Small Capitals lookup 24 subtable" atilde.sc
Substitution2: "'aalt' Access All Alternates lookup 0 subtable" atilde.sc
EndChar

StartChar: ccedilla
Encoding: 231 231 150
Width: 464
GlyphClass: 2
Flags: MW
HStem: -212 20<280 309 280 315> -194 21G<225 225> -90 16 -10 21<270 270 287 287> 509 20<229 309.5>
VStem: 73 23<176 338.5 176 341.5> 267.5 19 354 23<-158 -123.5>
AnchorPoint: "Anchor-11" 284 0 basechar 0
AnchorPoint: "Anchor-10" 0 0 basechar 0
AnchorPoint: "Anchor-9" 278 519 basechar 0
AnchorPoint: "Anchor-8" 0 0 basechar 0
LayerCount: 2
Fore
SplineSet
286 -74 m 1x7f
 346 -77 377 -99 377 -140 c 0
 377 -187 337 -212 293 -212 c 0
 262 -212 242 -204 225 -194 c 1
 235 -177 l 1
 249 -186 267 -192 293 -192 c 0xbf
 325 -192 354 -176 354 -140 c 0
 354 -107 327 -91 265 -90 c 1
 270 -10 l 1
 153 -2 73 93 73 257 c 0
 73 426 156 529 283 529 c 0
 339 529 379 514 418 479 c 1
 405 464 l 1
 372 493 335 509 284 509 c 0
 174 509 96 420 96 257 c 0
 96 95 175 11 283 11 c 0
 337 11 377 30 411 60 c 1
 423 44 l 1
 388 13 343 -9 287 -10 c 1
 286 -74 l 1x7f
EndSplineSet
Substitution2: "'smcp' Lowercase to Small Capitals lookup 24 subtable" ccedilla.sc
Substitution2: "'aalt' Access All Alternates lookup 0 subtable" ccedilla.sc
EndChar
StartChar: igrave
Encoding: 236 236 489
Width: 258
GlyphClass: 2
Flags: MW
HStem: 0 21G<118 140 118 118> 499 20G<118 140 140 140> 718 20G<37 37>
VStem: 118 22<0 519 0 519>
AnchorPoint: "Anchor-14" 0 0 basechar 0
AnchorPoint: "Anchor-13" 0 0 basechar 0
AnchorPoint: "Anchor-12" 132 761 basechar 0
AnchorPoint: "Anchor-11" 150 0 basechar 0
AnchorPoint: "Anchor-10" 129 0 basechar 0
LayerCount: 2
Back
Fore
SplineSet
47 761 m 1
 223 670 l 1
 215 654 l 1
 37 738 l 1
 47 761 l 1
140 519 m 1
 140 0 l 1
 118 0 l 1
 118 519 l 1
 140 519 l 1
EndSplineSet
Substitution2: "'smcp' Lowercase to Small Capitals lookup 27 subtable" igrave.sc
Substitution2: "'aalt' Access All Alternates lookup 0 subtable" igrave.sc
EndChar
StartChar: iacute
Encoding: 237 237 480
Width: 258
GlyphClass: 2
Flags: MW
HStem: 0 21G<118 140 118 118> 499 20G<118 140 140 140>
VStem: 118 22<0 519 0 519>
AnchorPoint: "Anchor-14" 0 0 basechar 0
AnchorPoint: "Anchor-13" 0 0 basechar 0
AnchorPoint: "Anchor-12" 129 761 basechar 0
AnchorPoint: "Anchor-11" 150 0 basechar 0
AnchorPoint: "Anchor-10" 129 0 basechar 0
LayerCount: 2
Back
Fore
SplineSet
203 761 m 1
 213 738 l 1
 35 654 l 1
 27 670 l 1
 203 761 l 1
140 519 m 1
 140 0 l 1
 118 0 l 1
 118 519 l 1
 140 519 l 1
EndSplineSet
Substitution2: "'smcp' Lowercase to Small Capitals lookup 27 subtable" iacute.sc
Substitution2: "'aalt' Access All Alternates lookup 0 subtable" iacute.sc
EndChar

StartChar: icircumflex
Encoding: 238 238 180
Width: 258
GlyphClass: 2
Flags: MW
HStem: 0 21G<118 140 118 118> 499 20G<118 140 140 140> 738 24<132 132>
VStem: 118 22<0 519>
AnchorPoint: "Anchor-11" 0 0 basechar 0
AnchorPoint: "Anchor-10" 0 0 basechar 0
AnchorPoint: "Anchor-9" 129 519 basechar 0
AnchorPoint: "Anchor-8" 150 0 basechar 0
LayerCount: 2
Fore
SplineSet
6 667 m 1
 126 762 l 1
 138 762 l 1
 258 667 l 1
 246 654 l 1
 132 738 l 1
 17 654 l 1
 6 667 l 1
140 0 m 1
 118 0 l 1
 118 519 l 1
 140 519 l 1
 140 0 l 1
EndSplineSet
Substitution2: "'smcp' Lowercase to Small Capitals lookup 24 subtable" icircumflex.sc
Substitution2: "'aalt' Access All Alternates lookup 0 subtable" icircumflex.sc
EndChar
StartChar: eth
Encoding: 240 240 392
Width: 550
GlyphClass: 2
Flags: MW
HStem: -10 21<213.5 323.5 213.5 328> 441 20<209 297> 714 20G<373 373> 718 20G<144 149>
VStem: 73 23<161.5 288 161.5 291> 442 23<303 335 335 335>
AnchorPoint: "Anchor-14" 0 0 basechar 0
AnchorPoint: "Anchor-13" 0 0 basechar 0
AnchorPoint: "Anchor-12" 289 732 basechar 0
AnchorPoint: "Anchor-11" 0 0 basechar 0
AnchorPoint: "Anchor-10" 269 0 basechar 0
LayerCount: 2
Back
Fore
SplineSet
307 666 m 1xec
 406 591 465 483 465 301 c 0
 465 87 388 -10 268 -10 c 0
 143 -10 73 86 73 230 c 0
 73 352 140 461 260 461 c 0
 335 461 393 422 441 361 c 1
 431 486 384 581 292 651 c 1
 210 566 l 1
 191 573 l 1
 278 662 l 1
 242 686 191 709 144 718 c 1
 149 738 l 1
 197 727 247 707 292 677 c 1
 358 746 l 1xdc
 373 734 l 1
 307 666 l 1xec
268 11 m 0xdc
 379 11 442 107 442 303 c 2
 442 335 l 1
 392 400 333 441 261 441 c 0
 157 441 96 347 96 229 c 0
 96 94 159 11 268 11 c 0xdc
EndSplineSet
Substitution2: "'smcp' Lowercase to Small Capitals lookup 27 subtable" eth.sc
Substitution2: "'aalt' Access All Alternates lookup 0 subtable" eth.sc
EndChar

StartChar: ntilde
Encoding: 241 241 207
Width: 581
GlyphClass: 2
Flags: MW
HStem: 0 21G<118 140 118 118 447 469 447 447> 499 20G<118 137 137 137> 509 20<289 369.5> 679 18<336 368 336 371.5> 711 20G<429 429> 722 19<225 257>
VStem: 118 20 447 22<0 367 367 369 0 414>
AnchorPoint: "Anchor-11" 288 0 basechar 0
AnchorPoint: "Anchor-10" 108 519 basechar 0
AnchorPoint: "Anchor-9" 296 519 basechar 0
AnchorPoint: "Anchor-8" 0 0 basechar 0
LayerCount: 2
Fore
SplineSet
240 722 m 0xa7
 210 722 199 712 179 687 c 1
 166 694 l 1
 187 724 208 741 240 741 c 0xa7
 277 741 315 697 357 697 c 0xb7
 379 697 394 708 416 739 c 1xa7
 429 731 l 1
 407 693 384 679 359 679 c 0xbb
 307 679 274 722 240 722 c 0xa7
330 529 m 0
 425 529 469 471 469 369 c 2
 469 0 l 1
 447 0 l 1
 447 367 l 2
 447 461 409 509 330 509 c 0xa7
 246 509 189 459 140 384 c 1
 140 0 l 1
 118 0 l 1
 118 519 l 1
 137 519 l 1xc7
 139 413 l 1
 186 483 248 529 330 529 c 0
EndSplineSet
Substitution2: "'smcp' Lowercase to Small Capitals lookup 24 subtable" ntilde.sc
Substitution2: "'aalt' Access All Alternates lookup 0 subtable" ntilde.sc
EndChar

StartChar: oacute
Encoding: 243 243 209
Width: 560
GlyphClass: 2
Flags: MW
HStem: -10 21<222.5 336.5 222.5 343> 509 20<225 338.5>
VStem: 73 23<180.5 340.5 180.5 345> 465 23<181 341.5>
AnchorPoint: "Anchor-11" 0 0 basechar 0
AnchorPoint: "Anchor-10" 0 0 basechar 0
AnchorPoint: "Anchor-9" 281 519 basechar 0
AnchorPoint: "Anchor-8" 0 0 basechar 0
LayerCount: 2
Fore
SplineSet
365 738 m 1
 187 654 l 1
 179 670 l 1
 355 761 l 1
 365 738 l 1
281 529 m 0
 408 529 488 434 488 262 c 0
 488 89 406 -10 280 -10 c 0
 151 -10 73 91 73 259 c 0
 73 431 156 529 281 529 c 0
281 509 m 0
 169 509 96 422 96 259 c 0
 96 102 165 11 280 11 c 0
 393 11 465 100 465 262 c 0
 465 421 396 509 281 509 c 0
EndSplineSet
Substitution2: "'smcp' Lowercase to Small Capitals lookup 24 subtable" oacute.sc
Substitution2: "'locl' Localized Forms in Latin lookup 7 subtable" oacute.loclPLK
AlternateSubs2: "'aalt' Access All Alternates lookup 1 subtable" oacute.loclPLK oacute.sc
EndChar

StartChar: otilde
Encoding: 245 245 218
Width: 560
GlyphClass: 2
Flags: MW
HStem: -10 21<222.5 336.5 222.5 343> 509 20<225 338.5> 679 18<320 352 320 355.5> 711 20G<413 413> 722 19<209 241>
VStem: 73 23<180.5 340.5 180.5 345> 465 23<181 341.5>
AnchorPoint: "Anchor-11" 0 0 basechar 0
AnchorPoint: "Anchor-10" 0 0 basechar 0
AnchorPoint: "Anchor-9" 281 519 basechar 0
AnchorPoint: "Anchor-8" 0 0 basechar 0
LayerCount: 2
Fore
SplineSet
343 679 m 0xf6
 291 679 258 722 224 722 c 0
 194 722 183 712 163 687 c 1
 150 694 l 1
 171 724 192 741 224 741 c 0xce
 261 741 299 697 341 697 c 0xee
 363 697 378 708 400 739 c 1xce
 413 731 l 1
 391 693 368 679 343 679 c 0xf6
281 529 m 0xce
 408 529 488 434 488 262 c 0
 488 89 406 -10 280 -10 c 0
 151 -10 73 91 73 259 c 0
 73 431 156 529 281 529 c 0xce
281 509 m 0
 169 509 96 422 96 259 c 0
 96 102 165 11 280 11 c 0
 393 11 465 100 465 262 c 0
 465 421 396 509 281 509 c 0
EndSplineSet
Substitution2: "'smcp' Lowercase to Small Capitals lookup 24 subtable" otilde.sc
Substitution2: "'aalt' Access All Alternates lookup 0 subtable" otilde.sc
EndChar
StartChar: divide
Encoding: 247 247 2244
Width: 485
GlyphClass: 2
Flags: MW
HStem: 100 46<236 250> 320 21<78 407 78 407> 515 46<236 250>
VStem: 219 47<116.5 129.5 531.5 544.5>
LayerCount: 2
Back
Fore
SplineSet
243 561 m 0
 257 561 266 551 266 538 c 0
 266 525 257 515 243 515 c 0
 229 515 219 525 219 538 c 0
 219 551 229 561 243 561 c 0
78 320 m 1
 78 341 l 1
 407 341 l 1
 407 320 l 1
 78 320 l 1
243 146 m 0
 257 146 266 136 266 123 c 0
 266 110 257 100 243 100 c 0
 229 100 219 110 219 123 c 0
 219 136 229 146 243 146 c 0
EndSplineSet
Substitution2: "'onum' Oldstyle Figures lookup 25 subtable" divide.osf
Substitution2: "'tnum' Tabular Numbers lookup 24 subtable" divide.tf
AlternateSubs2: "'aalt' Access All Alternates lookup 1 subtable" divide.tf divide.osf
EndChar
StartChar: oslash
Encoding: 248 248 589
Width: 560
GlyphClass: 2
Flags: MW
HStem: -10 21<267.5 336.5 267.5 343> 509 20<225 293.5>
VStem: 73 23<202 340.5 202 345> 465 23<181 319>
AnchorPoint: "Anchor-14" 0 0 basechar 0
AnchorPoint: "Anchor-13" 0 0 basechar 0
AnchorPoint: "Anchor-12" 281 519 basechar 0
AnchorPoint: "Anchor-11" 0 0 basechar 0
AnchorPoint: "Anchor-10" 280 0 basechar 0
LayerCount: 2
Back
Fore
SplineSet
374 508 m 1
 446 471 488 387 488 262 c 0
 488 89 406 -10 280 -10 c 0
 253 -10 228 -5 206 3 c 1
 164 -118 l 1
 145 -113 l 1
 187 12 l 1
 115 49 73 136 73 259 c 0
 73 431 156 529 281 529 c 0
 308 529 333 525 355 516 c 1
 395 639 l 1
 415 633 l 1
 374 508 l 1
96 259 m 0
 96 145 132 66 195 31 c 1
 349 496 l 1
 328 504 306 509 281 509 c 0
 169 509 96 422 96 259 c 0
280 11 m 0
 393 11 465 100 465 262 c 0
 465 376 429 454 366 488 c 1
 213 23 l 1
 233 15 255 11 280 11 c 0
EndSplineSet
Substitution2: "'smcp' Lowercase to Small Capitals lookup 27 subtable" oslash.sc
Substitution2: "'aalt' Access All Alternates lookup 0 subtable" oslash.sc
EndChar

StartChar: ugrave
Encoding: 249 249 244
Width: 576
GlyphClass: 2
Flags: MW
HStem: -10 21<221.5 302 221.5 302> 0 21G<439 459 439 439> 499 20G<113 135 135 135 437 459 459 459> 718 20G<199 199>
VStem: 113 22<149 151 151 519> 437 22<133 519>
AnchorPoint: "Anchor-11" 0 0 basechar 0
AnchorPoint: "Anchor-10" 0 0 basechar 0
AnchorPoint: "Anchor-9" 287 519 basechar 0
AnchorPoint: "Anchor-8" 469 0 basechar 0
LayerCount: 2
Fore
SplineSet
385 670 m 1xbc
 377 654 l 1
 199 738 l 1
 209 761 l 1
 385 670 l 1xbc
459 0 m 1x7c
 439 0 l 1x7c
 439 106 l 1
 403 41 345 -10 259 -10 c 0
 167 -10 113 46 113 149 c 2
 113 519 l 1
 135 519 l 1
 135 151 l 2
 135 56 181 11 262 11 c 0xbc
 342 11 396 61 437 133 c 1
 437 519 l 1
 459 519 l 1
 459 0 l 1x7c
EndSplineSet
Substitution2: "'smcp' Lowercase to Small Capitals lookup 24 subtable" ugrave.sc
Substitution2: "'aalt' Access All Alternates lookup 0 subtable" ugrave.sc
EndChar

StartChar: yacute
Encoding: 253 253 258
Width: 444
GlyphClass: 2
Flags: MW
HStem: -195 21G<59 59> 0 16<210 225 210 225> 0 21G<210 219 210 210> 499 20G<23 47 47 47 396 421 421 421>
VStem: 23 398<519 519>
AnchorPoint: "Anchor-11" 0 0 basechar 0
AnchorPoint: "Anchor-10" 0 0 basechar 0
AnchorPoint: "Anchor-9" 216 519 basechar 0
AnchorPoint: "Anchor-8" 0 0 basechar 0
LayerCount: 2
Fore
SplineSet
300 738 m 1xb8
 122 654 l 1
 114 670 l 1
 290 761 l 1
 300 738 l 1xb8
240 -1 m 2
 200 -116 169 -163 59 -195 c 1
 56 -177 l 1
 159 -146 181 -103 219 0 c 1
 210 0 l 1
 23 519 l 1
 47 519 l 1
 225 16 l 1xd8
 396 519 l 1
 421 519 l 1
 240 -1 l 2
EndSplineSet
Substitution2: "'smcp' Lowercase to Small Capitals lookup 24 subtable" yacute.sc
Substitution2: "'aalt' Access All Alternates lookup 0 subtable" yacute.sc
EndChar
StartChar: ydieresis
Encoding: 255 255 706
Width: 444
GlyphClass: 2
Flags: MW
HStem: -195 21G<59 59> 0 16<210 225 210 225> 0 21G<210 219 210 210> 499 20G<23 47 47 47 396 421 421 421> 673 39<133 145 298.5 311> 692 20<133 145 298.5 311>
VStem: 284 40<686.5 697.5>
AnchorPoint: "Anchor-14" 0 0 basechar 0
AnchorPoint: "Anchor-13" 0 0 basechar 0
AnchorPoint: "Anchor-12" 224 712 basechar 0
AnchorPoint: "Anchor-11" 0 0 basechar 0
AnchorPoint: "Anchor-10" 226 -192 basechar 0
LayerCount: 2
Back
Fore
SplineSet
139 712 m 0xba
 151 712 159 703 159 692 c 0
 159 681 151 673 139 673 c 0
 127 673 119 681 119 692 c 0
 119 703 127 712 139 712 c 0xba
305 712 m 0xd6
 317 712 324 703 324 692 c 0
 324 681 317 673 305 673 c 0
 292 673 284 681 284 692 c 0
 284 703 292 712 305 712 c 0xd6
421 519 m 1
 240 -1 l 2
 200 -116 169 -163 59 -195 c 1
 56 -177 l 1
 159 -146 181 -103 219 0 c 1
 210 0 l 1
 23 519 l 1
 47 519 l 1
 225 16 l 1
 396 519 l 1
 421 519 l 1
EndSplineSet
Substitution2: "'smcp' Lowercase to Small Capitals lookup 27 subtable" ydieresis.sc
Substitution2: "'aalt' Access All Alternates lookup 0 subtable" ydieresis.sc
EndChar
StartChar: Amacron
Encoding: 256 256 27
Width: 557
GlyphClass: 2
Flags: MW
HStem: 0 21G<28 51 28 28 505 530 505 505> 203 21<128 429 128 436 120 429> 663 18<278 278> 811 21<175 382 175 382>
VStem: 28 502<0 0>
AnchorPoint: "Anchor-14" 0 0 basechar 0
AnchorPoint: "Anchor-13" 0 0 basechar 0
AnchorPoint: "Anchor-12" 281 832 basechar 0
AnchorPoint: "Anchor-11" 540 0 basechar 0
AnchorPoint: "Anchor-10" 279 0 basechar 0
LayerCount: 2
Back
Fore
SplineSet
382 832 m 1
 382 811 l 1
 175 811 l 1
 175 832 l 1
 382 832 l 1
505 0 m 1
 436 203 l 1
 120 203 l 1
 51 0 l 1
 28 0 l 1
 265 681 l 1
 292 681 l 1
 530 0 l 1
 505 0 l 1
128 224 m 1
 429 224 l 1
 278 663 l 1
 128 224 l 1
EndSplineSet
Substitution2: "'c2sc' Capitals to Small Capitals lookup 26 subtable" amacron.sc
Substitution2: "'aalt' Access All Alternates lookup 0 subtable" amacron.sc
Position2: "'cpsp' Capital Spacing lookup 0 subtable" dx=5 dy=0 dh=10 dv=0
EndChar

StartChar: Abreve
Encoding: 258 258 3
Width: 557
GlyphClass: 2
Flags: MW
HStem: 0 21G<28 51 28 28 505 505 505 530> 203 21<128 428 128 435 121 428> 663 18<278 278> 772 20<254.5 303.5 254.5 307.5>
VStem: 28 502<0 0>
AnchorPoint: "Anchor-11" 0 0 basechar 0
AnchorPoint: "Anchor-10" 161 681 basechar 0
AnchorPoint: "Anchor-9" 279 681 basechar 0
AnchorPoint: "Anchor-8" 540 0 basechar 0
LayerCount: 2
Fore
SplineSet
279 772 m 0
 223 772 182 806 172 847 c 1
 187 850 l 1
 198 818 230 792 279 792 c 0
 328 792 360 818 372 850 c 1
 387 847 l 1
 377 806 336 772 279 772 c 0
435 203 m 1
 121 203 l 1
 51 0 l 1
 28 0 l 1
 265 681 l 1
 292 681 l 1
 530 0 l 1
 505 0 l 1
 435 203 l 1
428 224 m 1
 278 663 l 1
 128 224 l 1
 428 224 l 1
EndSplineSet
Substitution2: "'c2sc' Capitals to Small Capitals lookup 23 subtable" abreve.sc
Substitution2: "'aalt' Access All Alternates lookup 0 subtable" abreve.sc
Position2: "'cpsp' Capital Spacing lookup 0 subtable" dx=5 dy=0 dh=10 dv=0
EndChar
StartChar: Aogonek
Encoding: 260 260 28
Width: 557
GlyphClass: 2
Flags: MW
HStem: -203 22<452 483.5> -196 21G<528 528> 0 21G<28 51 28 28 530 530> 203 21<128 429 128 436 120 429> 663 18<278 278>
VStem: 381 24<-139.5 -93>
AnchorPoint: "Anchor-14" 0 0 basechar 0
AnchorPoint: "Anchor-13" 0 0 basechar 0
AnchorPoint: "Anchor-12" 279 681 basechar 0
AnchorPoint: "Anchor-11" 540 0 basechar 0
AnchorPoint: "Anchor-10" 279 0 basechar 0
LayerCount: 2
Back
Fore
SplineSet
405 -121 m 0xbc
 405 -158 429 -181 475 -181 c 0xbc
 493 -181 509 -179 530 -174 c 1x7c
 528 -196 l 1
 507 -201 493 -203 474 -203 c 0
 411 -203 381 -169 381 -121 c 0
 381 -65 430 -27 504 5 c 1
 436 203 l 1
 120 203 l 1
 51 0 l 1
 28 0 l 1
 265 681 l 1
 292 681 l 1
 529 2 l 1
 530 0 l 1
 459 -31 405 -63 405 -121 c 0xbc
128 224 m 1
 429 224 l 1
 278 663 l 1
 128 224 l 1
EndSplineSet
Substitution2: "'c2sc' Capitals to Small Capitals lookup 26 subtable" aogonek.sc
Substitution2: "'aalt' Access All Alternates lookup 0 subtable" aogonek.sc
Position2: "'cpsp' Capital Spacing lookup 0 subtable" dx=5 dy=0 dh=10 dv=0
EndChar

StartChar: aogonek
Encoding: 261 261 141
Width: 528
GlyphClass: 2
Flags: MW
HStem: -213 22<376 405.5> -10 21<181 260.5> -2 21G 288 20<270 274 274 388> 509 20<232 305>
VStem: 66 24<103 191.5 103 197> 303 24<-149.5 -102 -149.5 -102> 388 22<119 288 288 288 308 370 370 372>
AnchorPoint: "Anchor-11" 0 0 basechar 0
AnchorPoint: "Anchor-10" 0 0 basechar 0
AnchorPoint: "Anchor-9" 254 519 basechar 0
AnchorPoint: "Anchor-8" 461 -10 basechar 0
LayerCount: 2
Fore
SplineSet
452 -10 m 1xdf
 381 -41 327 -73 327 -131 c 0
 327 -168 353 -191 399 -191 c 0
 417 -191 431 -189 452 -184 c 1
 450 -206 l 1
 429 -211 415 -213 396 -213 c 0
 333 -213 303 -179 303 -131 c 0
 303 -73 355 -35 432 -2 c 1xbf
 404 13 392 40 391 91 c 1
 354 25 299 -10 222 -10 c 0
 124 -10 66 52 66 144 c 0
 66 250 147 308 270 308 c 2
 388 308 l 1
 388 370 l 2
 388 460 355 509 255 509 c 0
 209 509 163 497 112 476 c 1
 105 495 l 1
 158 517 205 529 255 529 c 0
 365 529 410 474 410 372 c 2
 410 110 l 2
 410 41 423 18 457 6 c 1
 451 -9 l 1
 452 -10 l 1xdf
222 11 m 0
 303 11 354 52 388 119 c 1
 388 288 l 1
 274 288 l 2
 160 288 90 239 90 144 c 0
 90 62 140 11 222 11 c 0
EndSplineSet
Substitution2: "'smcp' Lowercase to Small Capitals lookup 24 subtable" aogonek.sc
Substitution2: "'aalt' Access All Alternates lookup 0 subtable" aogonek.sc
EndChar
StartChar: cacute
Encoding: 263 263 381
Width: 464
GlyphClass: 2
Flags: MW
HStem: -10 21<229 310 229 313> 509 20<229 309.5>
VStem: 73 23<176 338.5 176 341.5>
AnchorPoint: "Anchor-14" 0 0 basechar 0
AnchorPoint: "Anchor-13" 0 0 basechar 0
AnchorPoint: "Anchor-12" 278 761 basechar 0
AnchorPoint: "Anchor-11" 0 0 basechar 0
AnchorPoint: "Anchor-10" 284 0 basechar 0
LayerCount: 2
Back
Fore
SplineSet
352 761 m 1
 362 738 l 1
 184 654 l 1
 176 670 l 1
 352 761 l 1
283 529 m 0
 339 529 379 514 418 479 c 1
 405 464 l 1
 372 493 335 509 284 509 c 0
 174 509 96 420 96 257 c 0
 96 95 175 11 283 11 c 0
 337 11 377 30 410 59 c 1
 423 44 l 1
 387 12 342 -10 284 -10 c 0
 159 -10 73 87 73 257 c 0
 73 426 156 529 283 529 c 0
EndSplineSet
Substitution2: "'smcp' Lowercase to Small Capitals lookup 27 subtable" cacute.sc
Substitution2: "'locl' Localized Forms in Latin lookup 7 subtable" cacute.loclPLK
AlternateSubs2: "'aalt' Access All Alternates lookup 1 subtable" cacute.loclPLK cacute.sc
EndChar

StartChar: Ccircumflex
Encoding: 264 264 18
Width: 538
GlyphClass: 2
Flags: MW
HStem: -10 22<274 380.5 274 381.5> 670 21<277.5 378.5> 845 24<342 342>
VStem: 78 23<231.5 455 231.5 458.5>
AnchorPoint: "Anchor-11" 341 0 basechar 0
AnchorPoint: "Anchor-10" 0 0 basechar 0
AnchorPoint: "Anchor-9" 342 681 basechar 0
AnchorPoint: "Anchor-8" 0 0 basechar 0
LayerCount: 2
Fore
SplineSet
342 845 m 1
 227 766 l 1
 216 780 l 1
 336 869 l 1
 348 869 l 1
 468 780 l 1
 456 766 l 1
 342 845 l 1
344 691 m 0
 419 691 463 668 505 633 c 1
 492 617 l 1
 449 651 411 670 346 670 c 0
 209 670 101 570 101 340 c 0
 101 123 206 12 342 12 c 0
 419 12 461 39 499 71 c 1
 513 54 l 1
 472 19 421 -10 342 -10 c 0
 189 -10 78 113 78 340 c 0
 78 577 195 691 344 691 c 0
EndSplineSet
Substitution2: "'c2sc' Capitals to Small Capitals lookup 23 subtable" ccircumflex.sc
Substitution2: "'aalt' Access All Alternates lookup 0 subtable" ccircumflex.sc
Position2: "'cpsp' Capital Spacing lookup 0 subtable" dx=5 dy=0 dh=10 dv=0
EndChar

StartChar: ccircumflex
Encoding: 265 265 151
Width: 464
GlyphClass: 2
Flags: MW
HStem: -10 21<229 310 229 313> 509 20<229 309.5> 738 24<282 282>
VStem: 73 23<176 338.5 176 341.5>
AnchorPoint: "Anchor-11" 284 0 basechar 0
AnchorPoint: "Anchor-10" 0 0 basechar 0
AnchorPoint: "Anchor-9" 278 519 basechar 0
AnchorPoint: "Anchor-8" 0 0 basechar 0
LayerCount: 2
Fore
SplineSet
156 667 m 1
 276 762 l 1
 288 762 l 1
 408 667 l 1
 396 654 l 1
 282 738 l 1
 167 654 l 1
 156 667 l 1
283 529 m 0
 339 529 379 514 418 479 c 1
 405 464 l 1
 372 493 335 509 284 509 c 0
 174 509 96 420 96 257 c 0
 96 95 175 11 283 11 c 0
 337 11 377 30 411 60 c 1
 423 44 l 1
 387 12 342 -10 284 -10 c 0
 159 -10 73 87 73 257 c 0
 73 426 156 529 283 529 c 0
EndSplineSet
Substitution2: "'smcp' Lowercase to Small Capitals lookup 24 subtable" ccircumflex.sc
Substitution2: "'aalt' Access All Alternates lookup 0 subtable" ccircumflex.sc
EndChar

StartChar: Cdotaccent
Encoding: 266 266 19
Width: 538
GlyphClass: 2
Flags: MW
HStem: -10 22<274 380.5 274 381.5> 670 21<277.5 378.5> 811 39<336 349>
VStem: 78 23<231.5 455 231.5 458.5> 342 21
AnchorPoint: "Anchor-11" 341 0 basechar 0
AnchorPoint: "Anchor-10" 0 0 basechar 0
AnchorPoint: "Anchor-9" 342 681 basechar 0
AnchorPoint: "Anchor-8" 0 0 basechar 0
LayerCount: 2
Fore
SplineSet
342 850 m 0
 356 850 363 840 363 830 c 0
 363 820 356 811 342 811 c 0
 330 811 322 820 322 830 c 0
 322 840 330 850 342 850 c 0
344 691 m 0
 419 691 463 668 505 633 c 1
 492 617 l 1
 449 651 411 670 346 670 c 0
 209 670 101 570 101 340 c 0
 101 123 206 12 342 12 c 0
 419 12 461 39 499 71 c 1
 513 54 l 1
 472 19 421 -10 342 -10 c 0
 189 -10 78 113 78 340 c 0
 78 577 195 691 344 691 c 0
EndSplineSet
Substitution2: "'c2sc' Capitals to Small Capitals lookup 23 subtable" cdotaccent.sc
Substitution2: "'aalt' Access All Alternates lookup 0 subtable" cdotaccent.sc
Position2: "'cpsp' Capital Spacing lookup 0 subtable" dx=5 dy=0 dh=10 dv=0
EndChar
StartChar: cdotaccent
Encoding: 267 267 387
Width: 464
GlyphClass: 2
Flags: MW
HStem: -10 21<229 310 229 313> 509 20<229 309.5> 685 39<272 285>
VStem: 73 23<176 338.5 176 341.5> 278 21
AnchorPoint: "Anchor-14" 0 0 basechar 0
AnchorPoint: "Anchor-13" 0 0 basechar 0
AnchorPoint: "Anchor-12" 278 662 basechar 0
AnchorPoint: "Anchor-11" 0 0 basechar 0
AnchorPoint: "Anchor-10" 284 0 basechar 0
LayerCount: 2
Back
Fore
SplineSet
278 724 m 0
 292 724 299 714 299 704 c 0
 299 694 292 685 278 685 c 0
 266 685 258 694 258 704 c 0
 258 714 266 724 278 724 c 0
283 529 m 0
 339 529 379 514 418 479 c 1
 405 464 l 1
 372 493 335 509 284 509 c 0
 174 509 96 420 96 257 c 0
 96 95 175 11 283 11 c 0
 337 11 377 30 410 59 c 1
 423 44 l 1
 387 12 342 -10 284 -10 c 0
 159 -10 73 87 73 257 c 0
 73 426 156 529 283 529 c 0
EndSplineSet
Substitution2: "'smcp' Lowercase to Small Capitals lookup 27 subtable" cdotaccent.sc
Substitution2: "'aalt' Access All Alternates lookup 0 subtable" cdotaccent.sc
EndChar
StartChar: Ccaron
Encoding: 268 268 46
Width: 538
GlyphClass: 2
Flags: MW
HStem: -10 22<274 380.5 274 381.5> 670 21<277.5 378.5> 760 24<342 342 342 348 336 342>
VStem: 78 23<231.5 455 231.5 458.5>
AnchorPoint: "Anchor-14" 327 343 basechar 0
AnchorPoint: "Anchor-13" 0 0 basechar 0
AnchorPoint: "Anchor-12" 344 863 basechar 0
AnchorPoint: "Anchor-11" 0 0 basechar 0
AnchorPoint: "Anchor-10" 341 0 basechar 0
LayerCount: 2
Back
Fore
SplineSet
456 863 m 1
 468 850 l 1
 348 760 l 1
 336 760 l 1
 216 850 l 1
 227 863 l 1
 342 784 l 1
 456 863 l 1
344 691 m 0
 419 691 463 668 505 633 c 1
 492 617 l 1
 449 651 411 670 346 670 c 0
 209 670 101 570 101 340 c 0
 101 123 206 12 342 12 c 0
 419 12 461 39 499 71 c 1
 513 54 l 1
 472 19 421 -10 342 -10 c 0
 189 -10 78 113 78 340 c 0
 78 577 195 691 344 691 c 0
EndSplineSet
Substitution2: "'c2sc' Capitals to Small Capitals lookup 26 subtable" ccaron.sc
Substitution2: "'aalt' Access All Alternates lookup 0 subtable" ccaron.sc
Position2: "'cpsp' Capital Spacing lookup 0 subtable" dx=5 dy=0 dh=10 dv=0
EndChar
StartChar: ccaron
Encoding: 269 269 383
Width: 464
GlyphClass: 2
Flags: MW
HStem: -10 21<229 310 229 313> 509 20<229 309.5> 641 24<278 278 278 284 272 278> 716 20G<152 152 404 404>
VStem: 73 23<176 338.5 176 341.5>
AnchorPoint: "Anchor-14" 0 0 basechar 0
AnchorPoint: "Anchor-13" 0 0 basechar 0
AnchorPoint: "Anchor-12" 280 749 basechar 0
AnchorPoint: "Anchor-11" 0 0 basechar 0
AnchorPoint: "Anchor-10" 284 0 basechar 0
LayerCount: 2
Back
Fore
SplineSet
392 749 m 1
 404 736 l 1
 284 641 l 1
 272 641 l 1
 152 736 l 1
 163 749 l 1
 278 665 l 1
 392 749 l 1
283 529 m 0
 339 529 379 514 418 479 c 1
 405 464 l 1
 372 493 335 509 284 509 c 0
 174 509 96 420 96 257 c 0
 96 95 175 11 283 11 c 0
 337 11 377 30 410 59 c 1
 423 44 l 1
 387 12 342 -10 284 -10 c 0
 159 -10 73 87 73 257 c 0
 73 426 156 529 283 529 c 0
EndSplineSet
Substitution2: "'smcp' Lowercase to Small Capitals lookup 27 subtable" ccaron.sc
Substitution2: "'aalt' Access All Alternates lookup 0 subtable" ccaron.sc
EndChar

StartChar: Dcaron
Encoding: 270 270 22
Width: 619
GlyphClass: 2
Flags: MW
HStem: 0 21<146 249> 660 21<146 146 146 243> 760 24<299 299 299 305 293 299>
VStem: 123 23<21 660 21 681 21 681> 518 24<215 482.5>
AnchorPoint: "Anchor-11" 0 0 basechar 0
AnchorPoint: "Anchor-10" 0 0 basechar 0
AnchorPoint: "Anchor-9" 295 681 basechar 0
AnchorPoint: "Anchor-8" 0 0 basechar 0
LayerCount: 2
Fore
SplineSet
425 850 m 1
 305 760 l 1
 293 760 l 1
 173 850 l 1
 184 863 l 1
 299 784 l 1
 413 863 l 1
 425 850 l 1
245 681 m 2
 390 681 542 627 542 348 c 0
 542 63 384 0 249 0 c 2
 123 0 l 1
 123 681 l 1
 245 681 l 2
146 660 m 1
 146 21 l 1
 250 21 l 2
 380 21 518 82 518 348 c 0
 518 617 376 660 243 660 c 2
 146 660 l 1
EndSplineSet
Substitution2: "'c2sc' Capitals to Small Capitals lookup 23 subtable" dcaron.sc
Substitution2: "'aalt' Access All Alternates lookup 0 subtable" dcaron.sc
Position2: "'cpsp' Capital Spacing lookup 0 subtable" dx=5 dy=0 dh=10 dv=0
EndChar

StartChar: dcaron
Encoding: 271 271 155
Width: 574
GlyphClass: 2
Flags: MW
HStem: -10 21<218.5 311 218.5 312.5> 0 21G<437 456 437 437> 509 20<226 318.5> 713 20G<456 456> 716 20G<434 434> 717 20G<552 552>
VStem: 78 23<179.5 258 179.5 338> 434 22<89 89 123 418 418 418 446 733 0 736 0 736>
LayerCount: 2
Fore
SplineSet
576 735 m 1xa7
 549 590 l 1
 534 593 l 1
 552 737 l 1
 576 735 l 1xa7
434 736 m 1xab
 456 733 l 1
 456 0 l 1
 437 0 l 1x73
 434 89 l 1
 404 36 356 -10 269 -10 c 0
 154 -10 78 89 78 258 c 0
 78 418 152 529 280 529 c 0
 361 529 407 487 434 446 c 1
 434 736 l 1xab
270 11 m 0xa7
 352 11 399 54 434 123 c 1
 434 418 l 1
 404 465 357 509 280 509 c 0
 172 509 100 413 101 258 c 1
 101 101 167 11 270 11 c 0xa7
EndSplineSet
Substitution2: "'smcp' Lowercase to Small Capitals lookup 24 subtable" dcaron.sc
Substitution2: "'aalt' Access All Alternates lookup 0 subtable" dcaron.sc
EndChar
StartChar: Dcroat
Encoding: 272 272 59
Width: 617
GlyphClass: 2
Flags: MW
HStem: 0 21<143 246> 341 22<26 120 26 120 143 335> 660 21<143 240 143 143>
VStem: 120 23<21 341 21 341 21 341 363 660> 516 23<215 482.5>
AnchorPoint: "Anchor-14" 312 341 basechar 0
AnchorPoint: "Anchor-13" 0 0 basechar 0
AnchorPoint: "Anchor-12" 292 681 basechar 0
AnchorPoint: "Anchor-11" 0 0 basechar 0
AnchorPoint: "Anchor-10" 300 0 basechar 0
LayerCount: 2
Back
Fore
SplineSet
242 681 m 2
 388 681 539 627 539 348 c 0
 539 63 382 0 246 0 c 2
 120 0 l 1
 120 341 l 1
 26 341 l 1
 26 363 l 1
 120 363 l 1
 120 681 l 1
 242 681 l 2
247 21 m 2
 378 21 516 82 516 348 c 0
 516 617 373 660 240 660 c 2
 143 660 l 1
 143 363 l 1
 335 363 l 1
 335 341 l 1
 143 341 l 1
 143 21 l 1
 247 21 l 2
EndSplineSet
Substitution2: "'c2sc' Capitals to Small Capitals lookup 26 subtable" dcroat.sc
Substitution2: "'aalt' Access All Alternates lookup 0 subtable" dcroat.sc
Position2: "'cpsp' Capital Spacing lookup 0 subtable" dx=5 dy=0 dh=10 dv=0
EndChar

StartChar: dcroat
Encoding: 273 273 156
Width: 579
GlyphClass: 2
Flags: MW
HStem: -10 21<218.5 311 218.5 312.5> 0 21G<437 456 437 437> 509 20<226 318.5> 629 20<264 434 264 264 456 531> 629 107<264 434 434 531 434 456> 713 20G<456 456>
VStem: 78 23<179.5 258 179.5 338> 434 22<89 89 123 418 418 418 446 629 0 629 649 733>
LayerCount: 2
Fore
SplineSet
531 649 m 1xb7
 531 629 l 1
 456 629 l 1
 456 0 l 1
 437 0 l 1x77
 434 89 l 1
 404 36 356 -10 269 -10 c 0
 154 -10 78 89 78 258 c 0
 78 418 152 529 280 529 c 0
 361 529 407 487 434 446 c 1
 434 629 l 1
 264 629 l 1
 261 649 l 1
 434 649 l 1xb7
 434 736 l 1xab
 456 733 l 1
 456 649 l 1
 531 649 l 1xb7
270 11 m 0xb7
 352 11 399 54 434 123 c 1
 434 418 l 1
 404 465 357 509 280 509 c 0
 172 509 100 413 101 258 c 1
 101 101 167 11 270 11 c 0xb7
EndSplineSet
Substitution2: "'smcp' Lowercase to Small Capitals lookup 24 subtable" dcroat.sc
Substitution2: "'aalt' Access All Alternates lookup 0 subtable" dcroat.sc
EndChar
StartChar: Emacron
Encoding: 274 274 85
Width: 494
GlyphClass: 2
Flags: MW
HStem: 0 21<146 451 146 451> 349 21<146 400 146 400> 660 21<146 441 146 146> 811 21<183 390 183 390>
VStem: 123 23<21 349 370 660>
AnchorPoint: "Anchor-14" 0 0 basechar 0
AnchorPoint: "Anchor-13" 0 0 basechar 0
AnchorPoint: "Anchor-12" 289 832 basechar 0
AnchorPoint: "Anchor-11" 434 0 basechar 0
AnchorPoint: "Anchor-10" 283 0 basechar 0
LayerCount: 2
Back
Fore
SplineSet
390 811 m 1
 183 811 l 1
 183 832 l 1
 390 832 l 1
 390 811 l 1
444 681 m 1
 441 660 l 1
 146 660 l 1
 146 370 l 1
 400 370 l 1
 400 349 l 1
 146 349 l 1
 146 21 l 1
 451 21 l 1
 451 0 l 1
 123 0 l 1
 123 681 l 1
 444 681 l 1
EndSplineSet
Substitution2: "'c2sc' Capitals to Small Capitals lookup 26 subtable" emacron.sc
Substitution2: "'aalt' Access All Alternates lookup 0 subtable" emacron.sc
Position2: "'cpsp' Capital Spacing lookup 0 subtable" dx=5 dy=0 dh=10 dv=0
EndChar

StartChar: Ebreve
Encoding: 276 276 26
Width: 494
GlyphClass: 2
Flags: MW
HStem: 0 21<146 451 146 451> 349 21<146 400 146 400> 660 21<146 441 146 146> 772 20<262.5 311.5 262.5 315.5>
VStem: 123 23<21 349 370 660>
AnchorPoint: "Anchor-11" 283 0 basechar 0
AnchorPoint: "Anchor-10" 87 681 basechar 0
AnchorPoint: "Anchor-9" 287 681 basechar 0
AnchorPoint: "Anchor-8" 434 0 basechar 0
LayerCount: 2
Fore
SplineSet
287 772 m 0
 231 772 190 806 180 847 c 1
 195 850 l 1
 206 818 238 792 287 792 c 0
 336 792 368 818 380 850 c 1
 395 847 l 1
 385 806 344 772 287 772 c 0
441 660 m 1
 146 660 l 1
 146 370 l 1
 400 370 l 1
 400 349 l 1
 146 349 l 1
 146 21 l 1
 451 21 l 1
 451 0 l 1
 123 0 l 1
 123 681 l 1
 444 681 l 1
 441 660 l 1
EndSplineSet
Substitution2: "'c2sc' Capitals to Small Capitals lookup 23 subtable" ebreve.sc
Substitution2: "'aalt' Access All Alternates lookup 0 subtable" ebreve.sc
Position2: "'cpsp' Capital Spacing lookup 0 subtable" dx=5 dy=0 dh=10 dv=0
EndChar

StartChar: Edotaccent
Encoding: 278 278 30
Width: 494
GlyphClass: 2
Flags: MW
HStem: 0 21<146 451 146 451> 349 21<146 400 146 400> 660 21<146 441 146 146> 811 39<281 294>
VStem: 123 23<21 349 370 660> 287 21
AnchorPoint: "Anchor-11" 283 0 basechar 0
AnchorPoint: "Anchor-10" 87 681 basechar 0
AnchorPoint: "Anchor-9" 287 681 basechar 0
AnchorPoint: "Anchor-8" 434 0 basechar 0
LayerCount: 2
Fore
SplineSet
287 850 m 0
 301 850 308 840 308 830 c 0
 308 820 301 811 287 811 c 0
 275 811 267 820 267 830 c 0
 267 840 275 850 287 850 c 0
441 660 m 1
 146 660 l 1
 146 370 l 1
 400 370 l 1
 400 349 l 1
 146 349 l 1
 146 21 l 1
 451 21 l 1
 451 0 l 1
 123 0 l 1
 123 681 l 1
 444 681 l 1
 441 660 l 1
EndSplineSet
Substitution2: "'c2sc' Capitals to Small Capitals lookup 23 subtable" edotaccent.sc
Substitution2: "'aalt' Access All Alternates lookup 0 subtable" edotaccent.sc
Position2: "'cpsp' Capital Spacing lookup 0 subtable" dx=5 dy=0 dh=10 dv=0
EndChar
StartChar: edotaccent
Encoding: 279 279 423
Width: 529
GlyphClass: 2
Flags: MW
HStem: -10 21<227.5 311 227.5 313.5> 246 19<96 439 96 459 96 439> 509 20<224.5 331> 685 19
VStem: 73 23<246 246 246 265 246 340.5> 254 41<699 709> 439 22<277 292 292 355>
AnchorPoint: "Anchor-14" 0 0 basechar 0
AnchorPoint: "Anchor-13" 0 0 basechar 0
AnchorPoint: "Anchor-12" 274 662 basechar 0
AnchorPoint: "Anchor-11" 372 5 basechar 0
AnchorPoint: "Anchor-10" 283 0 basechar 0
LayerCount: 2
Back
Fore
SplineSet
274 685 m 0
 262 685 254 694 254 704 c 0
 254 714 262 724 274 724 c 0
 288 724 295 714 295 704 c 0
 295 694 288 685 274 685 c 0
461 284 m 0
 461 270 460 257 459 246 c 1
 96 246 l 1
 100 87 175 11 280 11 c 0
 342 11 382 31 427 68 c 1
 439 51 l 1
 394 13 347 -10 280 -10 c 0
 154 -10 73 87 73 255 c 0
 73 426 152 529 272 529 c 0
 400 529 461 429 461 284 c 0
439 265 m 1
 439 292 l 2
 439 418 388 509 274 509 c 0
 175 509 99 430 96 265 c 1
 439 265 l 1
EndSplineSet
Substitution2: "'smcp' Lowercase to Small Capitals lookup 27 subtable" edotaccent.sc
Substitution2: "'aalt' Access All Alternates lookup 0 subtable" edotaccent.sc
EndChar
StartChar: Eogonek
Encoding: 280 280 86
Width: 494
GlyphClass: 2
Flags: MW
HStem: -203 22<347 378.5> -196 21G<423 423> 0 21<146 387 425 451 425 425> 349 21<146 400 146 400> 660 21<146 441 146 146>
VStem: 123 23<21 21 21 349 370 660> 276 24<-139.5 -94.5>
AnchorPoint: "Anchor-14" 0 0 basechar 0
AnchorPoint: "Anchor-13" 0 0 basechar 0
AnchorPoint: "Anchor-12" 287 681 basechar 0
AnchorPoint: "Anchor-11" 434 0 basechar 0
AnchorPoint: "Anchor-10" 283 0 basechar 0
LayerCount: 2
Back
Fore
SplineSet
146 21 m 1xbe
 451 21 l 1
 451 0 l 1
 425 0 l 1
 354 -31 300 -63 300 -121 c 0
 300 -158 324 -181 370 -181 c 0xbe
 388 -181 404 -179 425 -174 c 1x7e
 423 -196 l 1
 402 -201 388 -203 369 -203 c 0
 306 -203 276 -169 276 -121 c 0
 276 -68 320 -31 387 0 c 1
 123 0 l 1
 123 681 l 1
 444 681 l 1
 441 660 l 1
 146 660 l 1
 146 370 l 1
 400 370 l 1
 400 349 l 1
 146 349 l 1
 146 21 l 1xbe
EndSplineSet
Substitution2: "'c2sc' Capitals to Small Capitals lookup 26 subtable" eogonek.sc
Substitution2: "'aalt' Access All Alternates lookup 0 subtable" eogonek.sc
Position2: "'cpsp' Capital Spacing lookup 0 subtable" dx=5 dy=0 dh=10 dv=0
EndChar

StartChar: eogonek
Encoding: 281 281 166
Width: 529
GlyphClass: 2
Flags: MW
HStem: -198 22<286 315.5> -191 21G<360 360> -10 21<227.5 280> 246 19<96 439 96 459 96 439> 509 20<224.5 331>
VStem: 73 23<246 246 246 265 246 340.5> 213 24<-134.5 -93> 439 22<277 292 292 355>
AnchorPoint: "Anchor-11" 283 0 basechar 0
AnchorPoint: "Anchor-10" 0 0 basechar 0
AnchorPoint: "Anchor-9" 275 519 basechar 0
AnchorPoint: "Anchor-8" 372 5 basechar 0
LayerCount: 2
Fore
SplineSet
461 284 m 0xbf
 461 270 460 257 459 246 c 1
 96 246 l 1
 101 87 175 11 280 11 c 0
 342 11 382 31 427 68 c 1
 439 51 l 1
 412 28 384 11 352 0 c 1
 286 -29 237 -61 237 -116 c 0
 237 -153 263 -176 309 -176 c 0xbf
 327 -176 341 -174 362 -169 c 1x7f
 360 -191 l 1
 339 -196 325 -198 306 -198 c 0
 243 -198 213 -164 213 -116 c 0
 213 -70 245 -37 299 -9 c 1
 280 -10 l 1
 154 -10 73 87 73 255 c 0
 73 426 152 529 272 529 c 0
 400 529 461 429 461 284 c 0xbf
439 265 m 1
 439 292 l 2
 439 418 388 509 274 509 c 0
 175 509 99 430 96 265 c 1
 439 265 l 1
EndSplineSet
Substitution2: "'smcp' Lowercase to Small Capitals lookup 24 subtable" eogonek.sc
Substitution2: "'aalt' Access All Alternates lookup 0 subtable" eogonek.sc
EndChar

StartChar: Ecaron
Encoding: 282 282 27
Width: 494
GlyphClass: 2
Flags: MW
HStem: 0 21<146 451 146 451> 349 21<146 400 146 400> 660 21<146 441 146 146> 760 24<291 291 291 297 285 291>
VStem: 123 23<21 349 370 660>
AnchorPoint: "Anchor-11" 283 0 basechar 0
AnchorPoint: "Anchor-10" 87 681 basechar 0
AnchorPoint: "Anchor-9" 287 681 basechar 0
AnchorPoint: "Anchor-8" 434 0 basechar 0
LayerCount: 2
Fore
SplineSet
417 850 m 1
 297 760 l 1
 285 760 l 1
 165 850 l 1
 176 863 l 1
 291 784 l 1
 405 863 l 1
 417 850 l 1
441 660 m 1
 146 660 l 1
 146 370 l 1
 400 370 l 1
 400 349 l 1
 146 349 l 1
 146 21 l 1
 451 21 l 1
 451 0 l 1
 123 0 l 1
 123 681 l 1
 444 681 l 1
 441 660 l 1
EndSplineSet
Substitution2: "'c2sc' Capitals to Small Capitals lookup 23 subtable" ecaron.sc
Substitution2: "'aalt' Access All Alternates lookup 0 subtable" ecaron.sc
Position2: "'cpsp' Capital Spacing lookup 0 subtable" dx=5 dy=0 dh=10 dv=0
EndChar

StartChar: ecaron
Encoding: 283 283 160
Width: 529
GlyphClass: 2
Flags: MW
HStem: -10 21<227.5 311 227.5 313.5> 246 19<96 439 96 459 96 439> 509 20<224.5 331> 643 24<273 279 279 279 279 285> 718 20G<153 153 405 405>
VStem: 73 23<246 246 246 265 246 340.5> 439 22<277 292 292 355>
AnchorPoint: "Anchor-11" 283 0 basechar 0
AnchorPoint: "Anchor-10" 0 0 basechar 0
AnchorPoint: "Anchor-9" 275 519 basechar 0
AnchorPoint: "Anchor-8" 372 5 basechar 0
LayerCount: 2
Fore
SplineSet
273 643 m 1
 153 738 l 1
 164 751 l 1
 279 667 l 1
 393 751 l 1
 405 738 l 1
 285 643 l 1
 273 643 l 1
461 284 m 0
 461 270 460 257 459 246 c 1
 96 246 l 1
 101 87 175 11 280 11 c 0
 342 11 382 31 427 68 c 1
 439 51 l 1
 394 13 347 -10 280 -10 c 0
 154 -10 73 87 73 255 c 0
 73 426 152 529 272 529 c 0
 400 529 461 429 461 284 c 0
439 265 m 1
 439 292 l 2
 439 418 388 509 274 509 c 0
 175 509 99 430 96 265 c 1
 439 265 l 1
EndSplineSet
Substitution2: "'smcp' Lowercase to Small Capitals lookup 24 subtable" ecaron.sc
Substitution2: "'aalt' Access All Alternates lookup 0 subtable" ecaron.sc
EndChar

StartChar: Gcircumflex
Encoding: 284 284 37
Width: 605
GlyphClass: 2
Flags: MW
HStem: -10 22<277.5 385.5> 333 21<365 510 365 365> 670 21<288 378> 845 24<345 345>
VStem: 78 23<233.5 460.5 233.5 464> 510 23<53 333 333 333>
AnchorPoint: "Anchor-11" 337 0 basechar 0
AnchorPoint: "Anchor-10" 0 0 basechar 0
AnchorPoint: "Anchor-9" 346 681 basechar 0
AnchorPoint: "Anchor-8" 0 0 basechar 0
LayerCount: 2
Fore
SplineSet
345 845 m 1
 230 766 l 1
 219 780 l 1
 339 869 l 1
 351 869 l 1
 471 780 l 1
 459 766 l 1
 345 845 l 1
347 691 m 0
 417 691 465 672 516 632 c 1
 503 617 l 1
 455 653 409 670 347 670 c 0
 229 670 101 576 101 345 c 0
 101 122 202 12 353 12 c 0
 420 12 467 28 510 53 c 1
 510 333 l 1
 365 333 l 1
 362 354 l 1
 533 354 l 1
 533 41 l 1
 480 10 418 -10 353 -10 c 0
 189 -10 78 110 78 345 c 0
 78 583 216 691 347 691 c 0
EndSplineSet
Substitution2: "'c2sc' Capitals to Small Capitals lookup 23 subtable" gcircumflex.sc
Substitution2: "'aalt' Access All Alternates lookup 0 subtable" gcircumflex.sc
Position2: "'cpsp' Capital Spacing lookup 0 subtable" dx=5 dy=0 dh=10 dv=0
EndChar
StartChar: Gbreve
Encoding: 286 286 101
Width: 605
GlyphClass: 2
Flags: MW
HStem: -10 22<277.5 385.5> 333 21<365 510 365 365> 670 21<288 378> 771 21<321.5 368.5 321.5 374.5>
VStem: 78 23<233.5 460.5 233.5 464> 510 23<53 333 333 333>
AnchorPoint: "Anchor-14" 0 0 basechar 0
AnchorPoint: "Anchor-13" 0 0 basechar 0
AnchorPoint: "Anchor-12" 347 851 basechar 0
AnchorPoint: "Anchor-11" 0 0 basechar 0
AnchorPoint: "Anchor-10" 337 0 basechar 0
LayerCount: 2
Back
Fore
SplineSet
345 771 m 0
 287 771 247 807 237 847 c 1
 253 851 l 1
 266 817 298 792 345 792 c 0
 392 792 425 817 437 851 c 1
 453 847 l 1
 444 807 404 771 345 771 c 0
347 691 m 0
 417 691 465 672 516 632 c 1
 503 617 l 1
 455 653 409 670 347 670 c 0
 229 670 101 576 101 345 c 0
 101 122 202 12 353 12 c 0
 420 12 467 28 510 53 c 1
 510 333 l 1
 365 333 l 1
 362 354 l 1
 533 354 l 1
 533 41 l 1
 480 10 418 -10 353 -10 c 0
 189 -10 78 110 78 345 c 0
 78 583 216 691 347 691 c 0
EndSplineSet
Substitution2: "'c2sc' Capitals to Small Capitals lookup 26 subtable" gbreve.sc
Substitution2: "'aalt' Access All Alternates lookup 0 subtable" gbreve.sc
Position2: "'cpsp' Capital Spacing lookup 0 subtable" dx=5 dy=0 dh=10 dv=0
EndChar
StartChar: Hbar
Encoding: 294 294 110
Width: 664
GlyphClass: 2
Flags: MW
HStem: 0 21G<125 148 125 125 516 539 516 516> 349 22<148 516 148 516> 520 18<65 125 65 125 148 516 539 599> 520 161<65 148 65 148 125 148 125 516>
VStem: 125 23<0 349 0 371 371 520 538 681> 516 23<0 349 349 349 371 520 0 520 538 681>
AnchorPoint: "Anchor-14" 330 341 basechar 0
AnchorPoint: "Anchor-13" 0 0 basechar 0
AnchorPoint: "Anchor-12" 330 681 basechar 0
AnchorPoint: "Anchor-11" 0 0 basechar 0
AnchorPoint: "Anchor-10" 332 0 basechar 0
LayerCount: 2
Back
Fore
SplineSet
599 538 m 1xec
 599 520 l 1
 539 520 l 1
 539 0 l 1
 516 0 l 1
 516 349 l 1
 148 349 l 1
 148 0 l 1
 125 0 l 1
 125 520 l 1
 65 520 l 1
 65 538 l 1
 125 538 l 1xec
 125 681 l 1
 148 681 l 1xdc
 148 538 l 1
 516 538 l 1xec
 516 681 l 1
 539 681 l 1xdc
 539 538 l 1
 599 538 l 1xec
516 371 m 1
 516 520 l 1
 148 520 l 1
 148 371 l 1
 516 371 l 1
EndSplineSet
Substitution2: "'c2sc' Capitals to Small Capitals lookup 26 subtable" hbar.sc
Substitution2: "'aalt' Access All Alternates lookup 0 subtable" hbar.sc
Position2: "'cpsp' Capital Spacing lookup 0 subtable" dx=5 dy=0 dh=10 dv=0
EndChar
StartChar: Itilde
Encoding: 296 296 136
Width: 268
GlyphClass: 2
Flags: MW
HStem: 0 21G<123 146 123 123> 661 20G<123 146 146 146> 804 20<171.5 203.5 171.5 206.5> 847 20<63 92>
VStem: 123 23<0 681 0 681>
AnchorPoint: "Anchor-14" 0 0 basechar 0
AnchorPoint: "Anchor-13" 0 0 basechar 0
AnchorPoint: "Anchor-12" 136 867 basechar 0
AnchorPoint: "Anchor-11" 156 0 basechar 0
AnchorPoint: "Anchor-10" 135 0 basechar 0
LayerCount: 2
Back
Fore
SplineSet
192 804 m 0
 144 804 109 847 75 847 c 0
 51 847 36 837 15 812 c 1
 1 821 l 1
 23 851 45 867 75 867 c 0xf8
 114 867 151 824 192 824 c 0
 215 824 230 835 251 865 c 1
 265 857 l 1
 244 819 221 804 192 804 c 0
146 681 m 1
 146 0 l 1
 123 0 l 1
 123 681 l 1
 146 681 l 1
EndSplineSet
Substitution2: "'c2sc' Capitals to Small Capitals lookup 26 subtable" itilde.sc
Substitution2: "'aalt' Access All Alternates lookup 0 subtable" itilde.sc
Position2: "'cpsp' Capital Spacing lookup 0 subtable" dx=5 dy=0 dh=10 dv=0
EndChar

StartChar: itilde
Encoding: 297 297 187
Width: 258
GlyphClass: 2
Flags: MW
HStem: 0 21G<118 140 118 118> 499 20G<118 140 140 140> 679 18<168 200 168 203.5> 711 20G<261 261> 722 19<57 89>
VStem: 118 22<0 519>
AnchorPoint: "Anchor-11" 0 0 basechar 0
AnchorPoint: "Anchor-10" 0 0 basechar 0
AnchorPoint: "Anchor-9" 129 519 basechar 0
AnchorPoint: "Anchor-8" 150 0 basechar 0
LayerCount: 2
Fore
SplineSet
191 679 m 0xf4
 139 679 106 722 72 722 c 0
 42 722 31 712 11 687 c 1
 -2 694 l 1
 19 724 40 741 72 741 c 0xcc
 109 741 147 697 189 697 c 0xec
 211 697 226 708 248 739 c 1xcc
 261 731 l 1
 239 693 216 679 191 679 c 0xf4
140 0 m 1xcc
 118 0 l 1
 118 519 l 1
 140 519 l 1
 140 0 l 1xcc
EndSplineSet
Substitution2: "'smcp' Lowercase to Small Capitals lookup 24 subtable" itilde.sc
Substitution2: "'aalt' Access All Alternates lookup 0 subtable" itilde.sc
EndChar

StartChar: Ibreve
Encoding: 300 300 46
Width: 268
GlyphClass: 2
Flags: MW
HStem: 0 21G<123 146 123 123> 661 20G<123 146 146 146> 772 20<109.5 158.5 109.5 162.5>
VStem: 123 23<0 681>
AnchorPoint: "Anchor-11" 0 0 basechar 0
AnchorPoint: "Anchor-10" 87 681 basechar 0
AnchorPoint: "Anchor-9" 134 681 basechar 0
AnchorPoint: "Anchor-8" 156 0 basechar 0
LayerCount: 2
Fore
SplineSet
134 772 m 0
 78 772 37 806 27 847 c 1
 42 850 l 1
 53 818 85 792 134 792 c 0
 183 792 215 818 227 850 c 1
 242 847 l 1
 232 806 191 772 134 772 c 0
146 0 m 1
 123 0 l 1
 123 681 l 1
 146 681 l 1
 146 0 l 1
EndSplineSet
Substitution2: "'c2sc' Capitals to Small Capitals lookup 23 subtable" ibreve.sc
Substitution2: "'aalt' Access All Alternates lookup 0 subtable" ibreve.sc
Position2: "'cpsp' Capital Spacing lookup 0 subtable" dx=5 dy=0 dh=10 dv=0
EndChar
StartChar: ibreve
Encoding: 301 301 481
Width: 258
GlyphClass: 2
Flags: MW
HStem: 0 21G<118 140 118 118> 499 20G<118 140 140 140> 662 22<105.5 152.5 105.5 158.5>
VStem: 118 22<0 519 0 519>
AnchorPoint: "Anchor-14" 0 0 basechar 0
AnchorPoint: "Anchor-13" 0 0 basechar 0
AnchorPoint: "Anchor-12" 131 752 basechar 0
AnchorPoint: "Anchor-11" 150 0 basechar 0
AnchorPoint: "Anchor-10" 129 0 basechar 0
LayerCount: 2
Back
Fore
SplineSet
129 662 m 0
 71 662 31 699 21 748 c 1
 37 752 l 1
 50 708 82 684 129 684 c 0
 176 684 209 708 221 752 c 1
 237 748 l 1
 228 699 188 662 129 662 c 0
140 519 m 1
 140 0 l 1
 118 0 l 1
 118 519 l 1
 140 519 l 1
EndSplineSet
Substitution2: "'smcp' Lowercase to Small Capitals lookup 27 subtable" ibreve.sc
Substitution2: "'aalt' Access All Alternates lookup 0 subtable" ibreve.sc
EndChar

StartChar: Iogonek
Encoding: 302 302 52
Width: 268
GlyphClass: 2
Flags: MW
HStem: -203 22<70 99.5> -196 21G<144 144> 0 21G<146 146> 661 20G<123 146 146 146>
VStem: -3 24<-139.5 -92.5> 123 23<7 681>
AnchorPoint: "Anchor-11" 0 0 basechar 0
AnchorPoint: "Anchor-10" 87 681 basechar 0
AnchorPoint: "Anchor-9" 134 681 basechar 0
AnchorPoint: "Anchor-8" 156 0 basechar 0
LayerCount: 2
Fore
SplineSet
146 0 m 1xbc
 75 -31 21 -63 21 -121 c 0
 21 -158 47 -181 93 -181 c 0xbc
 111 -181 125 -179 146 -174 c 1x7c
 144 -196 l 1
 123 -201 109 -203 90 -203 c 0
 27 -203 -3 -169 -3 -121 c 0
 -3 -64 47 -26 123 7 c 1
 123 681 l 1
 146 681 l 1
 146 0 l 1xbc
EndSplineSet
Substitution2: "'c2sc' Capitals to Small Capitals lookup 23 subtable" iogonek.sc
Substitution2: "'aalt' Access All Alternates lookup 0 subtable" iogonek.sc
Position2: "'cpsp' Capital Spacing lookup 0 subtable" dx=5 dy=0 dh=10 dv=0
EndChar
StartChar: iogonek
Encoding: 303 303 494
Width: 258
GlyphClass: 2
Flags: MW
HStem: -203 22<62 93.5> -196 21G<138 138> 0 21G<140 140> 499 20G<118 140 140 140> 685 39<123 136>
VStem: -9 24<-139.5 -92 -139.5 -92> 118 22<7 519> 129 21
AnchorPoint: "Anchor-14" 0 0 basechar 0
AnchorPoint: "Anchor-13" 0 0 basechar 0
AnchorPoint: "Anchor-12" 129 662 basechar 0
AnchorPoint: "Anchor-11" 150 0 basechar 0
AnchorPoint: "Anchor-10" 129 0 basechar 0
LayerCount: 2
Back
Fore
SplineSet
129 724 m 0xbd
 143 724 150 714 150 704 c 0
 150 694 143 685 129 685 c 0
 117 685 109 694 109 704 c 0
 109 714 117 724 129 724 c 0xbd
140 0 m 1xbe
 69 -31 15 -63 15 -121 c 0
 15 -158 39 -181 85 -181 c 0xbe
 103 -181 119 -179 140 -174 c 1x7e
 138 -196 l 1
 117 -201 103 -203 84 -203 c 0
 21 -203 -9 -169 -9 -121 c 0
 -9 -63 42 -26 118 7 c 1
 118 519 l 1
 140 519 l 1
 140 0 l 1xbe
EndSplineSet
Substitution2: "'smcp' Lowercase to Small Capitals lookup 27 subtable" iogonek.sc
Substitution2: "'aalt' Access All Alternates lookup 0 subtable" iogonek.sc
EndChar

StartChar: Idotaccent
Encoding: 304 304 49
Width: 268
GlyphClass: 2
Flags: MW
HStem: 0 21G<123 146 123 123> 661 20G<123 146 146 146> 811 39<128 141>
VStem: 123 23<0 681> 134 21
AnchorPoint: "Anchor-11" 0 0 basechar 0
AnchorPoint: "Anchor-10" 87 681 basechar 0
AnchorPoint: "Anchor-9" 134 681 basechar 0
AnchorPoint: "Anchor-8" 156 0 basechar 0
LayerCount: 2
Fore
SplineSet
134 850 m 0xe8
 148 850 155 840 155 830 c 0
 155 820 148 811 134 811 c 0
 122 811 114 820 114 830 c 0
 114 840 122 850 134 850 c 0xe8
146 0 m 1xf0
 123 0 l 1
 123 681 l 1
 146 681 l 1
 146 0 l 1xf0
EndSplineSet
Substitution2: "'c2sc' Capitals to Small Capitals lookup 23 subtable" i.sc.loclTRK
Substitution2: "'aalt' Access All Alternates lookup 0 subtable" i.sc.loclTRK
Position2: "'cpsp' Capital Spacing lookup 0 subtable" dx=5 dy=0 dh=10 dv=0
EndChar
StartChar: dotlessi
Encoding: 305 305 479
Width: 258
GlyphClass: 2
Flags: MW
HStem: 0 21G<118 140 118 118> 499 20G<118 140 140 140>
VStem: 118 22<0 519 0 519>
AnchorPoint: "Anchor-14" 0 0 basechar 0
AnchorPoint: "Anchor-13" 0 0 basechar 0
AnchorPoint: "Anchor-12" 129 519 basechar 0
AnchorPoint: "Anchor-11" 150 0 basechar 0
AnchorPoint: "Anchor-10" 129 0 basechar 0
LayerCount: 2
Back
Fore
SplineSet
140 519 m 1
 140 0 l 1
 118 0 l 1
 118 519 l 1
 140 519 l 1
EndSplineSet
Substitution2: "'smcp' Lowercase to Small Capitals lookup 27 subtable" dotlessi.sc
Substitution2: "'aalt' Access All Alternates lookup 0 subtable" dotlessi.sc
EndChar

StartChar: IJ
Encoding: 306 306 44
Width: 546
GlyphClass: 2
Flags: MW
HStem: 0 21G<123 146 123 123> 661 20G<123 146 146 146 406 429 429 429>
VStem: 123 23<0 681> 406 23<89 681>
AnchorPoint: "Anchor-11" 0 0 basechar 0
AnchorPoint: "Anchor-10" 87 681 basechar 0
AnchorPoint: "Anchor-9" 416 681 basechar 0
AnchorPoint: "Anchor-8" 156 0 basechar 0
LayerCount: 2
Fore
SplineSet
146 0 m 1
 123 0 l 1
 123 681 l 1
 146 681 l 1
 146 0 l 1
429 87 m 2
 429 -13 406 -53 298 -100 c 1
 291 -83 l 1
 384 -40 406 -4 406 89 c 2
 406 681 l 1
 429 681 l 1
 429 87 l 2
EndSplineSet
Substitution2: "'c2sc' Capitals to Small Capitals lookup 23 subtable" ij.sc
Substitution2: "'aalt' Access All Alternates lookup 0 subtable" ij.sc
Position2: "'cpsp' Capital Spacing lookup 0 subtable" dx=5 dy=0 dh=10 dv=0
EndChar
StartChar: ij
Encoding: 307 307 492
Width: 516
GlyphClass: 2
Flags: MW
HStem: -195 21G<286 286> 0 21G<118 140 118 118> 499 20G<118 140 140 140 377 399 399 399> 685 39<123 136 381 394>
VStem: 118 22<0 519 0 519> 129 21 377 22<7 519> 387 21
AnchorPoint: "Anchor-14" 0 0 basechar 0
AnchorPoint: "Anchor-13" 0 0 basechar 0
AnchorPoint: "Anchor-12" 387 662 basechar 0
AnchorPoint: "Anchor-11" 150 0 basechar 0
AnchorPoint: "Anchor-10" 388 -192 basechar 0
LayerCount: 2
Back
Fore
SplineSet
129 724 m 0xf5
 143 724 150 714 150 704 c 0
 150 694 143 685 129 685 c 0
 117 685 109 694 109 704 c 0
 109 714 117 724 129 724 c 0xf5
387 724 m 0
 401 724 408 714 408 704 c 0
 408 694 401 685 387 685 c 0
 375 685 367 694 367 704 c 0
 367 714 375 724 387 724 c 0
140 519 m 1xfa
 140 0 l 1
 118 0 l 1
 118 519 l 1
 140 519 l 1xfa
399 519 m 1
 399 6 l 2
 399 -122 363 -155 286 -195 c 1
 280 -178 l 1
 348 -142 377 -111 377 7 c 2
 377 519 l 1
 399 519 l 1
EndSplineSet
Substitution2: "'smcp' Lowercase to Small Capitals lookup 27 subtable" ij.sc
Substitution2: "'aalt' Access All Alternates lookup 0 subtable" ij.sc
EndChar
StartChar: Jcircumflex
Encoding: 308 308 138
Width: 277
GlyphClass: 2
Flags: MW
HStem: 661 20G<138 161 161 161> 845 24<148 148>
VStem: 138 23<89 681>
AnchorPoint: "Anchor-14" 0 0 basechar 0
AnchorPoint: "Anchor-13" 228 721 basechar 0
AnchorPoint: "Anchor-12" 147 869 basechar 0
AnchorPoint: "Anchor-11" 0 0 basechar 0
AnchorPoint: "Anchor-10" 0 0 basechar 0
LayerCount: 2
Back
Fore
SplineSet
262 766 m 1
 148 845 l 1
 33 766 l 1
 22 780 l 1
 142 869 l 1
 154 869 l 1
 274 780 l 1
 262 766 l 1
161 681 m 1
 161 87 l 2
 161 -13 138 -53 30 -100 c 1
 23 -83 l 1
 116 -40 138 -4 138 89 c 2
 138 681 l 1
 161 681 l 1
EndSplineSet
Substitution2: "'c2sc' Capitals to Small Capitals lookup 26 subtable" jcircumflex.sc
Substitution2: "'aalt' Access All Alternates lookup 0 subtable" jcircumflex.sc
Position2: "'cpsp' Capital Spacing lookup 0 subtable" dx=5 dy=0 dh=10 dv=0
EndChar

StartChar: jcircumflex
Encoding: 309 309 190
Width: 258
GlyphClass: 2
Flags: MW
HStem: -195 21G<28 28> 499 20G<119 141 141 141> 738 24<132 132>
VStem: 119 22<7 519>
AnchorPoint: "Anchor-11" 0 0 basechar 0
AnchorPoint: "Anchor-10" 0 0 basechar 0
AnchorPoint: "Anchor-9" 129 519 basechar 0
AnchorPoint: "Anchor-8" 0 0 basechar 0
LayerCount: 2
Fore
SplineSet
6 667 m 1
 126 762 l 1
 138 762 l 1
 258 667 l 1
 246 654 l 1
 132 738 l 1
 17 654 l 1
 6 667 l 1
141 6 m 2
 141 -122 105 -155 28 -195 c 1
 22 -178 l 1
 90 -142 119 -111 119 7 c 2
 119 519 l 1
 141 519 l 1
 141 6 l 2
EndSplineSet
Substitution2: "'smcp' Lowercase to Small Capitals lookup 24 subtable" jcircumflex.sc
Substitution2: "'aalt' Access All Alternates lookup 0 subtable" jcircumflex.sc
EndChar

StartChar: Kcommaaccent
Encoding: 310 310 57
Width: 510
GlyphClass: 2
Flags: MW
HStem: 0 21G<123 146 123 123 478 478 478 506> 661 20G<123 146 146 146 463 490 490 490>
VStem: 123 23<0 681> 271 49<-125 -112.5>
AnchorPoint: "Anchor-11" 295 0 basechar 0
AnchorPoint: "Anchor-10" 0 0 basechar 0
AnchorPoint: "Anchor-9" 288 681 basechar 0
AnchorPoint: "Anchor-8" 0 0 basechar 0
LayerCount: 2
Fore
SplineSet
146 0 m 1
 123 0 l 1
 123 681 l 1
 146 681 l 1
 146 0 l 1
178 367 m 1
 506 0 l 1
 478 0 l 1
 149 367 l 1
 463 681 l 1
 490 681 l 1
 178 367 l 1
295 -96 m 0
 312 -96 320 -106 320 -119 c 0
 320 -131 317 -139 307 -162 c 1
 272 -258 l 1
 256 -258 l 1
 287 -142 l 1
 275 -138 271 -131 271 -119 c 0
 271 -106 280 -96 295 -96 c 0
EndSplineSet
Substitution2: "'c2sc' Capitals to Small Capitals lookup 23 subtable" kcommaaccent.sc
Substitution2: "'aalt' Access All Alternates lookup 0 subtable" kcommaaccent.sc
Position2: "'cpsp' Capital Spacing lookup 0 subtable" dx=5 dy=0 dh=10 dv=0
EndChar

StartChar: kcommaaccent
Encoding: 311 311 192
Width: 463
GlyphClass: 2
Flags: MW
HStem: 0 21G<118 140 118 118 418 418 418 445> 499 20G<392 420 420 420> 713 20G<118 118> 716 20G<140 140>
VStem: 118 22<0 733 733 733> 246 49<-125 -112.5>
AnchorPoint: "Anchor-11" 268 0 basechar 0
AnchorPoint: "Anchor-10" 0 0 basechar 0
AnchorPoint: "Anchor-9" 0 0 basechar 0
AnchorPoint: "Anchor-8" 0 0 basechar 0
LayerCount: 2
Fore
SplineSet
140 0 m 1xd8
 118 0 l 1
 118 733 l 1xec
 140 736 l 1
 140 0 l 1xd8
174 284 m 1
 445 0 l 1
 418 0 l 1
 146 284 l 1
 392 519 l 1
 420 519 l 1
 174 284 l 1
270 -96 m 0
 287 -96 295 -106 295 -119 c 0
 295 -131 292 -139 282 -162 c 1
 247 -258 l 1
 231 -258 l 1
 262 -142 l 1
 250 -138 246 -131 246 -119 c 0
 246 -106 255 -96 270 -96 c 0
EndSplineSet
Substitution2: "'smcp' Lowercase to Small Capitals lookup 24 subtable" kcommaaccent.sc
Substitution2: "'aalt' Access All Alternates lookup 0 subtable" kcommaaccent.sc
EndChar
StartChar: kgreenlandic
Encoding: 312 312 509
Width: 462
GlyphClass: 2
Flags: MW
HStem: 0 21G<118 140 118 118 417 417 417 445> 499 20G<118 140 140 140 392 420 420 420>
VStem: 118 22<0 519 0 519>
LayerCount: 2
Back
Fore
SplineSet
140 519 m 1
 140 0 l 1
 118 0 l 1
 118 519 l 1
 140 519 l 1
420 519 m 1
 173 274 l 1
 445 0 l 1
 417 0 l 1
 145 274 l 1
 392 519 l 1
 420 519 l 1
EndSplineSet
Substitution2: "'smcp' Lowercase to Small Capitals lookup 27 subtable" kgreenlandic.sc
Substitution2: "'aalt' Access All Alternates lookup 0 subtable" kgreenlandic.sc
EndChar
StartChar: Lacute
Encoding: 313 313 146
Width: 456
GlyphClass: 2
Flags: MW
HStem: 0 22<146 430> 661 20G<123 146 146 146>
VStem: 123 23<22 681 22 681 22 681>
AnchorPoint: "Anchor-14" 351 354 basechar 0
AnchorPoint: "Anchor-13" 181 681 basechar 0
AnchorPoint: "Anchor-12" 136 861 basechar 0
AnchorPoint: "Anchor-11" 0 0 basechar 0
AnchorPoint: "Anchor-10" 279 0 basechar 0
LayerCount: 2
Back
Fore
SplineSet
215 861 m 1
 227 838 l 1
 48 764 l 1
 41 779 l 1
 215 861 l 1
146 681 m 1
 146 22 l 1
 434 22 l 1
 430 0 l 1
 123 0 l 1
 123 681 l 1
 146 681 l 1
EndSplineSet
Substitution2: "'c2sc' Capitals to Small Capitals lookup 26 subtable" lacute.sc
Substitution2: "'aalt' Access All Alternates lookup 0 subtable" lacute.sc
Position2: "'cpsp' Capital Spacing lookup 0 subtable" dx=5 dy=0 dh=10 dv=0
EndChar

StartChar: lacute
Encoding: 314 314 195
Width: 276
GlyphClass: 2
Flags: MW
HStem: -10 21<169 194 169 194> 0 21G<232 232> 713 20G<113 113> 716 20G<135 135>
VStem: 113 22<74 356 356 356 384 733 733 733>
AnchorPoint: "Anchor-11" 142 0 basechar 0
AnchorPoint: "Anchor-10" 0 0 basechar 0
AnchorPoint: "Anchor-9" 35 209 basechar 0
AnchorPoint: "Anchor-8" 0 0 basechar 0
LayerCount: 2
Fore
SplineSet
232 0 m 1x98
 219 -5 203 -10 185 -10 c 0
 140 -10 113 17 113 74 c 2
 113 356 l 1
 -45 291 l 1
 -52 306 l 1
 113 384 l 1
 113 733 l 1xa8
 135 736 l 1
 135 73 l 2
 135 32 150 11 188 11 c 0x98
 200 11 214 14 226 19 c 1x58
 232 0 l 1x98
EndSplineSet
Substitution2: "'smcp' Lowercase to Small Capitals lookup 24 subtable" lacute.sc
Substitution2: "'aalt' Access All Alternates lookup 0 subtable" lacute.sc
EndChar

StartChar: Lcommaaccent
Encoding: 315 315 61
Width: 452
GlyphClass: 2
Flags: MW
HStem: 0 22<146 430> 661 20G<123 146 146 146>
VStem: 123 23<22 22 22 681> 255 49<-125 -112.5>
AnchorPoint: "Anchor-11" 279 0 basechar 0
AnchorPoint: "Anchor-10" 0 0 basechar 0
AnchorPoint: "Anchor-9" 135 681 basechar 0
AnchorPoint: "Anchor-8" 0 0 basechar 0
LayerCount: 2
Fore
SplineSet
146 22 m 1
 434 22 l 1
 430 0 l 1
 123 0 l 1
 123 681 l 1
 146 681 l 1
 146 22 l 1
279 -96 m 0
 296 -96 304 -106 304 -119 c 0
 304 -131 301 -139 291 -162 c 1
 256 -258 l 1
 240 -258 l 1
 271 -142 l 1
 259 -138 255 -131 255 -119 c 0
 255 -106 264 -96 279 -96 c 0
EndSplineSet
Substitution2: "'c2sc' Capitals to Small Capitals lookup 23 subtable" lcommaaccent.sc
Substitution2: "'aalt' Access All Alternates lookup 0 subtable" lcommaaccent.sc
Position2: "'cpsp' Capital Spacing lookup 0 subtable" dx=5 dy=0 dh=10 dv=0
EndChar
StartChar: lcommaaccent
Encoding: 316 316 519
Width: 276
GlyphClass: 2
Flags: MW
HStem: -10 21<169 193 169 194> 0 21G<232 232> 713 20G<113 113> 716 20G<135 135>
VStem: 113 22<72 73 73 733 733 733> 155 49<-125 -112.5>
AnchorPoint: "Anchor-14" 260 375 basechar 0
AnchorPoint: "Anchor-13" 173 732 basechar 0
AnchorPoint: "Anchor-12" 124 733 basechar 0
AnchorPoint: "Anchor-11" 0 0 basechar 0
AnchorPoint: "Anchor-10" 178 0 basechar 0
LayerCount: 2
Back
Fore
SplineSet
185 -10 m 0x98
 142 -10 113 16 113 72 c 2
 113 733 l 1xa8
 135 736 l 1
 135 73 l 2
 135 32 152 11 186 11 c 0x98
 200 11 214 14 226 19 c 1x58
 232 0 l 1
 219 -5 203 -10 185 -10 c 0x98
179 -96 m 0x9c
 196 -96 204 -106 204 -119 c 0
 204 -131 201 -139 191 -162 c 2
 156 -258 l 1
 140 -258 l 1
 171 -142 l 1
 161 -138 155 -131 155 -119 c 0
 155 -106 165 -96 179 -96 c 0x9c
EndSplineSet
Substitution2: "'smcp' Lowercase to Small Capitals lookup 27 subtable" lcommaaccent.sc
Substitution2: "'aalt' Access All Alternates lookup 0 subtable" lcommaaccent.sc
EndChar
StartChar: Lcaron
Encoding: 317 317 148
Width: 456
GlyphClass: 2
Flags: MW
HStem: 0 22<146 430> 661 20G<123 146 146 146> 664 20G<238 238>
VStem: 123 23<22 681 22 681 22 681>
AnchorPoint: "Anchor-14" 351 354 basechar 0
AnchorPoint: "Anchor-13" 181 681 basechar 0
AnchorPoint: "Anchor-12" 135 681 basechar 0
AnchorPoint: "Anchor-11" 0 0 basechar 0
AnchorPoint: "Anchor-10" 279 0 basechar 0
LayerCount: 2
Back
Fore
SplineSet
238 684 m 1xb0
 262 682 l 1
 235 537 l 1
 220 540 l 1
 238 684 l 1xb0
146 681 m 1xd0
 146 22 l 1
 434 22 l 1
 430 0 l 1
 123 0 l 1
 123 681 l 1
 146 681 l 1xd0
EndSplineSet
Substitution2: "'c2sc' Capitals to Small Capitals lookup 26 subtable" lcaron.sc
Substitution2: "'aalt' Access All Alternates lookup 0 subtable" lcaron.sc
Position2: "'cpsp' Capital Spacing lookup 0 subtable" dx=5 dy=0 dh=10 dv=0
EndChar

StartChar: lcaron
Encoding: 318 318 196
Width: 276
GlyphClass: 2
Flags: MW
HStem: -10 21<169 194 169 194> 0 21G<232 232> 713 20G<113 113> 716 20G<135 135> 717 20G<230 230>
VStem: 113 22<74 733 733 733>
AnchorPoint: "Anchor-11" 142 0 basechar 0
AnchorPoint: "Anchor-10" 0 0 basechar 0
AnchorPoint: "Anchor-9" 35 209 basechar 0
AnchorPoint: "Anchor-8" 0 0 basechar 0
LayerCount: 2
Fore
SplineSet
254 735 m 1x8c
 227 590 l 1
 212 593 l 1
 230 737 l 1
 254 735 l 1x8c
135 73 m 2
 135 32 150 11 188 11 c 0x8c
 200 11 214 14 226 19 c 1x4c
 232 0 l 1
 219 -5 203 -10 185 -10 c 0
 140 -10 113 17 113 74 c 2
 113 733 l 1xa4
 135 736 l 1x94
 135 73 l 2
EndSplineSet
Substitution2: "'smcp' Lowercase to Small Capitals lookup 24 subtable" lcaron.sc
Substitution2: "'aalt' Access All Alternates lookup 0 subtable" lcaron.sc
EndChar

StartChar: Ldot
Encoding: 319 319 62
Width: 452
GlyphClass: 2
Flags: MW
HStem: 0 22<146 430> 335 39<345 358> 661 20G<123 146 146 146>
VStem: 123 23<22 22 22 681> 351 21
AnchorPoint: "Anchor-11" 279 0 basechar 0
AnchorPoint: "Anchor-10" 0 0 basechar 0
AnchorPoint: "Anchor-9" 135 681 basechar 0
AnchorPoint: "Anchor-8" 0 0 basechar 0
LayerCount: 2
Fore
SplineSet
146 22 m 1
 434 22 l 1
 430 0 l 1
 123 0 l 1
 123 681 l 1
 146 681 l 1
 146 22 l 1
351 374 m 0
 365 374 372 364 372 354 c 0
 372 344 365 335 351 335 c 0
 339 335 331 344 331 354 c 0
 331 364 339 374 351 374 c 0
EndSplineSet
Ligature2: "Ligature Substitution lookup 29 subtable" L periodcentered
Substitution2: "'c2sc' Capitals to Small Capitals lookup 23 subtable" ldot.sc
Substitution2: "'aalt' Access All Alternates lookup 0 subtable" ldot.sc
Position2: "'cpsp' Capital Spacing lookup 0 subtable" dx=5 dy=0 dh=10 dv=0
EndChar
StartChar: ldot
Encoding: 320 320 521
Width: 276
GlyphClass: 2
Flags: MW
HStem: -10 21<169 193 169 194> 0 21G<232 232> 356 39<254 267> 713 20G<113 113> 716 20G<135 135>
VStem: 113 22<72 73 73 733 733 733> 260 21
AnchorPoint: "Anchor-14" 260 375 basechar 0
AnchorPoint: "Anchor-13" 173 732 basechar 0
AnchorPoint: "Anchor-12" 260 333 basechar 0
AnchorPoint: "Anchor-11" 0 0 basechar 0
AnchorPoint: "Anchor-10" 178 0 basechar 0
LayerCount: 2
Back
Fore
SplineSet
185 -10 m 0xae
 142 -10 113 16 113 72 c 2
 113 733 l 1xb6
 135 736 l 1
 135 73 l 2
 135 32 152 11 186 11 c 0xae
 200 11 214 14 226 19 c 1x6e
 232 0 l 1
 219 -5 203 -10 185 -10 c 0xae
260 395 m 0
 274 395 281 385 281 375 c 0
 281 365 274 356 260 356 c 0
 248 356 240 365 240 375 c 0
 240 385 248 395 260 395 c 0
EndSplineSet
Ligature2: "Ligature Substitution lookup 40 subtable" l periodcentered
Substitution2: "'smcp' Lowercase to Small Capitals lookup 27 subtable" ldot.sc
Substitution2: "'aalt' Access All Alternates lookup 0 subtable" ldot.sc
EndChar
StartChar: Lslash
Encoding: 321 321 154
Width: 461
GlyphClass: 2
Flags: MW
HStem: 0 22<150 435> 661 20G<128 150 150 150>
VStem: 128 22<22 22 22 308 308 308 344 681>
AnchorPoint: "Anchor-14" 356 354 basechar 0
AnchorPoint: "Anchor-13" 186 681 basechar 0
AnchorPoint: "Anchor-12" 139 681 basechar 0
AnchorPoint: "Anchor-11" 0 0 basechar 0
AnchorPoint: "Anchor-10" 284 0 basechar 0
LayerCount: 2
Back
Fore
SplineSet
150 22 m 1
 439 22 l 1
 435 0 l 1
 128 0 l 1
 128 308 l 1
 54 262 l 1
 45 279 l 1
 128 330 l 1
 128 681 l 1
 150 681 l 1
 150 344 l 1
 351 470 l 1
 361 453 l 1
 150 322 l 1
 150 22 l 1
EndSplineSet
Substitution2: "'c2sc' Capitals to Small Capitals lookup 26 subtable" lslash.sc
Substitution2: "'aalt' Access All Alternates lookup 0 subtable" lslash.sc
Position2: "'cpsp' Capital Spacing lookup 0 subtable" dx=5 dy=0 dh=10 dv=0
EndChar
StartChar: lslash
Encoding: 322 322 528
Width: 289
GlyphClass: 2
Flags: MW
HStem: -10 21<176 200 176 200.5> 0 21G<239 239> 713 20G<120 120> 716 20G<142 142>
VStem: 120 22<72 73 73 346 346 346 382 733 733 733>
AnchorPoint: "Anchor-14" 267 375 basechar 0
AnchorPoint: "Anchor-13" 180 732 basechar 0
AnchorPoint: "Anchor-12" 131 733 basechar 0
AnchorPoint: "Anchor-11" 0 0 basechar 0
AnchorPoint: "Anchor-10" 184 0 basechar 0
LayerCount: 2
Back
Fore
SplineSet
193 11 m 0x98
 207 11 220 14 232 19 c 1x58
 239 0 l 1
 226 -5 209 -10 192 -10 c 0
 149 -10 120 16 120 72 c 2
 120 346 l 1
 55 306 l 1
 45 321 l 1
 120 368 l 1
 120 733 l 1xa8
 142 736 l 1
 142 382 l 1
 247 447 l 1
 257 431 l 1
 142 360 l 1
 142 73 l 2
 142 32 159 11 193 11 c 0x98
EndSplineSet
Substitution2: "'smcp' Lowercase to Small Capitals lookup 27 subtable" lslash.sc
Substitution2: "'aalt' Access All Alternates lookup 0 subtable" lslash.sc
EndChar
StartChar: nacute
Encoding: 324 324 537
Width: 581
GlyphClass: 2
Flags: MW
HStem: 0 21G<118 140 118 118 447 469 447 447> 499 20G<118 137 137 137> 509 20<288.5 369.5>
VStem: 118 20 447 22<0 367 367 369 0 414>
AnchorPoint: "Anchor-14" 0 0 basechar 0
AnchorPoint: "Anchor-13" 0 0 basechar 0
AnchorPoint: "Anchor-12" 297 761 basechar 0
AnchorPoint: "Anchor-11" 0 0 basechar 0
AnchorPoint: "Anchor-10" 288 0 basechar 0
LayerCount: 2
Back
Fore
SplineSet
381 738 m 1xb8
 203 654 l 1
 195 670 l 1
 371 761 l 1
 381 738 l 1xb8
330 529 m 0
 425 529 469 471 469 369 c 2
 469 0 l 1
 447 0 l 1
 447 367 l 2
 447 461 409 509 330 509 c 0xb8
 246 509 189 459 140 384 c 1
 140 0 l 1
 118 0 l 1
 118 519 l 1
 137 519 l 1xd8
 139 413 l 1
 186 483 247 529 330 529 c 0
EndSplineSet
Substitution2: "'smcp' Lowercase to Small Capitals lookup 27 subtable" nacute.sc
Substitution2: "'locl' Localized Forms in Latin lookup 7 subtable" nacute.loclPLK
AlternateSubs2: "'aalt' Access All Alternates lookup 1 subtable" nacute.loclPLK nacute.sc
EndChar

StartChar: ncommaaccent
Encoding: 326 326 205
Width: 581
GlyphClass: 2
Flags: MW
HStem: 0 21G<118 140 118 118 447 469 447 447> 499 20G<118 137 137 137> 509 20<289 369.5>
VStem: 118 20 266 49<-125 -112.5> 447 22<0 367 367 369 0 414>
AnchorPoint: "Anchor-11" 288 0 basechar 0
AnchorPoint: "Anchor-10" 108 519 basechar 0
AnchorPoint: "Anchor-9" 296 519 basechar 0
AnchorPoint: "Anchor-8" 0 0 basechar 0
LayerCount: 2
Fore
SplineSet
330 529 m 0xb4
 425 529 469 471 469 369 c 2
 469 0 l 1
 447 0 l 1
 447 367 l 2
 447 461 409 509 330 509 c 0xb4
 246 509 189 459 140 384 c 1
 140 0 l 1
 118 0 l 1
 118 519 l 1
 137 519 l 1xd4
 139 413 l 1
 186 483 248 529 330 529 c 0xb4
290 -96 m 0xbc
 307 -96 315 -106 315 -119 c 0
 315 -131 312 -139 302 -162 c 1
 267 -258 l 1
 251 -258 l 1
 282 -142 l 1
 270 -138 266 -131 266 -119 c 0
 266 -106 275 -96 290 -96 c 0xbc
EndSplineSet
Substitution2: "'smcp' Lowercase to Small Capitals lookup 24 subtable" ncommaaccent.sc
Substitution2: "'aalt' Access All Alternates lookup 0 subtable" ncommaaccent.sc
EndChar
StartChar: Ncaron
Encoding: 327 327 163
Width: 661
GlyphClass: 2
Flags: MW
HStem: 0 26<519 519 519 538 510 519> 656 25<142 142> 760 24<337 337 337 343 331 337>
VStem: 123 22<0 477 0 681> 516 22<205 681 0 681>
AnchorPoint: "Anchor-14" 0 0 basechar 0
AnchorPoint: "Anchor-13" 0 0 basechar 0
AnchorPoint: "Anchor-12" 339 863 basechar 0
AnchorPoint: "Anchor-11" 0 0 basechar 0
AnchorPoint: "Anchor-10" 329 0 basechar 0
LayerCount: 2
Back
Fore
SplineSet
451 863 m 1
 463 850 l 1
 343 760 l 1
 331 760 l 1
 211 850 l 1
 222 863 l 1
 337 784 l 1
 451 863 l 1
538 681 m 1
 538 0 l 1
 510 0 l 1
 142 656 l 1
 144 621 145 576 145 477 c 2
 145 0 l 1
 123 0 l 1
 123 681 l 1
 152 681 l 1
 519 26 l 1
 518 66 516 127 516 205 c 2
 516 681 l 1
 538 681 l 1
EndSplineSet
Substitution2: "'c2sc' Capitals to Small Capitals lookup 26 subtable" ncaron.sc
Substitution2: "'aalt' Access All Alternates lookup 0 subtable" ncaron.sc
Position2: "'cpsp' Capital Spacing lookup 0 subtable" dx=5 dy=0 dh=10 dv=0
EndChar
StartChar: ncaron
Encoding: 328 328 540
Width: 581
GlyphClass: 2
Flags: MW
HStem: 0 21G<118 140 118 118 447 469 447 447> 499 20G<118 137 137 137> 509 20<288.5 369.5> 641 24<297 297 297 303 291 297> 716 20G<171 171 423 423>
VStem: 118 20 447 22<0 367 367 369 0 414>
AnchorPoint: "Anchor-14" 0 0 basechar 0
AnchorPoint: "Anchor-13" 0 0 basechar 0
AnchorPoint: "Anchor-12" 299 749 basechar 0
AnchorPoint: "Anchor-11" 0 0 basechar 0
AnchorPoint: "Anchor-10" 288 0 basechar 0
LayerCount: 2
Back
Fore
SplineSet
303 641 m 1xbe
 291 641 l 1
 171 736 l 1
 182 749 l 1
 297 665 l 1
 411 749 l 1
 423 736 l 1
 303 641 l 1xbe
330 529 m 0
 425 529 469 471 469 369 c 2
 469 0 l 1
 447 0 l 1
 447 367 l 2
 447 461 409 509 330 509 c 0xbe
 246 509 189 459 140 384 c 1
 140 0 l 1
 118 0 l 1
 118 519 l 1
 137 519 l 1xde
 139 413 l 1
 186 483 247 529 330 529 c 0
EndSplineSet
Substitution2: "'smcp' Lowercase to Small Capitals lookup 27 subtable" ncaron.sc
Substitution2: "'aalt' Access All Alternates lookup 0 subtable" ncaron.sc
EndChar

StartChar: napostrophe
Encoding: 329 329 203
Width: 599
GlyphClass: 2
Flags: MW
HStem: 0 21G<118 140 118 118 447 469 447 447> 499 20G<118 137 137 137> 509 20<289 369.5> 717 20G<117.5 133>
VStem: 101 49<707 719.5> 118 20 447 22<0 367 367 369 0 414>
AnchorPoint: "Anchor-11" 288 0 basechar 0
AnchorPoint: "Anchor-10" 108 519 basechar 0
AnchorPoint: "Anchor-9" 296 519 basechar 0
AnchorPoint: "Anchor-8" 0 0 basechar 0
LayerCount: 2
Fore
SplineSet
150 713 m 0xba
 150 701 145 695 136 670 c 1
 106 570 l 1
 91 570 l 1
 117 690 l 1
 104 694 101 701 101 713 c 0
 101 726 110 737 125 737 c 0
 141 737 150 726 150 713 c 0xba
330 529 m 0
 425 529 469 471 469 369 c 2
 469 0 l 1
 447 0 l 1
 447 367 l 2
 447 461 409 509 330 509 c 0xb6
 246 509 189 459 140 384 c 1
 140 0 l 1
 118 0 l 1
 118 519 l 1
 137 519 l 1xd6
 139 413 l 1xb6
 186 483 248 529 330 529 c 0
EndSplineSet
Substitution2: "'smcp' Lowercase to Small Capitals lookup 24 subtable" napostrophe.sc
Substitution2: "'aalt' Access All Alternates lookup 0 subtable" napostrophe.sc
EndChar
StartChar: Eng
Encoding: 330 330 169
Width: 661
GlyphClass: 2
Flags: MW
HStem: -197 21<422 461 422 468.5> 0 21G<123 145 123 123 510 516 510 510> 656 25<142 142>
VStem: 123 22<0 477 0 681> 516 22<-85 0 0 0 205 681>
AnchorPoint: "Anchor-14" 0 0 basechar 0
AnchorPoint: "Anchor-13" 0 0 basechar 0
AnchorPoint: "Anchor-12" 337 681 basechar 0
AnchorPoint: "Anchor-11" 0 0 basechar 0
AnchorPoint: "Anchor-10" 329 0 basechar 0
LayerCount: 2
Back
Fore
SplineSet
538 681 m 1
 538 -86 l 2
 538 -160 497 -197 440 -197 c 0
 400 -197 372 -182 352 -167 c 1
 363 -151 l 1
 382 -165 404 -176 440 -176 c 0
 482 -176 516 -152 516 -85 c 2
 516 0 l 1
 510 0 l 1
 142 656 l 1
 144 621 145 576 145 477 c 2
 145 0 l 1
 123 0 l 1
 123 681 l 1
 152 681 l 1
 519 26 l 1
 518 66 516 127 516 205 c 2
 516 681 l 1
 538 681 l 1
EndSplineSet
Substitution2: "'ss01' Style Set 1 lookup 33 subtable" Eng.ss01
Substitution2: "'salt' Stylistic Alternatives lookup 32 subtable" Eng.ss01
Substitution2: "'c2sc' Capitals to Small Capitals lookup 26 subtable" eng.sc
AlternateSubs2: "'aalt' Access All Alternates lookup 1 subtable" eng.sc Eng.ss01
Position2: "'cpsp' Capital Spacing lookup 0 subtable" dx=5 dy=0 dh=10 dv=0
EndChar
StartChar: eng
Encoding: 331 331 547
Width: 581
GlyphClass: 2
Flags: MW
HStem: -197 20<353 392 353 399.5> 0 21G<118 140 118 118> 499 20G<118 137 137 137> 509 20<288.5 369.5>
VStem: 118 20 447 22<-86 367 367 369>
AnchorPoint: "Anchor-14" 0 0 basechar 0
AnchorPoint: "Anchor-13" 0 0 basechar 0
AnchorPoint: "Anchor-12" 296 519 basechar 0
AnchorPoint: "Anchor-11" 0 0 basechar 0
AnchorPoint: "Anchor-10" 292 -192 basechar 0
LayerCount: 2
Back
Fore
SplineSet
469 -86 m 2xdc
 469 -160 428 -197 371 -197 c 0
 331 -197 303 -182 283 -167 c 1
 294 -152 l 1
 313 -166 335 -177 371 -177 c 0
 413 -177 447 -152 447 -86 c 2
 447 367 l 2
 447 461 409 509 330 509 c 0xdc
 246 509 189 459 140 384 c 1
 140 0 l 1
 118 0 l 1
 118 519 l 1
 137 519 l 1xec
 139 413 l 1
 186 483 247 529 330 529 c 0
 425 529 469 471 469 369 c 2
 469 -86 l 2xdc
EndSplineSet
Substitution2: "'smcp' Lowercase to Small Capitals lookup 27 subtable" eng.sc
Substitution2: "'aalt' Access All Alternates lookup 0 subtable" eng.sc
EndChar
StartChar: Omacron
Encoding: 332 332 206
Width: 689
GlyphClass: 2
Flags: MW
HStem: -10 22<271.5 421 271.5 427.5> 670 21<272 418> 811 21<241 448 241 448>
VStem: 78 23<233 446.5 233 451> 588 23<233.5 448.5>
AnchorPoint: "Anchor-14" 0 0 basechar 0
AnchorPoint: "Anchor-13" 531 681 basechar 0
AnchorPoint: "Anchor-12" 347 832 basechar 0
AnchorPoint: "Anchor-11" 428 0 basechar 0
AnchorPoint: "Anchor-10" 345 0 basechar 0
LayerCount: 2
Back
Fore
SplineSet
448 811 m 1
 241 811 l 1
 241 832 l 1
 448 832 l 1
 448 811 l 1
344 691 m 0
 505 691 611 569 611 340 c 0
 611 119 511 -10 344 -10 c 0
 185 -10 78 115 78 339 c 0
 78 563 187 691 344 691 c 0
344 670 m 0
 200 670 101 554 101 339 c 0
 101 127 199 12 344 12 c 0
 498 12 588 127 588 340 c 0
 588 557 492 670 344 670 c 0
EndSplineSet
Substitution2: "'c2sc' Capitals to Small Capitals lookup 26 subtable" omacron.sc
Substitution2: "'aalt' Access All Alternates lookup 0 subtable" omacron.sc
Position2: "'cpsp' Capital Spacing lookup 0 subtable" dx=5 dy=0 dh=10 dv=0
EndChar

StartChar: omacron
Encoding: 333 333 215
Width: 560
GlyphClass: 2
Flags: MW
HStem: -10 21<222.5 336.5 222.5 343> 509 20<225 338.5> 685 21<177 384 177 384>
VStem: 73 23<180.5 340.5 180.5 345> 465 23<181 341.5>
AnchorPoint: "Anchor-11" 0 0 basechar 0
AnchorPoint: "Anchor-10" 0 0 basechar 0
AnchorPoint: "Anchor-9" 281 519 basechar 0
AnchorPoint: "Anchor-8" 0 0 basechar 0
LayerCount: 2
Fore
SplineSet
177 685 m 1
 177 706 l 1
 384 706 l 1
 384 685 l 1
 177 685 l 1
281 529 m 0
 408 529 488 434 488 262 c 0
 488 89 406 -10 280 -10 c 0
 151 -10 73 91 73 259 c 0
 73 431 156 529 281 529 c 0
281 509 m 0
 169 509 96 422 96 259 c 0
 96 102 165 11 280 11 c 0
 393 11 465 100 465 262 c 0
 465 421 396 509 281 509 c 0
EndSplineSet
Substitution2: "'smcp' Lowercase to Small Capitals lookup 24 subtable" omacron.sc
Substitution2: "'aalt' Access All Alternates lookup 0 subtable" omacron.sc
EndChar
StartChar: obreve
Encoding: 335 335 557
Width: 560
GlyphClass: 2
Flags: MW
HStem: -10 21<222.5 336.5 222.5 343> 509 20<225 338.5> 662 22<257.5 304.5 257.5 310.5>
VStem: 73 23<180.5 340.5 180.5 345> 465 23<181 341.5>
AnchorPoint: "Anchor-14" 0 0 basechar 0
AnchorPoint: "Anchor-13" 447 519 basechar 0
AnchorPoint: "Anchor-12" 283 752 basechar 0
AnchorPoint: "Anchor-11" 353 0 basechar 0
AnchorPoint: "Anchor-10" 281 0 basechar 0
LayerCount: 2
Back
Fore
SplineSet
281 662 m 0
 223 662 183 699 173 748 c 1
 189 752 l 1
 202 708 234 684 281 684 c 0
 328 684 361 708 373 752 c 1
 389 748 l 1
 380 699 340 662 281 662 c 0
281 529 m 0
 408 529 488 434 488 262 c 0
 488 89 406 -10 280 -10 c 0
 151 -10 73 91 73 259 c 0
 73 431 156 529 281 529 c 0
281 509 m 0
 169 509 96 422 96 259 c 0
 96 102 165 11 280 11 c 0
 393 11 465 100 465 262 c 0
 465 421 396 509 281 509 c 0
EndSplineSet
Substitution2: "'smcp' Lowercase to Small Capitals lookup 27 subtable" obreve.sc
Substitution2: "'aalt' Access All Alternates lookup 0 subtable" obreve.sc
EndChar

StartChar: ohungarumlaut
Encoding: 337 337 214
Width: 560
GlyphClass: 2
Flags: MW
HStem: -10 21<222.5 336.5 222.5 343> 509 20<225 338.5>
VStem: 73 23<180.5 340.5 180.5 345> 465 23<181 341.5>
AnchorPoint: "Anchor-11" 0 0 basechar 0
AnchorPoint: "Anchor-10" 0 0 basechar 0
AnchorPoint: "Anchor-9" 281 519 basechar 0
AnchorPoint: "Anchor-8" 0 0 basechar 0
LayerCount: 2
Fore
SplineSet
412 780 m 1
 334 652 l 1
 318 661 l 1
 389 791 l 1
 412 780 l 1
302 778 m 1
 231 656 l 1
 215 664 l 1
 280 790 l 1
 302 778 l 1
281 529 m 0
 408 529 488 434 488 262 c 0
 488 89 406 -10 280 -10 c 0
 151 -10 73 91 73 259 c 0
 73 431 156 529 281 529 c 0
281 509 m 0
 169 509 96 422 96 259 c 0
 96 102 165 11 280 11 c 0
 393 11 465 100 465 262 c 0
 465 421 396 509 281 509 c 0
EndSplineSet
Substitution2: "'smcp' Lowercase to Small Capitals lookup 24 subtable" ohungarumlaut.sc
Substitution2: "'aalt' Access All Alternates lookup 0 subtable" ohungarumlaut.sc
EndChar

StartChar: Racute
Encoding: 340 340 87
Width: 572
GlyphClass: 2
Flags: MW
HStem: 0 21G<123 146 123 123 499 499 499 528> 324 21<146 287 287 313 146 287> 660 21<146 269 146 146>
VStem: 123 23<0 324 0 345 345 660> 473 23<448.5 553>
AnchorPoint: "Anchor-11" 304 0 basechar 0
AnchorPoint: "Anchor-10" 0 0 basechar 0
AnchorPoint: "Anchor-9" 287 681 basechar 0
AnchorPoint: "Anchor-8" 0 0 basechar 0
LayerCount: 2
Fore
SplineSet
207 764 m 1
 200 779 l 1
 374 861 l 1
 386 838 l 1
 207 764 l 1
313 324 m 1
 146 324 l 1
 146 0 l 1
 123 0 l 1
 123 681 l 1
 272 681 l 2
 431 681 496 616 496 504 c 0
 496 393 428 344 337 327 c 1
 528 0 l 1
 499 0 l 1
 313 324 l 1
287 345 m 2
 398 345 473 393 473 504 c 0
 473 602 420 660 269 660 c 2
 146 660 l 1
 146 345 l 1
 287 345 l 2
EndSplineSet
Substitution2: "'c2sc' Capitals to Small Capitals lookup 23 subtable" racute.sc
Substitution2: "'aalt' Access All Alternates lookup 0 subtable" racute.sc
Position2: "'cpsp' Capital Spacing lookup 0 subtable" dx=5 dy=0 dh=10 dv=0
EndChar

StartChar: racute
Encoding: 341 341 224
Width: 362
GlyphClass: 2
Flags: MW
HStem: 0 21G<118 140 118 118> 499 20G<118 137 137 137> 503 20G<345 345> 509 20<255 303>
VStem: 118 19.5
AnchorPoint: "Anchor-11" 128 0 basechar 0
AnchorPoint: "Anchor-10" 0 0 basechar 0
AnchorPoint: "Anchor-9" 229 519 basechar 0
AnchorPoint: "Anchor-8" 0 0 basechar 0
LayerCount: 2
Fore
SplineSet
135 654 m 1x98
 127 670 l 1
 303 761 l 1
 313 738 l 1
 135 654 l 1x98
294 529 m 0
 317 529 333 526 345 523 c 1xa8
 340 504 l 1
 327 507 312 509 294 509 c 0x98
 216 509 173 456 140 344 c 1
 140 0 l 1
 118 0 l 1
 118 519 l 1
 137 519 l 1xc8
 138 390 l 1
 167 485 215 529 294 529 c 0
EndSplineSet
Substitution2: "'smcp' Lowercase to Small Capitals lookup 24 subtable" racute.sc
Substitution2: "'aalt' Access All Alternates lookup 0 subtable" racute.sc
EndChar
StartChar: Rcommaaccent
Encoding: 342 342 228
Width: 572
GlyphClass: 2
Flags: MW
HStem: 0 21G<123 146 123 123 499 528 499 499> 324 21<146 287 287 313 146 287> 660 21<146 269 146 146>
VStem: 123 23<0 324 345 660> 280 49<-125 -112.5> 473 23<448.5 553>
AnchorPoint: "Anchor-14" 0 0 basechar 0
AnchorPoint: "Anchor-13" 0 0 basechar 0
AnchorPoint: "Anchor-12" 287 681 basechar 0
AnchorPoint: "Anchor-11" 0 0 basechar 0
AnchorPoint: "Anchor-10" 304 0 basechar 0
LayerCount: 2
Back
Fore
SplineSet
338 327 m 1
 528 0 l 1
 499 0 l 1
 313 324 l 1
 146 324 l 1
 146 0 l 1
 123 0 l 1
 123 681 l 1
 272 681 l 2
 431 681 496 616 496 504 c 0
 496 393 428 344 338 327 c 1
146 345 m 1
 287 345 l 2
 398 345 473 393 473 504 c 0
 473 602 420 660 269 660 c 2
 146 660 l 1
 146 345 l 1
304 -96 m 0
 321 -96 329 -106 329 -119 c 0
 329 -131 326 -139 316 -162 c 2
 281 -258 l 1
 265 -258 l 1
 296 -142 l 1
 286 -138 280 -131 280 -119 c 0
 280 -106 290 -96 304 -96 c 0
EndSplineSet
Substitution2: "'c2sc' Capitals to Small Capitals lookup 26 subtable" rcommaaccent.sc
Substitution2: "'aalt' Access All Alternates lookup 0 subtable" rcommaaccent.sc
Position2: "'cpsp' Capital Spacing lookup 0 subtable" dx=5 dy=0 dh=10 dv=0
EndChar

StartChar: rcommaaccent
Encoding: 343 343 226
Width: 362
GlyphClass: 2
Flags: MW
HStem: 0 21G<118 140 118 118> 499 20G<118 137 137 137> 503 20G<345 345> 509 20<255 303>
VStem: 106 49<-125 -112.5> 118 19.5
AnchorPoint: "Anchor-11" 128 0 basechar 0
AnchorPoint: "Anchor-10" 0 0 basechar 0
AnchorPoint: "Anchor-9" 229 519 basechar 0
AnchorPoint: "Anchor-8" 0 0 basechar 0
LayerCount: 2
Fore
SplineSet
294 529 m 0x94
 317 529 333 526 345 523 c 1xa4
 340 504 l 1
 327 507 312 509 294 509 c 0x94
 216 509 173 456 140 344 c 1
 140 0 l 1
 118 0 l 1
 118 519 l 1
 137 519 l 1xc4
 138 390 l 1
 167 485 215 529 294 529 c 0x94
130 -96 m 0x98
 147 -96 155 -106 155 -119 c 0
 155 -131 152 -139 142 -162 c 1
 107 -258 l 1
 91 -258 l 1
 122 -142 l 1
 110 -138 106 -131 106 -119 c 0
 106 -106 115 -96 130 -96 c 0x98
EndSplineSet
Substitution2: "'smcp' Lowercase to Small Capitals lookup 24 subtable" rcommaaccent.sc
Substitution2: "'aalt' Access All Alternates lookup 0 subtable" rcommaaccent.sc
EndChar

StartChar: Rcaron
Encoding: 344 344 88
Width: 572
GlyphClass: 2
Flags: MW
HStem: 0 21G<123 146 123 123 499 499 499 528> 324 21<146 287 287 313 146 287> 660 21<146 269 146 146> 760 24<286 292 292 292 292 298>
VStem: 123 23<0 324 0 345 345 660> 473 23<448.5 553>
AnchorPoint: "Anchor-11" 304 0 basechar 0
AnchorPoint: "Anchor-10" 0 0 basechar 0
AnchorPoint: "Anchor-9" 287 681 basechar 0
AnchorPoint: "Anchor-8" 0 0 basechar 0
LayerCount: 2
Fore
SplineSet
286 760 m 1
 166 850 l 1
 177 863 l 1
 292 784 l 1
 406 863 l 1
 418 850 l 1
 298 760 l 1
 286 760 l 1
313 324 m 1
 146 324 l 1
 146 0 l 1
 123 0 l 1
 123 681 l 1
 272 681 l 2
 431 681 496 616 496 504 c 0
 496 393 428 344 337 327 c 1
 528 0 l 1
 499 0 l 1
 313 324 l 1
287 345 m 2
 398 345 473 393 473 504 c 0
 473 602 420 660 269 660 c 2
 146 660 l 1
 146 345 l 1
 287 345 l 2
EndSplineSet
Substitution2: "'c2sc' Capitals to Small Capitals lookup 23 subtable" rcaron.sc
Substitution2: "'aalt' Access All Alternates lookup 0 subtable" rcaron.sc
Position2: "'cpsp' Capital Spacing lookup 0 subtable" dx=5 dy=0 dh=10 dv=0
EndChar

StartChar: rcaron
Encoding: 345 345 225
Width: 362
GlyphClass: 2
Flags: MW
HStem: 0 21G<118 140 118 118> 499 20G<118 137 137 137> 503 20G<345 345> 509 20<255 303> 643 24<228 234 234 234 234 240> 718 20G<108 108 360 360>
VStem: 118 19.5
AnchorPoint: "Anchor-11" 128 0 basechar 0
AnchorPoint: "Anchor-10" 0 0 basechar 0
AnchorPoint: "Anchor-9" 229 519 basechar 0
AnchorPoint: "Anchor-8" 0 0 basechar 0
LayerCount: 2
Fore
SplineSet
228 643 m 1x9e
 108 738 l 1
 119 751 l 1
 234 667 l 1
 348 751 l 1
 360 738 l 1
 240 643 l 1
 228 643 l 1x9e
138 390 m 1
 167 485 215 529 294 529 c 0x9e
 317 529 333 526 345 523 c 1xae
 340 504 l 1
 327 507 312 509 294 509 c 0x9e
 216 509 173 456 140 344 c 1
 140 0 l 1
 118 0 l 1
 118 519 l 1
 137 519 l 1xce
 138 390 l 1
EndSplineSet
Substitution2: "'smcp' Lowercase to Small Capitals lookup 24 subtable" rcaron.sc
Substitution2: "'aalt' Access All Alternates lookup 0 subtable" rcaron.sc
EndChar

StartChar: sacute
Encoding: 347 347 228
Width: 460
GlyphClass: 2
Flags: MW
HStem: -10 21<191 269.5 191 277.5> 509 20<191 259>
VStem: 71 23<370.5 434 370.5 439> 374 23<94.5 171.5>
AnchorPoint: "Anchor-11" 230 0 basechar 0
AnchorPoint: "Anchor-10" 0 0 basechar 0
AnchorPoint: "Anchor-9" 235 519 basechar 0
AnchorPoint: "Anchor-8" 0 0 basechar 0
LayerCount: 2
Fore
SplineSet
319 738 m 1
 141 654 l 1
 133 670 l 1
 309 761 l 1
 319 738 l 1
229 529 m 0
 291 529 337 511 383 474 c 1
 370 458 l 1
 326 492 288 509 230 509 c 0
 152 509 94 467 94 401 c 0
 94 340 133 313 236 285 c 0
 353 253 397 220 397 134 c 0
 397 48 327 -10 228 -10 c 0
 147 -10 97 19 53 56 c 1
 66 71 l 1
 111 34 154 11 228 11 c 0
 311 11 374 55 374 134 c 0
 374 209 339 236 226 267 c 1
 116 296 71 331 71 401 c 0
 71 477 141 529 229 529 c 0
EndSplineSet
Substitution2: "'smcp' Lowercase to Small Capitals lookup 24 subtable" sacute.sc
Substitution2: "'locl' Localized Forms in Latin lookup 7 subtable" sacute.loclPLK
AlternateSubs2: "'aalt' Access All Alternates lookup 1 subtable" sacute.loclPLK sacute.sc
EndChar
StartChar: Scedilla
Encoding: 350 350 240
Width: 536
GlyphClass: 2
Flags: MW
HStem: -212 20<257 286 257 292> -194 21G<202 202> -90 16 -10 22<247 247 264 264> 670 21<215.5 300.5>
VStem: 80 23<492.5 573.5 492.5 578.5> 244.5 19 331 23<-158 -123.5> 444 22<129.5 231>
AnchorPoint: "Anchor-14" 0 0 basechar 0
AnchorPoint: "Anchor-13" 0 0 basechar 0
AnchorPoint: "Anchor-12" 269 681 basechar 0
AnchorPoint: "Anchor-11" 0 0 basechar 0
AnchorPoint: "Anchor-10" 280 -212 basechar 0
LayerCount: 2
Back
Fore
SplineSet
466 182 m 0x7f80
 466 70 383 -7 264 -10 c 1
 263 -74 l 1
 323 -77 354 -99 354 -140 c 0
 354 -187 314 -212 270 -212 c 0
 239 -212 219 -204 202 -194 c 1
 212 -177 l 1
 226 -186 244 -192 270 -192 c 0xbf80
 302 -192 331 -176 331 -140 c 0
 331 -107 304 -91 242 -90 c 1
 247 -10 l 1
 163 -7 105 25 54 72 c 1
 69 87 l 1
 118 42 171 12 257 12 c 0
 369 12 444 78 444 181 c 0
 444 281 393 318 266 358 c 0
 128 401 80 443 80 534 c 0
 80 623 153 691 265 691 c 0
 348 691 397 664 445 622 c 1
 430 605 l 1
 383 649 336 670 265 670 c 0
 166 670 103 613 103 534 c 0
 103 451 148 417 274 378 c 0
 407 337 466 293 466 182 c 0x7f80
EndSplineSet
Substitution2: "'c2sc' Capitals to Small Capitals lookup 26 subtable" scedilla.sc
Substitution2: "'locl' Localized Forms in Latin lookup 5 subtable" Scommaaccent
Substitution2: "'locl' Localized Forms in Latin lookup 4 subtable" Scommaaccent
AlternateSubs2: "'aalt' Access All Alternates lookup 1 subtable" Scommaaccent scedilla.sc
Position2: "'cpsp' Capital Spacing lookup 0 subtable" dx=5 dy=0 dh=10 dv=0
EndChar
StartChar: scedilla
Encoding: 351 351 628
Width: 460
GlyphClass: 2
Flags: MW
HStem: -212 20<226 255 226 261> -194 21G<171 171> -90 16 -10 21<216 216 233 233> 509 20<191 259>
VStem: 71 23<370.5 434 370.5 439> 213.5 19 300 23<-158 -123.5> 374 23<94.5 171.5>
AnchorPoint: "Anchor-14" 0 0 basechar 0
AnchorPoint: "Anchor-13" 0 0 basechar 0
AnchorPoint: "Anchor-12" 235 519 basechar 0
AnchorPoint: "Anchor-11" 0 0 basechar 0
AnchorPoint: "Anchor-10" 249 -212 basechar 0
LayerCount: 2
Back
Fore
SplineSet
397 134 m 0x7f80
 397 49 329 -8 233 -10 c 1
 232 -74 l 1
 292 -77 323 -99 323 -140 c 0
 323 -187 283 -212 239 -212 c 0
 208 -212 188 -204 171 -194 c 1
 181 -177 l 1
 195 -186 213 -192 239 -192 c 0xbf80
 271 -192 300 -176 300 -140 c 0
 300 -107 273 -91 211 -90 c 1
 216 -10 l 1
 142 -7 95 21 53 56 c 1
 66 71 l 1
 111 34 154 11 228 11 c 0
 311 11 374 55 374 134 c 0
 374 209 339 236 226 267 c 0
 116 296 71 331 71 401 c 0
 71 477 141 529 229 529 c 0
 291 529 337 511 383 474 c 1
 370 458 l 1
 326 492 288 509 230 509 c 0
 152 509 94 467 94 401 c 0
 94 340 133 313 236 285 c 0
 353 253 397 220 397 134 c 0x7f80
EndSplineSet
Substitution2: "'smcp' Lowercase to Small Capitals lookup 27 subtable" scedilla.sc
Substitution2: "'locl' Localized Forms in Latin lookup 5 subtable" scommaaccent
Substitution2: "'locl' Localized Forms in Latin lookup 4 subtable" scommaaccent
AlternateSubs2: "'aalt' Access All Alternates lookup 1 subtable" scommaaccent scedilla.sc
EndChar

StartChar: Scaron
Encoding: 352 352 92
Width: 536
GlyphClass: 2
Flags: MW
HStem: -10 22<214 313 214 319.5> 670 21<215.5 300.5> 760 24<274 274 274 280 268 274>
VStem: 80 23<492.5 573.5 492.5 578.5> 444 22<129.5 231>
AnchorPoint: "Anchor-11" 262 0 basechar 0
AnchorPoint: "Anchor-10" 0 0 basechar 0
AnchorPoint: "Anchor-9" 269 681 basechar 0
AnchorPoint: "Anchor-8" 0 0 basechar 0
LayerCount: 2
Fore
SplineSet
400 850 m 1
 280 760 l 1
 268 760 l 1
 148 850 l 1
 159 863 l 1
 274 784 l 1
 388 863 l 1
 400 850 l 1
265 691 m 0
 348 691 397 664 445 622 c 1
 430 605 l 1
 383 649 336 670 265 670 c 0
 166 670 103 613 103 534 c 0
 103 451 148 417 274 378 c 0
 407 337 466 293 466 182 c 0
 466 68 381 -10 258 -10 c 0
 168 -10 108 23 54 72 c 1
 69 87 l 1
 118 42 171 12 257 12 c 0
 369 12 444 78 444 181 c 0
 444 281 393 318 266 358 c 0
 128 401 80 443 80 534 c 0
 80 623 153 691 265 691 c 0
EndSplineSet
Substitution2: "'c2sc' Capitals to Small Capitals lookup 23 subtable" scaron.sc
Substitution2: "'aalt' Access All Alternates lookup 0 subtable" scaron.sc
Position2: "'cpsp' Capital Spacing lookup 0 subtable" dx=5 dy=0 dh=10 dv=0
EndChar
StartChar: uni0162
Encoding: 354 354 250
Width: 476
GlyphClass: 2
Flags: MW
HStem: -212 20<242 271 242 277> -194 21G<187 187> -90 16 0 21G<226 232 226 226> 659 22<16 226 16 463 249 459 249 249>
VStem: 226 23<11 659 11 659 11 659> 316 23<-158 -123.5>
AnchorPoint: "Anchor-14" 238 346 basechar 0
AnchorPoint: "Anchor-13" 0 0 basechar 0
AnchorPoint: "Anchor-12" 238 681 basechar 0
AnchorPoint: "Anchor-11" 0 0 basechar 0
AnchorPoint: "Anchor-10" 238 0 basechar 0
LayerCount: 2
Back
Fore
SplineSet
459 659 m 1x7e
 249 659 l 1
 249 11 l 1
 250 11 l 1
 248 -74 l 1
 308 -77 339 -99 339 -140 c 0
 339 -187 299 -212 255 -212 c 0
 224 -212 204 -204 187 -194 c 1
 197 -177 l 1
 211 -186 229 -192 255 -192 c 0xbe
 287 -192 316 -176 316 -140 c 0
 316 -107 289 -91 227 -90 c 1
 232 0 l 1
 226 0 l 1
 226 659 l 1
 16 659 l 1
 16 681 l 1
 463 681 l 1
 459 659 l 1x7e
EndSplineSet
Substitution2: "'c2sc' Capitals to Small Capitals lookup 26 subtable" uni0163.sc
Substitution2: "'locl' Localized Forms in Latin lookup 5 subtable" uni021A
Substitution2: "'locl' Localized Forms in Latin lookup 4 subtable" uni021A
AlternateSubs2: "'aalt' Access All Alternates lookup 1 subtable" uni021A uni0163.sc
Position2: "'cpsp' Capital Spacing lookup 0 subtable" dx=5 dy=0 dh=10 dv=0
EndChar

StartChar: tcedilla
Encoding: 355 355 237
Width: 324
GlyphClass: 2
Flags: MW
HStem: -212 20<219 248 219 254> -194 21G<164 164> -90 16 -10 21<226 244 195.5 246.5> -9 20<209 209> 499 20<26 112 26 112 134 274>
VStem: 112 22<117 118 118 499 519 650 650 650> 206.5 19 293 23<-158 -123.5>
AnchorPoint: "Anchor-11" 223 0 basechar 0
AnchorPoint: "Anchor-10" 0 0 basechar 0
AnchorPoint: "Anchor-9" 0 0 basechar 0
AnchorPoint: "Anchor-8" 0 0 basechar 0
LayerCount: 2
Fore
SplineSet
225 -74 m 1x7780
 285 -77 316 -99 316 -140 c 0
 316 -187 276 -212 232 -212 c 0
 201 -212 181 -204 164 -194 c 1
 174 -177 l 1
 188 -186 206 -192 232 -192 c 0
 264 -192 293 -176 293 -140 c 0
 293 -107 266 -91 204 -90 c 1
 209 -9 l 1xaf80
 149 -3 112 39 112 117 c 2
 112 499 l 1
 26 499 l 1
 26 519 l 1
 112 519 l 1
 112 650 l 1
 134 652 l 1
 134 519 l 1
 278 519 l 1
 274 499 l 1
 134 499 l 1
 134 118 l 2
 134 48 165 11 226 11 c 0
 262 11 290 22 315 37 c 1
 325 20 l 1
 298 3 267 -10 226 -10 c 1
 225 -74 l 1x7780
EndSplineSet
Substitution2: "'smcp' Lowercase to Small Capitals lookup 24 subtable" tcedilla.sc
Substitution2: "'locl' Localized Forms in Latin lookup 5 subtable" uni021B
Substitution2: "'locl' Localized Forms in Latin lookup 4 subtable" uni021B
AlternateSubs2: "'aalt' Access All Alternates lookup 1 subtable" uni021B tcedilla.sc
EndChar

StartChar: Tcaron
Encoding: 356 356 98
Width: 476
GlyphClass: 2
Flags: MW
HStem: 0 21G<226 249 226 226> 659 22<16 226 16 463 249 459 249 249> 760 24<232 232 232 238 226 232>
VStem: 226 23<0 659 0 659>
AnchorPoint: "Anchor-11" 238 0 basechar 0
AnchorPoint: "Anchor-10" 0 0 basechar 0
AnchorPoint: "Anchor-9" 227 681 basechar 0
AnchorPoint: "Anchor-8" 0 0 basechar 0
LayerCount: 2
Fore
SplineSet
358 850 m 1
 238 760 l 1
 226 760 l 1
 106 850 l 1
 117 863 l 1
 232 784 l 1
 346 863 l 1
 358 850 l 1
459 659 m 1
 249 659 l 1
 249 0 l 1
 226 0 l 1
 226 659 l 1
 16 659 l 1
 16 681 l 1
 463 681 l 1
 459 659 l 1
EndSplineSet
Substitution2: "'c2sc' Capitals to Small Capitals lookup 23 subtable" tcaron.sc
Substitution2: "'aalt' Access All Alternates lookup 0 subtable" tcaron.sc
Position2: "'cpsp' Capital Spacing lookup 0 subtable" dx=5 dy=0 dh=10 dv=0
EndChar
StartChar: tcaron
Encoding: 357 357 640
Width: 324
GlyphClass: 2
Flags: MW
HStem: -10 21<195.5 244 195.5 245> 499 20<26 112 26 112 134 274> 716 20G<213 213>
VStem: 112 22<117 118 118 499 519 650 650 650>
AnchorPoint: "Anchor-14" 154 260 basechar 0
AnchorPoint: "Anchor-13" 156 734 basechar 0
AnchorPoint: "Anchor-12" 123 650 basechar 0
AnchorPoint: "Anchor-11" 0 0 basechar 0
AnchorPoint: "Anchor-10" 223 0 basechar 0
LayerCount: 2
Back
Fore
SplineSet
237 734 m 1
 210 589 l 1
 195 592 l 1
 213 736 l 1
 237 734 l 1
315 37 m 1
 325 20 l 1
 298 3 266 -10 224 -10 c 0
 155 -10 112 33 112 117 c 2
 112 499 l 1
 26 499 l 1
 26 519 l 1
 112 519 l 1
 112 650 l 1
 134 652 l 1
 134 519 l 1
 278 519 l 1
 274 499 l 1
 134 499 l 1
 134 118 l 2
 134 48 165 11 226 11 c 0
 262 11 290 22 315 37 c 1
EndSplineSet
Substitution2: "'smcp' Lowercase to Small Capitals lookup 27 subtable" tcaron.sc
Substitution2: "'aalt' Access All Alternates lookup 0 subtable" tcaron.sc
EndChar

StartChar: Tbar
Encoding: 358 358 97
Width: 476
GlyphClass: 2
Flags: MW
HStem: 0 21G<226 249 226 226> 360 20<104 226 104 226 249 375> 659 22<16 226 16 463 249 459 249 249>
VStem: 226 23<0 360 0 360 380 659>
AnchorPoint: "Anchor-11" 238 0 basechar 0
AnchorPoint: "Anchor-10" 0 0 basechar 0
AnchorPoint: "Anchor-9" 227 681 basechar 0
AnchorPoint: "Anchor-8" 0 0 basechar 0
LayerCount: 2
Fore
SplineSet
249 659 m 1
 249 380 l 1
 375 380 l 1
 375 360 l 1
 249 360 l 1
 249 0 l 1
 226 0 l 1
 226 360 l 1
 104 360 l 1
 104 380 l 1
 226 380 l 1
 226 659 l 1
 16 659 l 1
 16 681 l 1
 463 681 l 1
 459 659 l 1
 249 659 l 1
EndSplineSet
Substitution2: "'c2sc' Capitals to Small Capitals lookup 23 subtable" tbar.sc
Substitution2: "'aalt' Access All Alternates lookup 0 subtable" tbar.sc
Position2: "'cpsp' Capital Spacing lookup 0 subtable" dx=5 dy=0 dh=10 dv=0
EndChar

StartChar: Utilde
Encoding: 360 360 111
Width: 640
GlyphClass: 2
Flags: MW
HStem: -10 22<254.5 387.5 254.5 394> 661 20G<113 136 136 136 505 528 528 528> 805 18<362 394 362 397.5> 848 19<251 283>
VStem: 113 23<207 210 210 681> 505 23<210 681>
AnchorPoint: "Anchor-11" 0 0 basechar 0
AnchorPoint: "Anchor-10" 0 0 basechar 0
AnchorPoint: "Anchor-9" 324 681 basechar 0
AnchorPoint: "Anchor-8" 404 0 basechar 0
LayerCount: 2
Fore
SplineSet
385 805 m 0
 333 805 300 848 266 848 c 0
 236 848 225 838 205 813 c 1
 192 820 l 1
 213 850 234 867 266 867 c 0xfc
 303 867 341 823 383 823 c 0
 405 823 420 834 442 865 c 1
 455 857 l 1
 433 819 410 805 385 805 c 0
528 207 m 2
 528 82 467 -10 321 -10 c 0
 172 -10 113 82 113 207 c 2
 113 681 l 1
 136 681 l 1
 136 210 l 2
 136 93 188 12 321 12 c 0
 454 12 505 95 505 210 c 2
 505 681 l 1
 528 681 l 1
 528 207 l 2
EndSplineSet
Substitution2: "'c2sc' Capitals to Small Capitals lookup 23 subtable" utilde.sc
Substitution2: "'aalt' Access All Alternates lookup 0 subtable" utilde.sc
Position2: "'cpsp' Capital Spacing lookup 0 subtable" dx=5 dy=0 dh=10 dv=0
EndChar

StartChar: utilde
Encoding: 361 361 249
Width: 576
GlyphClass: 2
Flags: MW
HStem: -10 21<221.5 302 221.5 302> 0 21G<439 459 439 439> 499 20G<113 135 135 135 437 459 459 459> 679 18<326 358 326 361.5> 711 20G<419 419> 722 19<215 247>
VStem: 113 22<149 151 151 519> 437 22<133 519>
AnchorPoint: "Anchor-11" 0 0 basechar 0
AnchorPoint: "Anchor-10" 0 0 basechar 0
AnchorPoint: "Anchor-9" 287 519 basechar 0
AnchorPoint: "Anchor-8" 469 0 basechar 0
LayerCount: 2
Fore
SplineSet
349 679 m 0xbb
 297 679 264 722 230 722 c 0
 200 722 189 712 169 687 c 1
 156 694 l 1
 177 724 198 741 230 741 c 0xa7
 267 741 305 697 347 697 c 0xb7
 369 697 384 708 406 739 c 1xa7
 419 731 l 1
 397 693 374 679 349 679 c 0xbb
459 0 m 1x67
 439 0 l 1x67
 439 106 l 1
 403 41 345 -10 259 -10 c 0
 167 -10 113 46 113 149 c 2
 113 519 l 1
 135 519 l 1
 135 151 l 2
 135 56 181 11 262 11 c 0xa7
 342 11 396 61 437 133 c 1
 437 519 l 1
 459 519 l 1
 459 0 l 1x67
EndSplineSet
Substitution2: "'smcp' Lowercase to Small Capitals lookup 24 subtable" utilde.sc
Substitution2: "'aalt' Access All Alternates lookup 0 subtable" utilde.sc
EndChar
StartChar: umacron
Encoding: 363 363 684
Width: 576
GlyphClass: 2
Flags: MW
HStem: -10 21<221.5 302 221.5 302> 0 21G<439 459 439 439> 499 20G<113 135 135 135 437 459 459 459> 685 21<184 391 184 391>
VStem: 113 22<149 151 151 519> 437 22<133 519 0 519>
AnchorPoint: "Anchor-14" 0 0 basechar 0
AnchorPoint: "Anchor-13" 469 519 basechar 0
AnchorPoint: "Anchor-12" 290 706 basechar 0
AnchorPoint: "Anchor-11" 469 0 basechar 0
AnchorPoint: "Anchor-10" 287 0 basechar 0
LayerCount: 2
Back
Fore
SplineSet
391 685 m 1xbc
 184 685 l 1
 184 706 l 1
 391 706 l 1
 391 685 l 1xbc
459 519 m 1
 459 0 l 1
 439 0 l 1x7c
 439 106 l 1
 403 41 345 -10 259 -10 c 0
 167 -10 113 46 113 149 c 2
 113 519 l 1
 135 519 l 1
 135 151 l 2
 135 56 181 11 262 11 c 0
 342 11 396 61 437 133 c 1
 437 519 l 1
 459 519 l 1
EndSplineSet
Substitution2: "'smcp' Lowercase to Small Capitals lookup 27 subtable" umacron.sc
Substitution2: "'aalt' Access All Alternates lookup 0 subtable" umacron.sc
EndChar

StartChar: Ubreve
Encoding: 364 364 103
Width: 640
GlyphClass: 2
Flags: MW
HStem: -10 22<254.5 387.5 254.5 394> 661 20G<113 136 136 136 505 528 528 528> 772 20<299.5 348.5 299.5 352.5>
VStem: 113 23<207 210 210 681> 505 23<210 681>
AnchorPoint: "Anchor-11" 0 0 basechar 0
AnchorPoint: "Anchor-10" 0 0 basechar 0
AnchorPoint: "Anchor-9" 324 681 basechar 0
AnchorPoint: "Anchor-8" 404 0 basechar 0
LayerCount: 2
Fore
SplineSet
324 772 m 0
 268 772 227 806 217 847 c 1
 232 850 l 1
 243 818 275 792 324 792 c 0
 373 792 405 818 417 850 c 1
 432 847 l 1
 422 806 381 772 324 772 c 0
528 207 m 2
 528 82 467 -10 321 -10 c 0
 172 -10 113 82 113 207 c 2
 113 681 l 1
 136 681 l 1
 136 210 l 2
 136 93 188 12 321 12 c 0
 454 12 505 95 505 210 c 2
 505 681 l 1
 528 681 l 1
 528 207 l 2
EndSplineSet
Substitution2: "'c2sc' Capitals to Small Capitals lookup 23 subtable" ubreve.sc
Substitution2: "'aalt' Access All Alternates lookup 0 subtable" ubreve.sc
Position2: "'cpsp' Capital Spacing lookup 0 subtable" dx=5 dy=0 dh=10 dv=0
EndChar

StartChar: ubreve
Encoding: 365 365 241
Width: 576
GlyphClass: 2
Flags: MW
HStem: -10 21<221.5 302 221.5 302> 0 21G<439 459 439 439> 499 20G<113 135 135 135 437 459 459 459> 663 20<262.5 311.5 262.5 315.5>
VStem: 113 22<149 151 151 519> 437 22<133 519>
AnchorPoint: "Anchor-11" 0 0 basechar 0
AnchorPoint: "Anchor-10" 0 0 basechar 0
AnchorPoint: "Anchor-9" 287 519 basechar 0
AnchorPoint: "Anchor-8" 469 0 basechar 0
LayerCount: 2
Fore
SplineSet
287 663 m 0xbc
 231 663 190 697 180 748 c 1
 195 752 l 1
 206 709 238 683 287 683 c 0
 336 683 368 709 380 752 c 1
 395 748 l 1
 385 697 344 663 287 663 c 0xbc
459 0 m 1x7c
 439 0 l 1x7c
 439 106 l 1
 403 41 345 -10 259 -10 c 0
 167 -10 113 46 113 149 c 2
 113 519 l 1
 135 519 l 1
 135 151 l 2
 135 56 181 11 262 11 c 0xbc
 342 11 396 61 437 133 c 1
 437 519 l 1
 459 519 l 1
 459 0 l 1x7c
EndSplineSet
Substitution2: "'smcp' Lowercase to Small Capitals lookup 24 subtable" ubreve.sc
Substitution2: "'aalt' Access All Alternates lookup 0 subtable" ubreve.sc
EndChar

StartChar: Uring
Encoding: 366 366 110
Width: 640
GlyphClass: 2
Flags: MW
HStem: -10 22<254.5 387.5 254.5 394> 661 20G<113 136 136 136 505 528 528 528> 770 18<306.5 344 306.5 349> 909 18<306.5 344>
VStem: 113 23<207 210 210 681> 246 21<829.5 867 829.5 872> 384 21<830 867.5> 505 23<210 681>
AnchorPoint: "Anchor-11" 0 0 basechar 0
AnchorPoint: "Anchor-10" 0 0 basechar 0
AnchorPoint: "Anchor-9" 324 681 basechar 0
AnchorPoint: "Anchor-8" 404 0 basechar 0
LayerCount: 2
Fore
SplineSet
325 927 m 0
 374 927 405 896 405 849 c 0
 405 801 373 770 325 770 c 0
 277 770 246 801 246 848 c 0
 246 896 278 927 325 927 c 0
325 909 m 0
 288 909 267 886 267 848 c 0
 267 811 288 788 325 788 c 0
 363 788 384 811 384 849 c 0
 384 886 363 909 325 909 c 0
528 207 m 2
 528 82 467 -10 321 -10 c 0
 172 -10 113 82 113 207 c 2
 113 681 l 1
 136 681 l 1
 136 210 l 2
 136 93 188 12 321 12 c 0
 454 12 505 95 505 210 c 2
 505 681 l 1
 528 681 l 1
 528 207 l 2
EndSplineSet
Substitution2: "'c2sc' Capitals to Small Capitals lookup 23 subtable" uring.sc
Substitution2: "'aalt' Access All Alternates lookup 0 subtable" uring.sc
Position2: "'cpsp' Capital Spacing lookup 0 subtable" dx=5 dy=0 dh=10 dv=0
EndChar

StartChar: Uhungarumlaut
Encoding: 368 368 107
Width: 640
GlyphClass: 2
Flags: MW
HStem: -10 22<254.5 387.5 254.5 394> 661 20G<113 136 136 136 505 528 528 528>
VStem: 113 23<207 210 210 681> 505 23<210 681>
AnchorPoint: "Anchor-11" 0 0 basechar 0
AnchorPoint: "Anchor-10" 0 0 basechar 0
AnchorPoint: "Anchor-9" 324 681 basechar 0
AnchorPoint: "Anchor-8" 404 0 basechar 0
LayerCount: 2
Fore
SplineSet
453 906 m 1
 375 778 l 1
 359 787 l 1
 430 917 l 1
 453 906 l 1
343 904 m 1
 272 782 l 1
 256 790 l 1
 321 916 l 1
 343 904 l 1
528 207 m 2
 528 82 467 -10 321 -10 c 0
 172 -10 113 82 113 207 c 2
 113 681 l 1
 136 681 l 1
 136 210 l 2
 136 93 188 12 321 12 c 0
 454 12 505 95 505 210 c 2
 505 681 l 1
 528 681 l 1
 528 207 l 2
EndSplineSet
Substitution2: "'c2sc' Capitals to Small Capitals lookup 23 subtable" uhungarumlaut.sc
Substitution2: "'aalt' Access All Alternates lookup 0 subtable" uhungarumlaut.sc
Position2: "'cpsp' Capital Spacing lookup 0 subtable" dx=5 dy=0 dh=10 dv=0
EndChar

StartChar: uhungarumlaut
Encoding: 369 369 245
Width: 576
GlyphClass: 2
Flags: MW
HStem: -10 21<221.5 302 221.5 302> 0 21G<439 459 439 439> 499 20G<113 135 135 135 437 459 459 459>
VStem: 113 22<149 151 151 519> 437 22<133 519>
AnchorPoint: "Anchor-11" 0 0 basechar 0
AnchorPoint: "Anchor-10" 0 0 basechar 0
AnchorPoint: "Anchor-9" 287 519 basechar 0
AnchorPoint: "Anchor-8" 469 0 basechar 0
LayerCount: 2
Fore
SplineSet
418 780 m 1xb8
 340 652 l 1
 324 661 l 1
 395 791 l 1
 418 780 l 1xb8
308 778 m 1
 237 656 l 1
 221 664 l 1
 286 790 l 1
 308 778 l 1
459 0 m 1x78
 439 0 l 1x78
 439 106 l 1
 403 41 345 -10 259 -10 c 0
 167 -10 113 46 113 149 c 2
 113 519 l 1
 135 519 l 1
 135 151 l 2
 135 56 181 11 262 11 c 0xb8
 342 11 396 61 437 133 c 1
 437 519 l 1
 459 519 l 1
 459 0 l 1x78
EndSplineSet
Substitution2: "'smcp' Lowercase to Small Capitals lookup 24 subtable" uhungarumlaut.sc
Substitution2: "'aalt' Access All Alternates lookup 0 subtable" uhungarumlaut.sc
EndChar
StartChar: Uogonek
Encoding: 370 370 286
Width: 640
GlyphClass: 2
Flags: MW
HStem: -203 22<318 347.5> -196 21G<392 392> -10 22<254.5 324.5> 661 20G<113 136 136 136 505 528 528 528>
VStem: 113 23<207 210 210 681> 245 24<-139.5 -96.5> 505 23<210 681>
AnchorPoint: "Anchor-14" 0 0 basechar 0
AnchorPoint: "Anchor-13" 538 681 basechar 0
AnchorPoint: "Anchor-12" 321 681 basechar 0
AnchorPoint: "Anchor-11" 404 0 basechar 0
AnchorPoint: "Anchor-10" 321 0 basechar 0
LayerCount: 2
Back
Fore
SplineSet
505 681 m 1xbe
 528 681 l 1
 528 207 l 2
 528 104 487 24 391 -1 c 1
 322 -32 269 -64 269 -121 c 0
 269 -158 295 -181 341 -181 c 0xbe
 359 -181 373 -179 394 -174 c 1x7e
 392 -196 l 1
 371 -201 357 -203 338 -203 c 0
 275 -203 245 -169 245 -121 c 0
 245 -72 282 -37 342 -9 c 1
 335 -9 328 -10 321 -10 c 0
 173 -10 113 82 113 207 c 2
 113 681 l 1
 136 681 l 1
 136 210 l 2
 136 93 188 12 321 12 c 0
 454 12 505 95 505 210 c 2
 505 681 l 1xbe
EndSplineSet
Substitution2: "'c2sc' Capitals to Small Capitals lookup 26 subtable" uogonek.sc
Substitution2: "'aalt' Access All Alternates lookup 0 subtable" uogonek.sc
Position2: "'cpsp' Capital Spacing lookup 0 subtable" dx=5 dy=0 dh=10 dv=0
EndChar

StartChar: uogonek
Encoding: 371 371 247
Width: 576
GlyphClass: 2
Flags: MW
HStem: -203 22<383 412.5> -196 21G<457 457> -10 21<221.5 302 221.5 302> 0 21G<459 459> 499 20G<113 135 135 135 437 459 459 459>
VStem: 113 22<149 151 151 519> 310 24<-139.5 -92 -139.5 -92> 437 22<133 519>
AnchorPoint: "Anchor-11" 0 0 basechar 0
AnchorPoint: "Anchor-10" 0 0 basechar 0
AnchorPoint: "Anchor-9" 287 519 basechar 0
AnchorPoint: "Anchor-8" 469 0 basechar 0
LayerCount: 2
Fore
SplineSet
459 0 m 1x9f
 388 -31 334 -63 334 -121 c 0
 334 -158 360 -181 406 -181 c 0xaf
 424 -181 438 -179 459 -174 c 1x6f
 457 -196 l 1
 436 -201 422 -203 403 -203 c 0
 340 -203 310 -169 310 -121 c 0
 310 -63 362 -25 439 8 c 1
 439 106 l 1
 403 41 345 -10 259 -10 c 0
 167 -10 113 46 113 149 c 2
 113 519 l 1
 135 519 l 1
 135 151 l 2
 135 56 181 11 262 11 c 0xaf
 342 11 396 61 437 133 c 1
 437 519 l 1
 459 519 l 1
 459 0 l 1x9f
EndSplineSet
Substitution2: "'smcp' Lowercase to Small Capitals lookup 24 subtable" uogonek.sc
Substitution2: "'aalt' Access All Alternates lookup 0 subtable" uogonek.sc
EndChar
StartChar: Wcircumflex
Encoding: 372 372 296
Width: 790
GlyphClass: 2
Flags: MW
HStem: 0 23<212 212 212 223 197 212> 659 22<395 395> 845 24<395 395>
VStem: 38 714<681 681>
AnchorPoint: "Anchor-14" 0 0 basechar 0
AnchorPoint: "Anchor-13" 475 721 basechar 0
AnchorPoint: "Anchor-12" 394 869 basechar 0
AnchorPoint: "Anchor-11" 0 0 basechar 0
AnchorPoint: "Anchor-10" 0 0 basechar 0
LayerCount: 2
Back
Fore
SplineSet
509 766 m 1
 395 845 l 1
 280 766 l 1
 269 780 l 1
 389 869 l 1
 401 869 l 1
 521 780 l 1
 509 766 l 1
752 681 m 1
 593 0 l 1
 567 0 l 1
 395 659 l 1
 223 0 l 1
 197 0 l 1
 38 681 l 1
 62 681 l 1
 212 23 l 1
 381 681 l 1
 409 681 l 1
 580 24 l 1
 729 681 l 1
 752 681 l 1
EndSplineSet
Substitution2: "'c2sc' Capitals to Small Capitals lookup 26 subtable" wcircumflex.sc
Substitution2: "'aalt' Access All Alternates lookup 0 subtable" wcircumflex.sc
Position2: "'cpsp' Capital Spacing lookup 0 subtable" dx=5 dy=0 dh=10 dv=0
EndChar
StartChar: wcircumflex
Encoding: 373 373 696
Width: 680
GlyphClass: 2
Flags: MW
HStem: 0 21<186 186 186 200 171 186> 497 22<341 341> 738 24<340 340>
VStem: 33 614<519 519>
AnchorPoint: "Anchor-14" 0 0 basechar 0
AnchorPoint: "Anchor-13" 0 0 basechar 0
AnchorPoint: "Anchor-12" 342 762 basechar 0
AnchorPoint: "Anchor-11" 0 0 basechar 0
AnchorPoint: "Anchor-10" 341 0 basechar 0
LayerCount: 2
Back
Fore
SplineSet
225 654 m 1
 214 667 l 1
 334 762 l 1
 346 762 l 1
 466 667 l 1
 454 654 l 1
 340 738 l 1
 225 654 l 1
647 519 m 1
 511 0 l 1
 482 0 l 1
 341 497 l 1
 200 0 l 1
 171 0 l 1
 33 519 l 1
 57 519 l 1
 186 21 l 1
 328 519 l 1
 355 519 l 1
 496 21 l 1
 624 519 l 1
 647 519 l 1
EndSplineSet
Substitution2: "'smcp' Lowercase to Small Capitals lookup 27 subtable" wcircumflex.sc
Substitution2: "'aalt' Access All Alternates lookup 0 subtable" wcircumflex.sc
EndChar
StartChar: Ycircumflex
Encoding: 374 374 304
Width: 494
GlyphClass: 2
Flags: MW
HStem: 0 21G<237 260 237 237> 661 20G<21 47 47 47 447 473 473 473> 845 24<247 247>
VStem: 237 23<0 270 270 270>
AnchorPoint: "Anchor-14" 0 0 basechar 0
AnchorPoint: "Anchor-13" 327 721 basechar 0
AnchorPoint: "Anchor-12" 246 869 basechar 0
AnchorPoint: "Anchor-11" 0 0 basechar 0
AnchorPoint: "Anchor-10" 249 0 basechar 0
LayerCount: 2
Back
Fore
SplineSet
361 766 m 1
 247 845 l 1
 132 766 l 1
 121 780 l 1
 241 869 l 1
 253 869 l 1
 373 780 l 1
 361 766 l 1
473 681 m 1
 260 271 l 1
 260 0 l 1
 237 0 l 1
 237 270 l 1
 21 681 l 1
 47 681 l 1
 249 290 l 1
 447 681 l 1
 473 681 l 1
EndSplineSet
Substitution2: "'c2sc' Capitals to Small Capitals lookup 26 subtable" ycircumflex.sc
Substitution2: "'aalt' Access All Alternates lookup 0 subtable" ycircumflex.sc
Position2: "'cpsp' Capital Spacing lookup 0 subtable" dx=5 dy=0 dh=10 dv=0
EndChar
StartChar: ycircumflex
Encoding: 375 375 705
Width: 444
GlyphClass: 2
Flags: MW
HStem: -195 21G<59 59> 0 16<210 225 210 225> 0 21G<210 219 210 210> 499 20G<23 47 47 47 396 421 421 421> 738 24<222 222>
VStem: 23 398<519 519>
AnchorPoint: "Anchor-14" 0 0 basechar 0
AnchorPoint: "Anchor-13" 0 0 basechar 0
AnchorPoint: "Anchor-12" 224 762 basechar 0
AnchorPoint: "Anchor-11" 0 0 basechar 0
AnchorPoint: "Anchor-10" 226 -192 basechar 0
LayerCount: 2
Back
Fore
SplineSet
107 654 m 1xbc
 96 667 l 1
 216 762 l 1
 228 762 l 1
 348 667 l 1
 336 654 l 1
 222 738 l 1
 107 654 l 1xbc
421 519 m 1
 240 -1 l 2
 200 -116 169 -163 59 -195 c 1
 56 -177 l 1
 159 -146 181 -103 219 0 c 1
 210 0 l 1
 23 519 l 1
 47 519 l 1
 225 16 l 1xdc
 396 519 l 1
 421 519 l 1
EndSplineSet
Substitution2: "'smcp' Lowercase to Small Capitals lookup 27 subtable" ycircumflex.sc
Substitution2: "'aalt' Access All Alternates lookup 0 subtable" ycircumflex.sc
EndChar

StartChar: Ydieresis
Encoding: 376 376 122
Width: 494
GlyphClass: 2
Flags: MW
HStem: 0 21G<237 260 237 237> 661 20G<21 47 47 47 447 473 473 473> 799 39<155 167 320.5 333> 818 20<155 167 320.5 333>
VStem: 237 23<0 270 270 270> 306 40<812.5 823.5>
AnchorPoint: "Anchor-11" 0 0 basechar 0
AnchorPoint: "Anchor-10" 15 681 basechar 0
AnchorPoint: "Anchor-9" 244 747 basechar 0
AnchorPoint: "Anchor-8" 0 0 basechar 0
LayerCount: 2
Fore
SplineSet
161 838 m 0xe8
 173 838 181 829 181 818 c 0
 181 807 173 799 161 799 c 0
 149 799 141 807 141 818 c 0
 141 829 149 838 161 838 c 0xe8
327 838 m 0xdc
 339 838 346 829 346 818 c 0
 346 807 339 799 327 799 c 0
 314 799 306 807 306 818 c 0
 306 829 314 838 327 838 c 0xdc
260 271 m 1
 260 0 l 1
 237 0 l 1
 237 270 l 1
 21 681 l 1
 47 681 l 1
 249 290 l 1
 447 681 l 1
 473 681 l 1
 260 271 l 1
EndSplineSet
Substitution2: "'c2sc' Capitals to Small Capitals lookup 23 subtable" ydieresis.sc
Substitution2: "'aalt' Access All Alternates lookup 0 subtable" ydieresis.sc
Position2: "'cpsp' Capital Spacing lookup 0 subtable" dx=5 dy=0 dh=10 dv=0
EndChar

StartChar: Zacute
Encoding: 377 377 125
Width: 509
GlyphClass: 2
Flags: MW
HStem: 0 22<69 443> 660 21<79 432 79 459>
VStem: 41 418
AnchorPoint: "Anchor-11" 0 0 basechar 0
AnchorPoint: "Anchor-10" 0 0 basechar 0
AnchorPoint: "Anchor-9" 255 681 basechar 0
AnchorPoint: "Anchor-8" 0 0 basechar 0
LayerCount: 2
Fore
SplineSet
354 838 m 1
 175 764 l 1
 168 779 l 1
 342 861 l 1
 354 838 l 1
459 662 m 1
 69 22 l 1
 446 22 l 1
 443 0 l 1
 41 0 l 1
 41 21 l 1
 432 660 l 1
 79 660 l 1
 79 681 l 1
 459 681 l 1
 459 662 l 1
EndSplineSet
Substitution2: "'c2sc' Capitals to Small Capitals lookup 23 subtable" zacute.sc
Substitution2: "'locl' Localized Forms in Latin lookup 7 subtable" Zacute.loclPLK
AlternateSubs2: "'aalt' Access All Alternates lookup 1 subtable" Zacute.loclPLK zacute.sc
Position2: "'cpsp' Capital Spacing lookup 0 subtable" dx=5 dy=0 dh=10 dv=0
EndChar

StartChar: zacute
Encoding: 378 378 263
Width: 410
GlyphClass: 2
Flags: MW
HStem: 0 21<59 364> 499 20<58 346 58 374>
VStem: 31 343
AnchorPoint: "Anchor-11" 0 0 basechar 0
AnchorPoint: "Anchor-10" 0 0 basechar 0
AnchorPoint: "Anchor-9" 214 519 basechar 0
AnchorPoint: "Anchor-8" 0 0 basechar 0
LayerCount: 2
Fore
SplineSet
298 738 m 1
 120 654 l 1
 112 670 l 1
 288 761 l 1
 298 738 l 1
374 501 m 1
 59 21 l 1
 366 21 l 1
 364 0 l 1
 31 0 l 1
 31 18 l 1
 346 499 l 1
 58 499 l 1
 58 519 l 1
 374 519 l 1
 374 501 l 1
EndSplineSet
Substitution2: "'smcp' Lowercase to Small Capitals lookup 24 subtable" zacute.sc
Substitution2: "'locl' Localized Forms in Latin lookup 7 subtable" zacute.loclPLK
AlternateSubs2: "'aalt' Access All Alternates lookup 1 subtable" zacute.loclPLK zacute.sc
EndChar

StartChar: Zdotaccent
Encoding: 379 379 127
Width: 509
GlyphClass: 2
Flags: MW
HStem: 0 22<69 443> 660 21<79 432 79 459> 811 39<249 262>
VStem: 255 21
AnchorPoint: "Anchor-11" 0 0 basechar 0
AnchorPoint: "Anchor-10" 0 0 basechar 0
AnchorPoint: "Anchor-9" 255 681 basechar 0
AnchorPoint: "Anchor-8" 0 0 basechar 0
LayerCount: 2
Fore
SplineSet
255 850 m 0
 269 850 276 840 276 830 c 0
 276 820 269 811 255 811 c 0
 243 811 235 820 235 830 c 0
 235 840 243 850 255 850 c 0
459 662 m 1
 69 22 l 1
 446 22 l 1
 443 0 l 1
 41 0 l 1
 41 21 l 1
 432 660 l 1
 79 660 l 1
 79 681 l 1
 459 681 l 1
 459 662 l 1
EndSplineSet
Substitution2: "'c2sc' Capitals to Small Capitals lookup 23 subtable" zdotaccent.sc
Substitution2: "'aalt' Access All Alternates lookup 0 subtable" zdotaccent.sc
Position2: "'cpsp' Capital Spacing lookup 0 subtable" dx=5 dy=0 dh=10 dv=0
EndChar
StartChar: zdotaccent
Encoding: 380 380 721
Width: 410
GlyphClass: 2
Flags: MW
HStem: 0 21<59 364> 499 20<58 346 58 374> 685 39<208 221>
VStem: 214 21
AnchorPoint: "Anchor-14" 0 0 basechar 0
AnchorPoint: "Anchor-13" 0 0 basechar 0
AnchorPoint: "Anchor-12" 214 662 basechar 0
AnchorPoint: "Anchor-11" 0 0 basechar 0
AnchorPoint: "Anchor-10" 207 0 basechar 0
LayerCount: 2
Back
Fore
SplineSet
214 724 m 0
 228 724 235 714 235 704 c 0
 235 694 228 685 214 685 c 0
 202 685 194 694 194 704 c 0
 194 714 202 724 214 724 c 0
374 519 m 1
 374 501 l 1
 59 21 l 1
 366 21 l 1
 364 0 l 1
 31 0 l 1
 31 18 l 1
 346 499 l 1
 58 499 l 1
 58 519 l 1
 374 519 l 1
EndSplineSet
Substitution2: "'smcp' Lowercase to Small Capitals lookup 27 subtable" zdotaccent.sc
Substitution2: "'aalt' Access All Alternates lookup 0 subtable" zdotaccent.sc
EndChar

StartChar: Zcaron
Encoding: 381 381 126
Width: 509
GlyphClass: 2
Flags: MW
HStem: 0 22<69 443> 660 21<79 432 79 459> 760 24<260 260 260 266 254 260>
VStem: 41 418
AnchorPoint: "Anchor-11" 0 0 basechar 0
AnchorPoint: "Anchor-10" 0 0 basechar 0
AnchorPoint: "Anchor-9" 255 681 basechar 0
AnchorPoint: "Anchor-8" 0 0 basechar 0
LayerCount: 2
Fore
SplineSet
386 850 m 1
 266 760 l 1
 254 760 l 1
 134 850 l 1
 145 863 l 1
 260 784 l 1
 374 863 l 1
 386 850 l 1
459 662 m 1
 69 22 l 1
 446 22 l 1
 443 0 l 1
 41 0 l 1
 41 21 l 1
 432 660 l 1
 79 660 l 1
 79 681 l 1
 459 681 l 1
 459 662 l 1
EndSplineSet
Substitution2: "'c2sc' Capitals to Small Capitals lookup 23 subtable" zcaron.sc
Substitution2: "'aalt' Access All Alternates lookup 0 subtable" zcaron.sc
Position2: "'cpsp' Capital Spacing lookup 0 subtable" dx=5 dy=0 dh=10 dv=0
EndChar
StartChar: zcaron
Encoding: 382 382 719
Width: 410
GlyphClass: 2
Flags: MW
HStem: 0 21<59 364> 499 20<58 346 58 374> 641 24<214 214 214 220 208 214> 716 20G<88 88 340 340>
VStem: 31 343
AnchorPoint: "Anchor-14" 0 0 basechar 0
AnchorPoint: "Anchor-13" 0 0 basechar 0
AnchorPoint: "Anchor-12" 216 749 basechar 0
AnchorPoint: "Anchor-11" 0 0 basechar 0
AnchorPoint: "Anchor-10" 207 0 basechar 0
LayerCount: 2
Back
Fore
SplineSet
328 749 m 1
 340 736 l 1
 220 641 l 1
 208 641 l 1
 88 736 l 1
 99 749 l 1
 214 665 l 1
 328 749 l 1
374 519 m 1
 374 501 l 1
 59 21 l 1
 366 21 l 1
 364 0 l 1
 31 0 l 1
 31 18 l 1
 346 499 l 1
 58 499 l 1
 58 519 l 1
 374 519 l 1
EndSplineSet
Substitution2: "'smcp' Lowercase to Small Capitals lookup 27 subtable" zcaron.sc
Substitution2: "'aalt' Access All Alternates lookup 0 subtable" zcaron.sc
EndChar
StartChar: uni0183
Encoding: 387 387 379
Width: 569
GlyphClass: 2
Flags: MW
HStem: -10 21<265.5 355.5 265.5 364> 0 21G<118 137 118 118> 509 20<270 360.5> 711 21<140 380 140 140>
VStem: 118 20 469 22<183.5 344>
LayerCount: 2
Back
Fore
SplineSet
308 529 m 0xbc
 426 529 491 435 491 264 c 0
 491 94 426 -10 302 -10 c 0
 227 -10 173 31 139 80 c 1xbc
 137 0 l 1
 118 0 l 1x7c
 118 732 l 1
 384 732 l 1
 380 711 l 1
 140 711 l 1
 140 436 l 1
 179 490 232 529 308 529 c 0xbc
301 11 m 0
 410 11 469 103 469 264 c 0
 469 424 413 509 308 509 c 0
 231 509 184 469 140 410 c 1
 140 107 l 1
 178 50 230 11 301 11 c 0
EndSplineSet
Substitution2: "'smcp' Lowercase to Small Capitals lookup 27 subtable" uni0183.sc
Substitution2: "'aalt' Access All Alternates lookup 0 subtable" uni0183.sc
EndChar
StartChar: uni0184
Encoding: 388 388 259
Width: 550
GlyphClass: 2
Flags: MW
HStem: 0 21<146 277> 387 21<146 276 276 278 146 276> 661 20G<126 146 146 146>
VStem: 123 23<21 387 408 587 587 587> 478 23<146.5 272.5>
LayerCount: 2
Back
Fore
SplineSet
276 408 m 2
 418 408 501 344 501 212 c 0
 501 66 410 0 277 0 c 2
 123 0 l 1
 123 587 l 1
 91 609 l 1
 107 626 120 649 126 681 c 1
 146 681 l 1
 146 408 l 1
 276 408 l 2
283 21 m 2
 402 21 478 80 478 213 c 0
 478 332 404 387 278 387 c 2
 146 387 l 1
 146 21 l 1
 283 21 l 2
EndSplineSet
Substitution2: "'c2sc' Capitals to Small Capitals lookup 26 subtable" uni0185.sc
Substitution2: "'aalt' Access All Alternates lookup 0 subtable" uni0185.sc
Position2: "'cpsp' Capital Spacing lookup 0 subtable" dx=5 dy=0 dh=10 dv=0
EndChar
StartChar: uni0186
Encoding: 390 390 211
Width: 538
GlyphClass: 2
Flags: MW
HStem: -10 22<163 266.5 163 274.5> 670 21<176 276>
VStem: 437 23<231.5 455>
AnchorPoint: "Anchor-14" 212 343 basechar 0
AnchorPoint: "Anchor-13" 0 0 basechar 0
AnchorPoint: "Anchor-12" 213 681 basechar 0
AnchorPoint: "Anchor-11" 0 0 basechar 0
AnchorPoint: "Anchor-10" 213 0 basechar 0
LayerCount: 2
Back
Fore
SplineSet
211 691 m 0
 357 691 460 577 460 340 c 0
 460 113 349 -10 200 -10 c 0
 119 -10 67 19 25 54 c 1
 39 70 l 1
 82 37 126 12 200 12 c 0
 333 12 437 123 437 340 c 0
 437 570 342 670 210 670 c 0
 142 670 93 651 46 617 c 1
 34 633 l 1
 79 667 134 691 211 691 c 0
EndSplineSet
Substitution2: "'c2sc' Capitals to Small Capitals lookup 26 subtable" uni0254.sc
Substitution2: "'aalt' Access All Alternates lookup 0 subtable" uni0254.sc
Position2: "'cpsp' Capital Spacing lookup 0 subtable" dx=5 dy=0 dh=10 dv=0
EndChar
StartChar: uni0187
Encoding: 391 391 50
Width: 538
GlyphClass: 2
Flags: MW
HStem: -10 22<274 380.5 274 381.5> 670 21<277.5 375 269.5 378.5> 794 20<559 598>
VStem: 78 23<231.5 455 231.5 458.5> 483 22<648 702 633 703 633 740>
LayerCount: 2
Back
Fore
SplineSet
580 814 m 0
 622 814 649 799 669 784 c 1
 658 769 l 1
 638 783 616 794 580 794 c 0
 538 794 505 769 505 702 c 2
 505 633 l 1
 493 618 l 1
 449 651 411 670 346 670 c 0
 209 670 101 570 101 340 c 0
 101 123 206 12 342 12 c 0
 419 12 461 39 499 71 c 1
 513 54 l 1
 472 19 421 -10 342 -10 c 0
 189 -10 78 113 78 340 c 0
 78 577 195 691 344 691 c 0
 406 691 449 673 483 648 c 1
 483 703 l 2
 483 777 522 814 580 814 c 0
EndSplineSet
Substitution2: "'c2sc' Capitals to Small Capitals lookup 26 subtable" uni0188.sc
Substitution2: "'aalt' Access All Alternates lookup 0 subtable" uni0188.sc
Position2: "'cpsp' Capital Spacing lookup 0 subtable" dx=5 dy=0 dh=10 dv=0
EndChar
StartChar: uni0188
Encoding: 392 392 388
Width: 464
GlyphClass: 2
Flags: MW
HStem: -10 21<229 310 229 313> 509 20<229 306 219.5 309.5> 717 20<472 511>
VStem: 73 23<176 338.5 176 341.5> 396 22<495 625 479 626 479 663>
LayerCount: 2
Back
Fore
SplineSet
493 737 m 0
 535 737 562 721 582 706 c 1
 571 692 l 1
 551 705 529 717 493 717 c 0
 451 717 418 692 418 625 c 2
 418 479 l 1
 407 466 l 1
 372 492 335 509 284 509 c 0
 174 509 96 420 96 257 c 0
 96 95 175 11 283 11 c 0
 337 11 377 30 411 60 c 1
 423 44 l 1
 387 12 342 -10 284 -10 c 0
 159 -10 73 87 73 257 c 0
 73 426 156 529 283 529 c 0
 329 529 363 518 396 495 c 1
 396 626 l 2
 396 700 436 737 493 737 c 0
EndSplineSet
Substitution2: "'smcp' Lowercase to Small Capitals lookup 27 subtable" uni0188.sc
Substitution2: "'aalt' Access All Alternates lookup 0 subtable" uni0188.sc
EndChar
StartChar: uni0189
Encoding: 393 393 55
Width: 617
GlyphClass: 2
Flags: MW
HStem: 0 21<144 247> 341 22<26 121 26 121 144 335> 660 21<144 241 144 144>
VStem: 121 23<21 341 21 341 21 341 363 660> 516 24<215 482.5>
AnchorPoint: "Anchor-14" 312 341 basechar 0
AnchorPoint: "Anchor-13" 0 0 basechar 0
AnchorPoint: "Anchor-12" 292 681 basechar 0
AnchorPoint: "Anchor-11" 0 0 basechar 0
AnchorPoint: "Anchor-10" 300 0 basechar 0
LayerCount: 2
Back
Fore
SplineSet
243 681 m 2
 388 681 540 627 540 348 c 0
 540 63 382 0 247 0 c 2
 121 0 l 1
 121 341 l 1
 26 341 l 1
 26 363 l 1
 121 363 l 1
 121 681 l 1
 243 681 l 2
248 21 m 2
 378 21 516 82 516 348 c 0
 516 617 374 660 241 660 c 2
 144 660 l 1
 144 363 l 1
 335 363 l 1
 335 341 l 1
 144 341 l 1
 144 21 l 1
 248 21 l 2
EndSplineSet
Substitution2: "'c2sc' Capitals to Small Capitals lookup 26 subtable" uni0189.sc
Substitution2: "'aalt' Access All Alternates lookup 0 subtable" uni0189.sc
Position2: "'cpsp' Capital Spacing lookup 0 subtable" dx=5 dy=0 dh=10 dv=0
EndChar
StartChar: uni018A
Encoding: 394 394 62
Width: 662
GlyphClass: 2
Flags: MW
HStem: 0 21<188 291> 660 21<188 285 188 188>
VStem: 23 22<567.5 606.5 567.5 613.5> 165 23<21 660 21 661 21 661> 561 23<215 482.5>
AnchorPoint: "Anchor-14" 357 341 basechar 0
AnchorPoint: "Anchor-13" 0 0 basechar 0
AnchorPoint: "Anchor-12" 337 681 basechar 0
AnchorPoint: "Anchor-11" 0 0 basechar 0
AnchorPoint: "Anchor-10" 345 0 basechar 0
LayerCount: 2
Back
Fore
SplineSet
287 681 m 2
 433 681 584 627 584 348 c 0
 584 63 427 0 291 0 c 2
 165 0 l 1
 165 661 l 1
 132 661 l 2
 71 661 45 629 45 584 c 0
 45 551 57 529 70 508 c 1
 53 498 l 1
 38 521 23 544 23 584 c 0
 23 643 61 681 135 681 c 2
 166 681 l 1
 287 681 l 2
292 21 m 2
 422 21 561 82 561 348 c 0
 561 617 418 660 285 660 c 2
 188 660 l 1
 188 21 l 1
 292 21 l 2
EndSplineSet
Substitution2: "'c2sc' Capitals to Small Capitals lookup 26 subtable" uni0257.sc
Substitution2: "'aalt' Access All Alternates lookup 0 subtable" uni0257.sc
Position2: "'cpsp' Capital Spacing lookup 0 subtable" dx=5 dy=0 dh=10 dv=0
EndChar
StartChar: uni018B
Encoding: 395 395 64
Width: 562
GlyphClass: 2
Flags: MW
HStem: 0 21<201.5 405 266 405 266 428> 384 21<213 405 279 405 279 405> 660 21<125 405 125 439>
VStem: 49 24<137 260 137 265.5> 405 23<21 384 384 384 405 660 660 660>
LayerCount: 2
Back
Fore
SplineSet
439 681 m 1
 428 665 l 1
 428 0 l 1
 264 0 l 2
 139 0 49 63 49 199 c 0
 49 332 135 405 279 405 c 2
 405 405 l 1
 405 660 l 1
 125 660 l 1
 125 681 l 1
 439 681 l 1
266 21 m 2
 405 21 l 1
 405 384 l 1
 278 384 l 2
 148 384 73 321 73 199 c 0
 73 75 149 21 266 21 c 2
EndSplineSet
Substitution2: "'c2sc' Capitals to Small Capitals lookup 26 subtable" uni018C.sc
Substitution2: "'aalt' Access All Alternates lookup 0 subtable" uni018C.sc
Position2: "'cpsp' Capital Spacing lookup 0 subtable" dx=5 dy=0 dh=10 dv=0
EndChar
StartChar: uni018C
Encoding: 396 396 405
Width: 574
GlyphClass: 2
Flags: MW
HStem: -10 21<218.5 311 218.5 313> 0 21G<437 456 437 437> 509 20<226 318.5> 711 21<192 434 192 456>
VStem: 78 23<179.5 258 179.5 338> 434 22<123 417 417 417 446 711 711 711>
LayerCount: 2
Back
Fore
SplineSet
456 732 m 1xbc
 456 0 l 1
 437 0 l 1x7c
 435 90 l 1
 405 37 357 -10 269 -10 c 0
 154 -10 78 89 78 258 c 0
 78 418 152 529 280 529 c 0
 361 529 408 486 434 446 c 1
 434 711 l 1
 192 711 l 1
 192 732 l 1
 456 732 l 1xbc
270 11 m 0xbc
 352 11 398 54 434 123 c 1
 434 417 l 1
 405 465 357 509 280 509 c 0
 172 509 100 413 101 258 c 0
 101 101 167 11 270 11 c 0xbc
EndSplineSet
Substitution2: "'smcp' Lowercase to Small Capitals lookup 27 subtable" uni018C.sc
Substitution2: "'aalt' Access All Alternates lookup 0 subtable" uni018C.sc
EndChar
StartChar: uni018D
Encoding: 397 397 400
Width: 557
GlyphClass: 2
Flags: MW
HStem: -197 21<235 305 235 306.5> 509 20<223.5 338.5>
VStem: 73 23<220 358 219 363.5> 126 23<-116.5 -64 -116.5 -61.5> 461 23<221 362>
LayerCount: 2
Back
Fore
SplineSet
272 -176 m 0
 338 -176 374 -164 416 -137 c 1
 430 -152 l 1
 385 -182 341 -197 272 -197 c 0
 184 -197 126 -153 126 -90 c 0xf8
 126 -33 161 2 245 36 c 1
 141 75 73 156 73 284 c 0xe8
 73 443 152 529 280 529 c 0
 409 529 484 449 484 287 c 0
 484 147 427 84 290 33 c 0
 178 -10 149 -38 149 -90 c 0xf8
 149 -143 198 -176 272 -176 c 0
96 284 m 0
 96 154 172 78 267 44 c 1
 414 99 461 155 461 287 c 0
 461 437 397 509 280 509 c 0
 167 509 96 432 96 284 c 0
EndSplineSet
EndChar
StartChar: uni018E
Encoding: 398 398 88
Width: 494
GlyphClass: 2
Flags: MW
HStem: 0 21<43 348 43 371 43 348> 349 21<94 348 94 348> 660 21<50 348 50 371>
VStem: 348 23<21 349 349 349 370 660 660 660>
LayerCount: 2
Back
Fore
SplineSet
50 681 m 1
 371 681 l 1
 371 0 l 1
 43 0 l 1
 43 21 l 1
 348 21 l 1
 348 349 l 1
 94 349 l 1
 94 370 l 1
 348 370 l 1
 348 660 l 1
 50 660 l 1
 50 681 l 1
EndSplineSet
Substitution2: "'c2sc' Capitals to Small Capitals lookup 26 subtable" uni0258.sc
Substitution2: "'aalt' Access All Alternates lookup 0 subtable" uni0258.sc
Position2: "'cpsp' Capital Spacing lookup 0 subtable" dx=5 dy=0 dh=10 dv=0
EndChar
StartChar: uni0191
Encoding: 401 401 97
Width: 471
GlyphClass: 2
Flags: MW
HStem: -197 21<30 69 30 76.5> 335 21<146 396 146 396> 660 21<146 436 146 146>
VStem: 123 23<-85 335 356 660>
AnchorPoint: "Anchor-14" 0 0 basechar 0
AnchorPoint: "Anchor-13" 0 0 basechar 0
AnchorPoint: "Anchor-12" 291 681 basechar 0
AnchorPoint: "Anchor-11" 0 0 basechar 0
AnchorPoint: "Anchor-10" 0 0 basechar 0
LayerCount: 2
Back
Fore
SplineSet
436 660 m 1
 146 660 l 1
 146 356 l 1
 396 356 l 1
 396 335 l 1
 146 335 l 1
 146 -86 l 2
 146 -160 105 -197 48 -197 c 0
 8 -197 -20 -182 -40 -167 c 1
 -29 -151 l 1
 -10 -165 12 -176 48 -176 c 0
 90 -176 123 -152 123 -85 c 2
 123 681 l 1
 439 681 l 1
 436 660 l 1
EndSplineSet
Substitution2: "'c2sc' Capitals to Small Capitals lookup 26 subtable" uni0191.sc
Substitution2: "'aalt' Access All Alternates lookup 0 subtable" uni0191.sc
Position2: "'cpsp' Capital Spacing lookup 0 subtable" dx=5 dy=0 dh=10 dv=0
EndChar

StartChar: florin
Encoding: 402 402 1064
Width: 305
Flags: MW
HStem: -195 21G<28 28> 499 20<29 119 29 119 141 284> 716 21<213 263 205.5 263.5>
VStem: 119 22<7 499 519 614>
LayerCount: 2
Fore
SplineSet
244 716 m 0
 182 716 141 686 141 614 c 2
 141 519 l 1
 288 519 l 1
 284 499 l 1
 141 499 l 1
 141 6 l 2
 141 -122 105 -155 28 -195 c 1
 22 -178 l 1
 90 -142 119 -111 119 7 c 2
 119 499 l 1
 29 499 l 1
 29 519 l 1
 119 519 l 1
 119 617 l 2
 119 695 169 737 242 737 c 0
 284 737 325 725 358 707 c 1
 350 690 l 1
 317 706 283 716 244 716 c 0
EndSplineSet
EndChar
StartChar: uni0196
Encoding: 406 406 134
Width: 324
GlyphClass: 2
Flags: MW
HStem: -10 21<190 229 190 231> 661 20G<113 136 136 136>
VStem: 113 23<101 102 102 681>
AnchorPoint: "Anchor-14" 0 0 basechar 0
AnchorPoint: "Anchor-13" 0 0 basechar 0
AnchorPoint: "Anchor-12" 125 681 basechar 0
AnchorPoint: "Anchor-11" 0 0 basechar 0
AnchorPoint: "Anchor-10" 193 0 basechar 0
LayerCount: 2
Back
Fore
SplineSet
288 36 m 1
 299 20 l 1
 279 5 251 -10 211 -10 c 0
 154 -10 113 27 113 101 c 2
 113 681 l 1
 136 681 l 1
 136 102 l 2
 136 36 169 11 211 11 c 0
 247 11 269 22 288 36 c 1
EndSplineSet
Substitution2: "'c2sc' Capitals to Small Capitals lookup 26 subtable" uni0196.sc
Substitution2: "'aalt' Access All Alternates lookup 0 subtable" uni0196.sc
Position2: "'cpsp' Capital Spacing lookup 0 subtable" dx=5 dy=0 dh=10 dv=0
EndChar
StartChar: uni0197
Encoding: 407 407 135
Width: 325
GlyphClass: 2
Flags: MW
HStem: 0 21G<151 174 151 151> 350 21<41 151 41 151 174 284> 661 20G<151 174 174 174>
VStem: 151 23<0 350 0 350 371 681>
AnchorPoint: "Anchor-14" 0 0 basechar 0
AnchorPoint: "Anchor-13" 0 0 basechar 0
AnchorPoint: "Anchor-12" 162 681 basechar 0
AnchorPoint: "Anchor-11" 184 0 basechar 0
AnchorPoint: "Anchor-10" 163 0 basechar 0
LayerCount: 2
Back
Fore
SplineSet
284 371 m 1
 284 350 l 1
 174 350 l 1
 174 0 l 1
 151 0 l 1
 151 350 l 1
 41 350 l 1
 41 371 l 1
 151 371 l 1
 151 681 l 1
 174 681 l 1
 174 371 l 1
 284 371 l 1
EndSplineSet
Substitution2: "'c2sc' Capitals to Small Capitals lookup 26 subtable" uni0268.sc
Substitution2: "'aalt' Access All Alternates lookup 0 subtable" uni0268.sc
Position2: "'cpsp' Capital Spacing lookup 0 subtable" dx=5 dy=0 dh=10 dv=0
EndChar
StartChar: uni0198
Encoding: 408 408 143
Width: 544
GlyphClass: 2
Flags: MW
HStem: 0 21G<123 146 123 123 478 506 478 478> 661 20G<123 146 146 146> 671 20<444 474.5>
VStem: 123 23<0 681 0 681>
LayerCount: 2
Back
Fore
SplineSet
364 610 m 2xb0
 178 367 l 1
 506 0 l 1
 478 0 l 1
 149 367 l 1
 349 624 l 2
 389 676 416 691 460 691 c 0
 493 691 521 674 540 655 c 1
 527 642 l 1
 509 658 489 671 460 671 c 0
 428 671 405 664 364 610 c 2xb0
146 681 m 1xd0
 146 0 l 1
 123 0 l 1
 123 681 l 1
 146 681 l 1xd0
EndSplineSet
Substitution2: "'c2sc' Capitals to Small Capitals lookup 26 subtable" uni0199.sc
Substitution2: "'aalt' Access All Alternates lookup 0 subtable" uni0199.sc
Position2: "'cpsp' Capital Spacing lookup 0 subtable" dx=5 dy=0 dh=10 dv=0
EndChar
StartChar: uni019A
Encoding: 410 410 515
Width: 286
GlyphClass: 2
Flags: MW
HStem: -10 21<189 213 189 213.5> 0 21G<252 252> 360 21<21 132 21 132 154 265> 713 20G<132 132> 716 20G<154 154>
VStem: 132 22<72 73 73 360 381 733 733 733>
AnchorPoint: "Anchor-14" 280 375 basechar 0
AnchorPoint: "Anchor-13" 193 732 basechar 0
AnchorPoint: "Anchor-12" 143 733 basechar 0
AnchorPoint: "Anchor-11" 0 0 basechar 0
AnchorPoint: "Anchor-10" 197 0 basechar 0
LayerCount: 2
Back
Fore
SplineSet
265 360 m 1xac
 154 360 l 1
 154 73 l 2
 154 32 172 11 206 11 c 0xac
 220 11 233 14 245 19 c 1x6c
 252 0 l 1
 239 -5 222 -10 205 -10 c 0
 161 -10 132 16 132 72 c 2
 132 360 l 1
 21 360 l 1
 21 381 l 1
 132 381 l 1
 132 733 l 1xb4
 154 736 l 1
 154 381 l 1
 265 381 l 1
 265 360 l 1xac
EndSplineSet
Substitution2: "'smcp' Lowercase to Small Capitals lookup 27 subtable" uni019A.sc
Substitution2: "'aalt' Access All Alternates lookup 0 subtable" uni019A.sc
EndChar
